<?xml version="1.0" encoding="utf-8"?>
<!-- Generator: Adobe Illustrator 16.0.0, SVG Export Plug-In . SVG Version: 6.00 Build 0)  -->
<!DOCTYPE svg PUBLIC "-//W3C//DTD SVG 1.1//EN" "http://www.w3.org/Graphics/SVG/1.1/DTD/svg11.dtd">
<svg version="1.1" id="Layer_1" xmlns="http://www.w3.org/2000/svg" xmlns:xlink="http://www.w3.org/1999/xlink" x="0px" y="0px"
	 width="320px" height="200px" viewBox="0 0 320 200" enable-background="new 0 0 320 200" xml:space="preserve">
<g>
	<g opacity="0.76">
		<g>
			<defs>
				<rect id="SVGID_193_" x="109.777" y="52.075" width="101.368" height="80.915"/>
			</defs>
			<clipPath id="SVGID_2_">
				<use xlink:href="#SVGID_193_"  overflow="visible"/>
			</clipPath>
			<path clip-path="url(#SVGID_2_)" fill="#D87799" d="M155.068,80.755l-1.499-28.68l-11.777,0.888l-5.783,3.112l-1.234,6.23
				l-1.658,1.554l-5.33-0.895l-2.448,1.334l-4.446,3.337l-1.554,2.004l-0.889,6.666l1.554,3.779l0.445,3.558l-6.225,1.554
				l-4.446,8.228l1.778,6.445l5.338,2.444l2.89,1.335l-2.67,5.555l0.222,5.338l4.001,5.555l5.116,0.895l3.997,0.22l2.003,0.225
				l1.112,6.89l2.89,3.776h3.333l4.449,0.226l4.891,0.664h2.668l3.299-29.572c0,0,0.203-1.991,1.869-1.991
				c1.668,0,7.668,0.5,9.389,0.387c1.726-0.111,1.614,1.946,1.614,1.946l2.28,9.672l0.22,18.895h13.786l3.999-4.672l0.889-4.446
				l0.444-1.549l4.227,0.665l5.775-2.448l3.337-1.113l2.223-4.222v-4l-1.114-3.559l-0.665-2.665l-1.112-1.114l4.669-1.329
				l1.778-2.672l1.553-2.666l0.89-4.671l-0.445-4.222l-2.668-2.668l-2.442-2.447l-2.668-0.885l1.778-3.557l0.445-4.671l-1.556-4.446
				l-2.89-2.003l-2.448-2.443h-3.776l-3.335-0.664l-1.336-6.225l-3.776-2.893l-3.779-2.448h-4.224h-2.888l-3.557-0.219h-1.559v4.665
				v4.894v3.779v4.669v4.665l0.225,4.454l-2.225,1.773c0,0-0.662,2.668-2.556,2.278c-1.364-0.28-5.445,1.943-5.445,1.943
				s-0.055-1.554-2.278-1.609C155.518,83.532,155.068,80.755,155.068,80.755"/>
		</g>
	</g>
	<path fill="#231F20" d="M124.365,147.918c-1.029,0.891-1.543,2.013-1.543,3.376c0,1.196,0.517,2.249,1.553,3.153
		c1.034,0.914,2.243,1.368,3.622,1.368c1.004,0,2.043-0.268,3.122-0.804v-2.108c-1.164,0.704-2.193,1.049-3.095,1.049
		c-0.882,0-1.631-0.275-2.245-0.827c-0.61-0.552-0.915-1.231-0.915-2.05c0-0.718,0.325-1.345,0.977-1.884
		c0.649-0.534,1.411-0.805,2.283-0.805c0.937,0,1.936,0.29,2.995,0.869v-2.043c-0.989-0.43-1.943-0.642-2.873-0.642
		C126.693,146.571,125.399,147.018,124.365,147.918 M120.253,155.568h2.103v-8.729h-2.103V155.568z M124.07,141.333
		c-0.317-0.275-0.694-0.418-1.129-0.418c-0.444,0-0.824,0.143-1.151,0.418c-0.322,0.275-0.482,0.604-0.482,0.987
		c0,0.387,0.16,0.713,0.482,0.988c0.327,0.277,0.707,0.412,1.151,0.412c0.435,0,0.812-0.135,1.129-0.412
		c0.32-0.275,0.475-0.602,0.475-0.988C124.544,141.938,124.39,141.608,124.07,141.333 M64.216,147.918
		c-1.034,0.891-1.549,2.013-1.549,3.376c0,1.196,0.52,2.249,1.554,3.153c1.034,0.914,2.243,1.368,3.622,1.368
		c1.007,0,2.048-0.268,3.118-0.804v-2.108c-1.159,0.704-2.188,1.049-3.088,1.049c-0.886,0-1.633-0.275-2.245-0.827
		s-0.917-1.231-0.917-2.05c0-0.718,0.325-1.345,0.977-1.884c0.652-0.534,1.411-0.805,2.28-0.805c0.944,0,1.944,0.29,2.993,0.869
		v-2.043c-0.982-0.43-1.938-0.642-2.868-0.642C66.539,146.571,65.25,147.018,64.216,147.918 M79.573,148.616
		c-0.384-0.609-0.929-1.104-1.636-1.48c-0.702-0.37-1.448-0.564-2.23-0.564c-1.269,0-2.378,0.457-3.32,1.374
		c-0.941,0.922-1.414,1.985-1.414,3.214c0,1.289,0.465,2.394,1.401,3.298c0.935,0.904,2.063,1.358,3.377,1.358
		c1.523,0,2.797-0.664,3.821-1.979v1.731h2.108v-8.729h-2.108V148.616z M78.878,153.275c-0.659,0.579-1.443,0.866-2.363,0.866
		c-0.924,0-1.713-0.287-2.363-0.874c-0.647-0.585-0.975-1.281-0.975-2.113c0-0.765,0.335-1.429,1.004-1.998
		c0.662-0.569,1.438-0.854,2.333-0.854c0.919,0,1.704,0.29,2.363,0.859c0.66,0.569,0.989,1.256,0.989,2.056
		C79.868,152.016,79.538,152.698,78.878,153.275 M116.329,146.571c-0.649,0-1.216,0.143-1.706,0.437
		c-0.49,0.285-0.999,0.745-1.529,1.379c-0.297-0.634-0.66-1.094-1.092-1.379c-0.427-0.294-1.026-0.437-1.781-0.437
		c-0.577,0-1.094,0.127-1.536,0.381c-0.449,0.256-0.917,0.66-1.406,1.21v-1.323h-2.108v8.729h2.108v-4.936
		c0-0.683,0.22-1.267,0.659-1.731c0.445-0.464,0.979-0.697,1.614-0.697c1.069,0,1.604,0.569,1.604,1.717v5.647h2.106v-4.784
		c0-0.729,0.217-1.341,0.652-1.838c0.43-0.494,0.964-0.742,1.583-0.742c1.097,0,1.639,0.485,1.639,1.456v5.908h2.108v-6.367
		c0-0.714-0.29-1.331-0.865-1.849C117.805,146.83,117.121,146.571,116.329,146.571 M137.496,147.777
		c-0.972,0.96-1.456,2.158-1.456,3.609c0,1.446,0.524,2.649,1.571,3.612c1.046,0.956,2.348,1.44,3.909,1.44
		c0.707,0,1.586-0.224,2.647-0.684v-2.883c-1.024,0.382-1.843,0.575-2.46,0.575c-0.682,0-1.239-0.201-1.651-0.593
		c-0.42-0.392-0.629-0.911-0.629-1.556c0-0.646,0.209-1.165,0.629-1.557c0.425-0.4,0.979-0.597,1.668-0.597
		c0.752,0,1.574,0.205,2.473,0.604v-2.729c-0.974-0.444-1.983-0.674-3.018-0.674C139.692,146.349,138.462,146.823,137.496,147.777
		 M91.385,148.632c-0.407-0.609-0.952-1.109-1.631-1.491c-0.679-0.375-1.416-0.569-2.2-0.569c-1.314,0-2.448,0.451-3.39,1.354
		c-0.949,0.899-1.426,1.976-1.426,3.234c0,1.279,0.464,2.373,1.396,3.288c0.927,0.908,2.048,1.368,3.348,1.368
		c1.611,0,2.907-0.689,3.904-2.063v1.816h2.061v-13.722h-2.061V148.632z M90.648,153.253c-0.665,0.564-1.461,0.849-2.403,0.849
		c-0.884,0-1.656-0.294-2.323-0.874c-0.665-0.584-0.997-1.271-0.997-2.046c0-0.816,0.328-1.511,0.982-2.073
		c0.652-0.562,1.449-0.849,2.393-0.849c0.904,0,1.684,0.297,2.348,0.872c0.655,0.579,0.979,1.258,0.979,2.05
		C91.628,151.991,91.303,152.683,90.648,153.253 M103.283,147.952c-1.024-0.924-2.253-1.381-3.689-1.381
		c-1.461,0-2.7,0.451-3.712,1.363c-1.014,0.912-1.521,1.986-1.521,3.225c0,1.319,0.5,2.429,1.499,3.317
		c1.004,0.895,2.243,1.339,3.727,1.339c1.936,0,3.482-0.652,4.641-1.955l-1.539-1.018c-0.807,0.867-1.808,1.299-2.997,1.299
		c-0.777,0-1.494-0.204-2.148-0.624c-0.657-0.41-1.076-1.069-1.264-1.974h8.52C104.816,150.075,104.312,148.877,103.283,147.952
		 M96.503,150.078c0.625-1.211,1.659-1.818,3.107-1.818c1.321,0,2.323,0.607,3.002,1.818H96.503z M60.064,148.616
		c-0.39-0.609-0.939-1.104-1.644-1.48c-0.699-0.37-1.443-0.564-2.23-0.564c-1.267,0-2.375,0.457-3.32,1.374
		c-0.941,0.922-1.414,1.985-1.414,3.214c0,1.289,0.47,2.394,1.404,3.298c0.937,0.904,2.063,1.358,3.38,1.358
		c1.519,0,2.795-0.664,3.824-1.979v1.731h2.104v-8.729h-2.104V148.616z M59.365,153.275c-0.659,0.579-1.449,0.866-2.363,0.866
		c-0.924,0-1.714-0.287-2.363-0.874c-0.649-0.585-0.972-1.281-0.972-2.113c0-0.765,0.332-1.429,0.997-1.998
		c0.667-0.569,1.444-0.854,2.338-0.854c0.914,0,1.704,0.29,2.363,0.859c0.655,0.569,0.987,1.256,0.987,2.056
		C60.352,152.016,60.02,152.698,59.365,153.275 M209.557,148.616c-0.39-0.609-0.935-1.104-1.642-1.48
		c-0.699-0.37-1.443-0.564-2.23-0.564c-1.269,0-2.375,0.457-3.317,1.374c-0.939,0.922-1.414,1.985-1.414,3.214
		c0,1.289,0.464,2.394,1.399,3.298c0.939,0.904,2.063,1.358,3.382,1.358c1.519,0,2.795-0.664,3.822-1.979v1.731h2.103v-8.729h-2.103
		V148.616z M208.857,153.275c-0.654,0.579-1.444,0.866-2.358,0.866c-0.926,0-1.718-0.287-2.363-0.874
		c-0.649-0.585-0.974-1.281-0.974-2.113c0-0.765,0.334-1.429,0.994-1.998c0.669-0.569,1.449-0.854,2.343-0.854
		c0.915,0,1.704,0.29,2.358,0.859c0.657,0.569,0.989,1.256,0.989,2.056C209.847,152.016,209.514,152.698,208.857,153.275
		 M152.453,151.279c0,0.649-0.197,1.192-0.587,1.624c-0.395,0.435-0.875,0.649-1.449,0.649c-0.54,0-0.995-0.228-1.364-0.67
		c-0.367-0.446-0.549-1.009-0.549-1.674v-4.638h-3.137v5.393c0,1.342,0.465,2.418,1.392,3.229c0.921,0.81,2.16,1.212,3.709,1.212
		c1.459,0,2.673-0.402,3.657-1.207c0.974-0.812,1.463-1.809,1.463-2.999v-5.628h-3.135V151.279z M247.284,146.571
		c-0.649,0-1.219,0.143-1.708,0.437c-0.487,0.285-0.999,0.745-1.523,1.379c-0.297-0.634-0.659-1.094-1.094-1.379
		c-0.429-0.294-1.024-0.437-1.778-0.437c-0.585,0-1.095,0.127-1.544,0.381c-0.445,0.256-0.915,0.66-1.404,1.21v-1.323h-2.103v8.729
		h2.103v-4.936c0-0.683,0.22-1.267,0.663-1.731c0.442-0.464,0.981-0.697,1.616-0.697c1.069,0,1.602,0.569,1.602,1.717v5.647h2.105
		v-4.784c0-0.729,0.215-1.341,0.647-1.838c0.435-0.494,0.962-0.742,1.589-0.742c1.097,0,1.641,0.485,1.641,1.456v5.908h2.108v-6.367
		c0-0.714-0.294-1.331-0.864-1.849C248.763,146.83,248.076,146.571,247.284,146.571 M234.241,147.952
		c-1.022-0.924-2.253-1.381-3.692-1.381c-1.464,0-2.698,0.451-3.712,1.363s-1.521,1.986-1.521,3.225
		c0,1.319,0.497,2.429,1.501,3.317c0.999,0.895,2.243,1.339,3.727,1.339c1.936,0,3.482-0.652,4.633-1.955l-1.536-1.018
		c-0.804,0.867-1.806,1.299-2.998,1.299c-0.774,0-1.488-0.204-2.148-0.624c-0.654-0.41-1.074-1.069-1.261-1.974h8.523
		C235.774,150.075,235.27,148.877,234.241,147.952 M227.461,150.078c0.622-1.211,1.654-1.818,3.102-1.818
		c1.324,0,2.329,0.607,3.003,1.818H227.461z M257.286,146.571c-1.67,0-2.955,0.656-3.852,1.968v-6.692h-2.103v13.722h2.103v-1.836
		c0.415,0.645,0.979,1.148,1.698,1.521c0.715,0.372,1.474,0.562,2.273,0.562c1.239,0,2.328-0.465,3.257-1.399
		c0.929-0.929,1.399-2.018,1.399-3.257c0-1.246-0.475-2.323-1.424-3.231C259.691,147.022,258.57,146.571,257.286,146.571
		 M258.87,153.218c-0.647,0.577-1.409,0.864-2.298,0.864c-0.966,0-1.776-0.28-2.436-0.845c-0.659-0.563-0.986-1.256-0.986-2.078
		c0-0.791,0.327-1.473,0.986-2.051c0.66-0.576,1.437-0.866,2.336-0.866c0.929,0,1.724,0.29,2.378,0.859
		c0.652,0.569,0.984,1.256,0.984,2.058C259.834,151.956,259.511,152.647,258.87,153.218 M274.276,146.839l-2.503,4.75l-3.617-4.75
		h-2.388l5.026,6.601l-3.27,6.218h2.2l6.732-12.818H274.276z M263.118,155.568h2.101v-13.722h-2.101V155.568z M222.456,150.226
		c-1.084-0.375-1.618-0.76-1.618-1.152c0-0.552,0.419-0.831,1.276-0.831c0.363,0,0.67,0.06,0.932,0.175
		c0.27,0.115,0.584,0.279,0.944,0.51l1.404-1.079c-1.169-0.854-2.226-1.276-3.167-1.276c-0.944,0-1.731,0.241-2.353,0.727
		c-0.625,0.479-0.939,1.089-0.939,1.813c0,0.584,0.22,1.079,0.659,1.479c0.439,0.396,1.231,0.792,2.373,1.188
		c1.139,0.395,1.718,0.834,1.718,1.325c0,0.274-0.167,0.517-0.49,0.727c-0.327,0.206-0.709,0.312-1.144,0.312
		c-0.625,0-1.226-0.247-1.808-0.738l-1.354,0.569c0.13-0.285,0.205-0.583,0.205-0.904c0-0.63-0.234-1.167-0.709-1.616
		c-0.475-0.442-1.254-0.852-2.331-1.227c-1.082-0.375-1.619-0.76-1.619-1.152c0-0.552,0.422-0.831,1.271-0.831
		c0.365,0,0.677,0.06,0.942,0.175c0.265,0.115,0.579,0.279,0.944,0.51l1.401-1.079c-1.169-0.854-2.228-1.276-3.17-1.276
		c-0.941,0-1.731,0.241-2.351,0.727c-0.626,0.479-0.939,1.089-0.939,1.813c0,0.584,0.222,1.079,0.66,1.479
		c0.439,0.396,1.226,0.792,2.373,1.188c1.139,0.395,1.713,0.834,1.713,1.325c0,0.274-0.163,0.517-0.49,0.727
		c-0.325,0.206-0.707,0.312-1.139,0.312c-0.63,0-1.232-0.247-1.809-0.738l-1.664,0.694c0.904,1.146,2.063,1.718,3.472,1.718
		c0.924,0,1.731-0.275,2.415-0.821c0.288-0.229,0.492-0.478,0.662-0.732c0.876,1.034,1.985,1.554,3.322,1.554
		c0.927,0,1.736-0.275,2.418-0.821c0.685-0.547,1.024-1.192,1.024-1.926c0-0.63-0.235-1.167-0.705-1.616
		C224.312,151.01,223.535,150.601,222.456,150.226 M165.559,143.211h-3.092v3.328h-1.176v2.652h1.176v7.039h3.092v-7.039h1.494
		v-2.652h-1.494V143.211z M174.729,151.279c0,0.649-0.197,1.192-0.587,1.624c-0.395,0.435-0.869,0.649-1.449,0.649
		c-0.54,0-0.994-0.228-1.359-0.67c-0.37-0.446-0.555-1.009-0.555-1.674v-4.638h-3.137v5.393c0,1.342,0.465,2.418,1.392,3.229
		c0.926,0.81,2.166,1.212,3.709,1.212c1.459,0,2.672-0.402,3.657-1.207c0.975-0.812,1.466-1.809,1.466-2.999v-5.628h-3.137V151.279z
		 M157.426,156.23h3.092v-15.034h-3.092V156.23z M190.988,146.349c-1.492,0-2.748,0.475-3.769,1.429
		c-1.017,0.96-1.532,2.138-1.532,3.547c0,1.559,0.485,2.803,1.454,3.724c0.964,0.928,2.268,1.392,3.907,1.392
		c2.226,0,3.864-0.864,4.923-2.579l-2.84-0.883c-0.542,0.805-1.287,1.209-2.241,1.209c-0.537,0-1.001-0.199-1.403-0.584
		c-0.4-0.395-0.617-0.899-0.657-1.524h7.421v-0.464c0-1.501-0.502-2.755-1.506-3.757
		C193.738,146.854,192.486,146.349,190.988,146.349 M188.854,150.135c0.083-0.576,0.32-1.023,0.71-1.344
		c0.395-0.307,0.887-0.464,1.486-0.464c1.042,0,1.711,0.604,2.001,1.808H188.854z M183.614,146.83
		c-0.404,0.282-0.759,0.662-1.064,1.14h-0.05v-1.431h-3.092v9.691h3.14v-4.31c0-0.751,0.175-1.331,0.52-1.751
		c0.355-0.419,0.847-0.626,1.484-0.626c0.248,0,0.507,0.021,0.764,0.069v-3.16c-0.17-0.029-0.359-0.045-0.567-0.045
		C184.398,146.408,184.024,146.548,183.614,146.83 M146.873,63.912c0-1.552-1.256-2.809-2.805-2.809
		c-0.672,0-1.279,0.248-1.764,0.635c-0.742,0.505-1.239,1.364-1.239,2.331c0,0.632,0.214,1.216,0.57,1.686
		c0.044,0.118,0.119,0.237,0.217,0.335v-0.005c0.185,0.192,4.499,4.674-0.332,9.501c-0.14,0.143-0.28,0.271-0.43,0.397
		c-4.761,3.907-10.332-0.731-10.576-0.943l0.003,0.005c-0.282-0.245-0.655-0.285-0.977-0.171c-0.382-1.093-1.412-1.882-2.641-1.882
		c-0.672,0-1.279,0.244-1.761,0.636c-0.749,0.502-1.234,1.354-1.234,2.32c0,1.554,1.257,2.811,2.803,2.811
		c0.76,0,1.449-0.299,1.949-0.791c0.314-0.261,0.577-0.585,0.759-0.955c2.67,2.086,8.156,4.437,12.75,0.655
		c0.325-0.248,0.64-0.53,0.951-0.843c3.984-3.986,3.035-7.865,1.819-10.169c0.354-0.145,0.669-0.354,0.932-0.619
		C146.481,65.53,146.873,64.769,146.873,63.912 M157.581,88.588c1.309-1.145,2.843-1.718,4.591-1.718
		c1.893,0,3.901,0.634,6.022,1.896v-0.37c0.077,0.048,0.157,0.083,0.234,0.136v-4.385c-1.973-0.909-3.894-1.358-5.758-1.358
		c-3.122,0-5.725,0.949-7.798,2.862c-0.075,0.069-0.145,0.146-0.22,0.22c-0.005,0.003-0.013,0.01-0.015,0.018
		c-2.076,1.906-3.112,4.309-3.112,7.206c0,2.554,1.039,4.797,3.123,6.734c2.081,1.943,4.511,2.913,7.276,2.913
		c2.028,0,4.114-0.569,6.27-1.719v-0.12c0.077-0.04,0.157-0.069,0.234-0.115v-4.501c-2.33,1.507-4.404,2.251-6.217,2.251
		c-1.778,0-3.288-0.593-4.516-1.771c-1.234-1.189-1.849-2.653-1.849-4.387c0-1.314,0.484-2.49,1.449-3.52
		C157.391,88.769,157.481,88.678,157.581,88.588 M198.184,123.249c0.152-0.033,0.299-0.056,0.447-0.09
		c0.03-0.006,0.067-0.016,0.1-0.025c1.563-0.368,3.072-1.039,4.426-2.026c2.668-1.955,4.316-4.788,4.856-7.811
		c0.41-2.333,0.16-4.776-0.802-7.028c-0.349-0.805-0.779-1.59-1.311-2.331c0.664-0.237,1.299-0.534,1.911-0.877
		c2.345-1.334,4.238-3.419,5.31-5.995c0.138-0.324,0.263-0.651,0.367-0.989c0.515-1.613,0.679-3.257,0.535-4.854
		c-0.435-4.758-3.637-9.039-8.445-10.62c0.657-0.975,1.171-2.038,1.526-3.147c0.05-0.157,0.092-0.314,0.135-0.472
		c0.02-0.065,0.045-0.131,0.055-0.2c0.589-2.253,0.55-4.687-0.225-7.004c-2.043-6.101-8.408-9.558-14.547-8.104
		c-0.23-3.667-2.088-7.153-5.176-9.339c-2.158-1.531-4.716-2.306-7.329-2.256c-0.05,0-0.093-0.008-0.145-0.005
		c-0.375,0.01-0.759,0.038-1.142,0.08h-10.873v30.758c0,1.185,0.962,2.144,2.148,2.144s2.148-0.959,2.148-2.144V54.452h6.796
		l0.148-0.021c2.043-0.283,4.089,0.217,5.77,1.406c2.708,1.923,3.969,5.375,3.137,8.586l-0.614,2.389l-0.035-0.03
		c-1.089,1.951-3.06,4.754-4.946,6.354c-0.725,0.585-1.434,0.992-2.073,1.082c-0.555,0.072-1.019-0.103-1.459-0.542
		c-2.188-2.188-1.177-3.475,1.144-5.948c1.458-1.555,3.107-3.316,3.107-5.566c0-4.439-3.672-5.613-5.615-5.613v0.158
		c-0.018,0-0.033,0.004-0.05,0.004c-0.044,0-0.095-0.004-0.142-0.004v0.019c-0.592,0.044-1.132,0.266-1.571,0.62
		c-0.744,0.5-1.231,1.358-1.231,2.328c0,1.549,1.257,2.803,2.803,2.803c0.762,0,1.451-0.311,1.958-0.803
		c0.502-0.412,0.852-0.991,0.969-1.655c0.417,0.53,0.707,1.267,0.707,2.303c0,1.464-1.254,2.803-2.573,4.212
		c-1.998,2.138-4.736,5.061-1.099,8.702c0.879,0.882,1.963,1.259,3.135,1.102c1.148-0.162,2.305-0.849,3.382-1.776
		c2.36-1.947,4.374-5.091,5.156-6.419l2.235-1.345c0.512-0.304,1.049-0.554,1.606-0.741c4.213-1.411,8.79,0.869,10.196,5.088
		c1.144,3.417-0.138,7.209-3.125,9.225l-4.833,3.268h-4.082v0.237h-0.237v3.112c-0.779-1.094-1.811-2.009-3.122-2.718
		c-1.441-0.779-2.963-1.169-4.571-1.169c-2.6,0-4.866,0.952-6.799,2.848c-0.05,0.05-0.095,0.1-0.14,0.154
		c-0.03,0.025-0.065,0.053-0.092,0.08c-1.931,1.898-2.895,4.117-2.895,6.652c0,2.68,0.954,4.961,2.87,6.836
		c1.916,1.877,4.219,2.812,6.921,2.812c2.74,0,5.095-1.059,7.054-3.172c0.267-0.27,0.519-0.563,0.774-0.869v3.548h4.332v-0.236
		h0.234v-0.544l4.916,3.133c0.85,0.54,1.579,1.224,2.176,2.038c2.62,3.582,1.836,8.638-1.751,11.261
		c-2.913,2.128-6.919,2.053-9.742-0.181l-6.205-4.896l2.875,7.364c0.365,0.937,0.552,1.92,0.552,2.927
		c0,0.298-0.02,0.585-0.05,0.874c-0.01,0.088-0.03,0.175-0.042,0.263c-0.028,0.197-0.058,0.395-0.098,0.585
		c-0.02,0.098-0.049,0.192-0.072,0.287c-0.05,0.18-0.095,0.359-0.155,0.534c-0.033,0.09-0.067,0.185-0.103,0.275
		c-0.067,0.175-0.135,0.349-0.209,0.514c-0.04,0.086-0.08,0.165-0.12,0.247c-0.084,0.178-0.18,0.346-0.277,0.513
		c-0.042,0.07-0.085,0.137-0.125,0.205c-0.113,0.18-0.232,0.344-0.357,0.519c-0.04,0.051-0.075,0.105-0.115,0.15
		c-0.15,0.19-0.302,0.365-0.467,0.535c-0.022,0.032-0.048,0.06-0.072,0.085c-0.192,0.196-0.393,0.39-0.604,0.569
		c-3.967-2.224-6.785-9.677-5.775-13.279c0.159-0.584,0.414-1.019,0.759-1.329c0.419-0.289,0.964-0.425,1.634-0.395
		c0.295,0.014,0.562-0.104,0.75-0.3c0.274-0.17,0.457-0.461,0.475-0.804c0.025-0.55-0.405-1.009-0.949-1.034
		c-1.244-0.045-2.286,0.277-3.083,0.924c-0.794,0.564-1.372,1.427-1.688,2.558c-1.234,4.446,1.764,11.875,5.782,14.925
		c-0.172,0.073-0.342,0.147-0.517,0.213c-0.005,0-0.005,0-0.01,0c-0.245,0.087-0.5,0.154-0.759,0.215
		c-0.028,0.005-0.055,0.015-0.083,0.02c-0.235,0.051-0.477,0.088-0.712,0.122c-0.052,0.006-0.1,0.016-0.15,0.021
		c-0.285,0.032-0.574,0.05-0.867,0.05h-7.891v-18.837c0.569-0.721,1.426-1.693,2.528-2.622c2.683-2.202,6.744-4.104,11.715-1.948
		c2.348,1.014,4.042,1.828,5.261,2.471c-0.455,0.5-0.739,1.164-0.739,1.898c0,1.551,1.258,2.805,2.807,2.805
		c0.719,0,1.369-0.274,1.864-0.72c0.52-0.39,0.899-0.946,1.054-1.599c0.22-0.252,0.315-0.614,0.248-0.974
		c-0.035-0.199-0.09-0.465-0.445-0.864c-0.387-0.82-1.154-1.414-2.073-1.568c-1.391-0.834-3.569-1.943-6.996-3.427
		c-5.965-2.586-10.821-0.168-13.938,2.452c-0.47,0.382-0.9,0.77-1.284,1.152v-5.01c0-1.181-0.961-2.143-2.148-2.143
		s-2.148,0.962-2.148,2.143v31.082h12.187c6.774,0,12.287-5.479,12.347-12.237c1.534,0.444,3.14,0.589,4.721,0.435
		c0.047-0.006,0.09-0.01,0.135-0.01c0.129-0.015,0.26-0.035,0.387-0.056c0.103-0.015,0.208-0.021,0.308-0.039
		C198.021,123.281,198.102,123.264,198.184,123.249 M189.824,96.716c-0.09,0.09-0.175,0.181-0.275,0.271
		c-1.349,1.193-2.962,1.793-4.841,1.793c-1.896,0-3.509-0.6-4.836-1.806c-1.333-1.201-1.998-2.666-1.998-4.384
		c0-1.352,0.497-2.548,1.488-3.602c0.105-0.101,0.205-0.205,0.317-0.3c1.366-1.18,2.965-1.767,4.793-1.767
		c1.878,0,3.497,0.592,4.841,1.771c1.349,1.185,2.023,2.607,2.023,4.27C191.337,94.378,190.828,95.634,189.824,96.716
		 M201.434,100.383l-6.15-0.225V84.666l5.925-0.38c1.004-0.06,1.998,0.065,2.96,0.365c4.234,1.35,6.582,5.895,5.233,10.121
		C208.31,98.209,205.031,100.519,201.434,100.383 M135.55,133.07c0.944,0.669,1.963,1.193,3.027,1.57
		c1.781,0.632,3.692,0.84,5.605,0.613h10.911v-31.836c0-1.187-0.959-2.143-2.143-2.143c-1.187,0-2.148,0.956-2.148,2.143v15.01
		c-0.325,0.674-0.76,1.333-1.339,1.863c-0.11,0.09-0.214,0.182-0.334,0.262c-1.346,0.895-3.167,0.962-5.4,0.19
		c-0.382-0.128-0.792-0.013-1.054,0.27c-0.177,0.117-0.322,0.287-0.395,0.507c-0.18,0.516,0.098,1.074,0.609,1.26
		c2.853,0.977,5.261,0.841,7.154-0.426c0.235-0.159,0.452-0.329,0.66-0.52c0.035-0.015,0.067-0.044,0.1-0.069v9.197h-6.834
		l-0.145,0.024c-2.048,0.28-4.107-0.224-5.791-1.419c-2.72-1.923-3.991-5.39-3.157-8.622l0.459-1.799
		c1.718-1.551,2.837-3.677,2.997-6.05c1.471-0.919,5.488-3.114,7.484-1.118c0.384,0.387,1.014,0.387,1.399,0
		c0.007-0.011,0.01-0.015,0.015-0.021c0.065-0.04,0.125-0.09,0.178-0.135c0.387-0.39,0.387-1.017,0-1.404
		c-2.726-2.727-7.052-0.839-9.245,0.423c-0.81-3.365-4.007-5.883-7.824-5.883c-1.671,0-3.194,0.589-4.361,1.554
		c-1.494,1.149-2.448,2.891-2.448,4.846h0.045c0.042,1.509,1.279,2.725,2.803,2.725c0.669,0,1.274-0.247,1.764-0.642
		c0.744-0.502,1.239-1.354,1.239-2.322c0-1.432-1.079-2.599-2.463-2.773c0.1-0.104,0.21-0.199,0.317-0.292
		c0.797-0.597,1.806-0.959,2.91-0.959c3.334,0,6.05,2.5,6.05,5.572c0,1.464-0.478,2.833-1.294,3.967l-3.212,1.943
		c-0.51,0.305-1.054,0.549-1.614,0.739c-0.22,0.075-0.442,0.133-0.66,0.188c-0.089,0.021-0.174,0.042-0.26,0.057
		c-0.107,0.024-0.22,0.039-0.325,0.056c-0.234,0.039-0.464,0.069-0.702,0.087c-2.755-0.118-5.218-1.257-6.954-3.035
		c-0.002,0-0.002-0.008-0.007-0.008c-0.132-0.17-0.26-0.348-0.385-0.526c-0.015-0.025-0.032-0.056-0.05-0.075
		c-0.103-0.165-0.21-0.333-0.305-0.505c-0.044-0.08-0.084-0.167-0.129-0.254c-0.062-0.126-0.13-0.251-0.19-0.385
		c-0.105-0.228-0.195-0.466-0.28-0.71c-1.149-3.43,0.142-7.241,3.143-9.272l6.509-4.396c1.699,1.289,3.662,1.942,5.905,1.942
		c2.743,0,5.096-1.059,7.057-3.172c0.262-0.27,0.517-0.563,0.771-0.869v3.548h4.332v-0.236h0.237V83.635h-4.336v0.237h-0.232v3.112
		c-0.779-1.094-1.808-2.009-3.122-2.718c-1.444-0.779-2.965-1.169-4.571-1.169c-2.603,0-4.866,0.952-6.799,2.848
		c-0.045,0.05-0.089,0.1-0.135,0.147c-0.033,0.03-0.065,0.057-0.1,0.087c-1.929,1.898-2.896,4.117-2.896,6.652
		c0,2.68,0.957,4.961,2.873,6.836c0.317,0.311,0.647,0.59,0.986,0.851l-7.818,0.502c-1.009,0.062-2.008-0.061-2.972-0.368
		c-2.063-0.654-3.742-2.075-4.736-3.993c-0.989-1.922-1.176-4.114-0.519-6.178c1.094-3.447,4.391-5.765,8.002-5.633l7.901,0.292
		l-6.667-4.251c-0.854-0.54-1.589-1.227-2.184-2.043c-2.637-3.603-1.843-8.681,1.759-11.315c2.922-2.131,6.949-2.062,9.787,0.178
		l6.2,4.896l-2.873-7.359c-0.365-0.941-0.555-1.93-0.555-2.939c0-2.163,0.844-4.199,2.373-5.726c1.529-1.528,3.564-2.37,5.726-2.37
		h7.928v27.149c0,1.194,0.961,2.147,2.148,2.147c1.184,0,2.143-0.953,2.143-2.147V49.916h-12.219
		c-6.794,0-12.33,5.506-12.387,12.279c-3.619-1.057-7.633-0.444-10.803,1.874c-2.673,1.95-4.424,4.83-4.931,8.098
		c-0.482,3.098,0.222,6.185,1.953,8.775c0.085,0.117,0.15,0.237,0.227,0.348c-3.544,1.285-6.427,4.146-7.621,7.891
		c-2.061,6.474,1.501,13.415,7.948,15.523c-2.108,3.13-2.745,7.142-1.504,10.865c2.051,6.12,8.443,9.585,14.603,8.124
		C130.589,127.375,132.448,130.879,135.55,133.07 M131.858,88.988c0.103-0.101,0.205-0.205,0.317-0.3
		c1.367-1.18,2.963-1.767,4.793-1.767c1.884,0,3.492,0.592,4.841,1.771c1.349,1.185,2.023,2.607,2.023,4.27
		c0,1.416-0.507,2.672-1.514,3.754c-0.09,0.09-0.177,0.181-0.275,0.271c-1.346,1.193-2.962,1.793-4.841,1.793
		c-1.896,0-3.512-0.6-4.841-1.806c-1.329-1.201-1.999-2.666-1.999-4.384C130.364,91.238,130.869,90.042,131.858,88.988
		 M189.139,80.614l0.025-0.024c0.058-0.04,0.117-0.08,0.17-0.136l7.264-7.263c0.385-0.385,0.385-1.009,0-1.399
		c-0.384-0.387-1.014-0.387-1.401,0l-0.022,0.025c-0.06,0.04-0.115,0.08-0.169,0.135l-7.264,7.264c-0.384,0.383-0.384,1.018,0,1.398
		C188.127,81.002,188.754,81.002,189.139,80.614"/>
	<path fill="#231F20" d="M124.365,147.918c-1.029,0.891-1.543,2.013-1.543,3.376c0,1.196,0.517,2.249,1.553,3.153
		c1.034,0.914,2.243,1.368,3.622,1.368c1.004,0,2.043-0.268,3.122-0.804v-2.108c-1.164,0.704-2.193,1.049-3.095,1.049
		c-0.882,0-1.631-0.275-2.245-0.827c-0.61-0.552-0.915-1.231-0.915-2.05c0-0.718,0.325-1.345,0.977-1.884
		c0.649-0.534,1.411-0.805,2.283-0.805c0.937,0,1.936,0.29,2.995,0.869v-2.043c-0.989-0.43-1.943-0.642-2.873-0.642
		C126.693,146.571,125.399,147.018,124.365,147.918 M120.253,155.568h2.103v-8.729h-2.103V155.568z M124.07,141.333
		c-0.317-0.275-0.694-0.418-1.129-0.418c-0.444,0-0.824,0.143-1.151,0.418c-0.322,0.275-0.482,0.604-0.482,0.987
		c0,0.387,0.16,0.713,0.482,0.988c0.327,0.277,0.707,0.412,1.151,0.412c0.435,0,0.812-0.135,1.129-0.412
		c0.32-0.275,0.475-0.602,0.475-0.988C124.544,141.938,124.39,141.608,124.07,141.333 M64.216,147.918
		c-1.034,0.891-1.549,2.013-1.549,3.376c0,1.196,0.52,2.249,1.554,3.153c1.034,0.914,2.243,1.368,3.622,1.368
		c1.007,0,2.048-0.268,3.118-0.804v-2.108c-1.159,0.704-2.188,1.049-3.088,1.049c-0.886,0-1.633-0.275-2.245-0.827
		s-0.917-1.231-0.917-2.05c0-0.718,0.325-1.345,0.977-1.884c0.652-0.534,1.411-0.805,2.28-0.805c0.944,0,1.944,0.29,2.993,0.869
		v-2.043c-0.982-0.43-1.938-0.642-2.868-0.642C66.539,146.571,65.25,147.018,64.216,147.918 M79.573,148.616
		c-0.384-0.609-0.929-1.104-1.636-1.48c-0.702-0.37-1.448-0.564-2.23-0.564c-1.269,0-2.378,0.457-3.32,1.374
		c-0.941,0.922-1.414,1.985-1.414,3.214c0,1.289,0.465,2.394,1.401,3.298c0.935,0.904,2.063,1.358,3.377,1.358
		c1.523,0,2.797-0.664,3.821-1.979v1.731h2.108v-8.729h-2.108V148.616z M78.878,153.275c-0.659,0.579-1.443,0.866-2.363,0.866
		c-0.924,0-1.713-0.287-2.363-0.874c-0.647-0.585-0.975-1.281-0.975-2.113c0-0.765,0.335-1.429,1.004-1.998
		c0.662-0.569,1.438-0.854,2.333-0.854c0.919,0,1.704,0.29,2.363,0.859c0.66,0.569,0.989,1.256,0.989,2.056
		C79.868,152.016,79.538,152.698,78.878,153.275 M116.329,146.571c-0.649,0-1.216,0.143-1.706,0.437
		c-0.49,0.285-0.999,0.745-1.529,1.379c-0.297-0.634-0.66-1.094-1.092-1.379c-0.427-0.294-1.026-0.437-1.781-0.437
		c-0.577,0-1.094,0.127-1.536,0.381c-0.449,0.256-0.917,0.66-1.406,1.21v-1.323h-2.108v8.729h2.108v-4.936
		c0-0.683,0.22-1.267,0.659-1.731c0.445-0.464,0.979-0.697,1.614-0.697c1.069,0,1.604,0.569,1.604,1.717v5.647h2.106v-4.784
		c0-0.729,0.217-1.341,0.652-1.838c0.43-0.494,0.964-0.742,1.583-0.742c1.097,0,1.639,0.485,1.639,1.456v5.908h2.108v-6.367
		c0-0.714-0.29-1.331-0.865-1.849C117.805,146.83,117.121,146.571,116.329,146.571 M137.496,147.777
		c-0.972,0.96-1.456,2.158-1.456,3.609c0,1.446,0.524,2.649,1.571,3.612c1.046,0.956,2.348,1.44,3.909,1.44
		c0.707,0,1.586-0.224,2.647-0.684v-2.883c-1.024,0.382-1.843,0.575-2.46,0.575c-0.682,0-1.239-0.201-1.651-0.593
		c-0.42-0.392-0.629-0.911-0.629-1.556c0-0.646,0.209-1.165,0.629-1.557c0.425-0.4,0.979-0.597,1.668-0.597
		c0.752,0,1.574,0.205,2.473,0.604v-2.729c-0.974-0.444-1.983-0.674-3.018-0.674C139.692,146.349,138.462,146.823,137.496,147.777
		 M91.385,148.632c-0.407-0.609-0.952-1.109-1.631-1.491c-0.679-0.375-1.416-0.569-2.2-0.569c-1.314,0-2.448,0.451-3.39,1.354
		c-0.949,0.899-1.426,1.976-1.426,3.234c0,1.279,0.464,2.373,1.396,3.288c0.927,0.908,2.048,1.368,3.348,1.368
		c1.611,0,2.907-0.689,3.904-2.063v1.816h2.061v-13.722h-2.061V148.632z M90.648,153.253c-0.665,0.564-1.461,0.849-2.403,0.849
		c-0.884,0-1.656-0.294-2.323-0.874c-0.665-0.584-0.997-1.271-0.997-2.046c0-0.816,0.328-1.511,0.982-2.073
		c0.652-0.562,1.449-0.849,2.393-0.849c0.904,0,1.684,0.297,2.348,0.872c0.655,0.579,0.979,1.258,0.979,2.05
		C91.628,151.991,91.303,152.683,90.648,153.253 M103.283,147.952c-1.024-0.924-2.253-1.381-3.689-1.381
		c-1.461,0-2.7,0.451-3.712,1.363c-1.014,0.912-1.521,1.986-1.521,3.225c0,1.319,0.5,2.429,1.499,3.317
		c1.004,0.895,2.243,1.339,3.727,1.339c1.936,0,3.482-0.652,4.641-1.955l-1.539-1.018c-0.807,0.867-1.808,1.299-2.997,1.299
		c-0.777,0-1.494-0.204-2.148-0.624c-0.657-0.41-1.076-1.069-1.264-1.974h8.52C104.816,150.075,104.312,148.877,103.283,147.952
		 M96.503,150.078c0.625-1.211,1.659-1.818,3.107-1.818c1.321,0,2.323,0.607,3.002,1.818H96.503z M60.064,148.616
		c-0.39-0.609-0.939-1.104-1.644-1.48c-0.699-0.37-1.443-0.564-2.23-0.564c-1.267,0-2.375,0.457-3.32,1.374
		c-0.941,0.922-1.414,1.985-1.414,3.214c0,1.289,0.47,2.394,1.404,3.298c0.937,0.904,2.063,1.358,3.38,1.358
		c1.519,0,2.795-0.664,3.824-1.979v1.731h2.104v-8.729h-2.104V148.616z M59.365,153.275c-0.659,0.579-1.449,0.866-2.363,0.866
		c-0.924,0-1.714-0.287-2.363-0.874c-0.649-0.585-0.972-1.281-0.972-2.113c0-0.765,0.332-1.429,0.997-1.998
		c0.667-0.569,1.444-0.854,2.338-0.854c0.914,0,1.704,0.29,2.363,0.859c0.655,0.569,0.987,1.256,0.987,2.056
		C60.352,152.016,60.02,152.698,59.365,153.275 M209.557,148.616c-0.39-0.609-0.935-1.104-1.642-1.48
		c-0.699-0.37-1.443-0.564-2.23-0.564c-1.269,0-2.375,0.457-3.317,1.374c-0.939,0.922-1.414,1.985-1.414,3.214
		c0,1.289,0.464,2.394,1.399,3.298c0.939,0.904,2.063,1.358,3.382,1.358c1.519,0,2.795-0.664,3.822-1.979v1.731h2.103v-8.729h-2.103
		V148.616z M208.857,153.275c-0.654,0.579-1.444,0.866-2.358,0.866c-0.926,0-1.718-0.287-2.363-0.874
		c-0.649-0.585-0.974-1.281-0.974-2.113c0-0.765,0.334-1.429,0.994-1.998c0.669-0.569,1.449-0.854,2.343-0.854
		c0.915,0,1.704,0.29,2.358,0.859c0.657,0.569,0.989,1.256,0.989,2.056C209.847,152.016,209.514,152.698,208.857,153.275
		 M152.453,151.279c0,0.649-0.197,1.192-0.587,1.624c-0.395,0.435-0.875,0.649-1.449,0.649c-0.54,0-0.995-0.228-1.364-0.67
		c-0.367-0.446-0.549-1.009-0.549-1.674v-4.638h-3.137v5.393c0,1.342,0.465,2.418,1.392,3.229c0.921,0.81,2.16,1.212,3.709,1.212
		c1.459,0,2.673-0.402,3.657-1.207c0.974-0.812,1.463-1.809,1.463-2.999v-5.628h-3.135V151.279z M247.284,146.571
		c-0.649,0-1.219,0.143-1.708,0.437c-0.487,0.285-0.999,0.745-1.523,1.379c-0.297-0.634-0.659-1.094-1.094-1.379
		c-0.429-0.294-1.024-0.437-1.778-0.437c-0.585,0-1.095,0.127-1.544,0.381c-0.445,0.256-0.915,0.66-1.404,1.21v-1.323h-2.103v8.729
		h2.103v-4.936c0-0.683,0.22-1.267,0.663-1.731c0.442-0.464,0.981-0.697,1.616-0.697c1.069,0,1.602,0.569,1.602,1.717v5.647h2.105
		v-4.784c0-0.729,0.215-1.341,0.647-1.838c0.435-0.494,0.962-0.742,1.589-0.742c1.097,0,1.641,0.485,1.641,1.456v5.908h2.108v-6.367
		c0-0.714-0.294-1.331-0.864-1.849C248.763,146.83,248.076,146.571,247.284,146.571 M234.241,147.952
		c-1.022-0.924-2.253-1.381-3.692-1.381c-1.464,0-2.698,0.451-3.712,1.363s-1.521,1.986-1.521,3.225
		c0,1.319,0.497,2.429,1.501,3.317c0.999,0.895,2.243,1.339,3.727,1.339c1.936,0,3.482-0.652,4.633-1.955l-1.536-1.018
		c-0.804,0.867-1.806,1.299-2.998,1.299c-0.774,0-1.488-0.204-2.148-0.624c-0.654-0.41-1.074-1.069-1.261-1.974h8.523
		C235.774,150.075,235.27,148.877,234.241,147.952 M227.461,150.078c0.622-1.211,1.654-1.818,3.102-1.818
		c1.324,0,2.329,0.607,3.003,1.818H227.461z M257.286,146.571c-1.67,0-2.955,0.656-3.852,1.968v-6.692h-2.103v13.722h2.103v-1.836
		c0.415,0.645,0.979,1.148,1.698,1.521c0.715,0.372,1.474,0.562,2.273,0.562c1.239,0,2.328-0.465,3.257-1.399
		c0.929-0.929,1.399-2.018,1.399-3.257c0-1.246-0.475-2.323-1.424-3.231C259.691,147.022,258.57,146.571,257.286,146.571
		 M258.87,153.218c-0.647,0.577-1.409,0.864-2.298,0.864c-0.966,0-1.776-0.28-2.436-0.845c-0.659-0.563-0.986-1.256-0.986-2.078
		c0-0.791,0.327-1.473,0.986-2.051c0.66-0.576,1.437-0.866,2.336-0.866c0.929,0,1.724,0.29,2.378,0.859
		c0.652,0.569,0.984,1.256,0.984,2.058C259.834,151.956,259.511,152.647,258.87,153.218 M274.276,146.839l-2.503,4.75l-3.617-4.75
		h-2.388l5.026,6.601l-3.27,6.218h2.2l6.732-12.818H274.276z M263.118,155.568h2.101v-13.722h-2.101V155.568z M222.456,150.226
		c-1.084-0.375-1.618-0.76-1.618-1.152c0-0.552,0.419-0.831,1.276-0.831c0.363,0,0.67,0.06,0.932,0.175
		c0.27,0.115,0.584,0.279,0.944,0.51l1.404-1.079c-1.169-0.854-2.226-1.276-3.167-1.276c-0.944,0-1.731,0.241-2.353,0.727
		c-0.625,0.479-0.939,1.089-0.939,1.813c0,0.584,0.22,1.079,0.659,1.479c0.439,0.396,1.231,0.792,2.373,1.188
		c1.139,0.395,1.718,0.834,1.718,1.325c0,0.274-0.167,0.517-0.49,0.727c-0.327,0.206-0.709,0.312-1.144,0.312
		c-0.625,0-1.226-0.247-1.808-0.738l-1.354,0.569c0.13-0.285,0.205-0.583,0.205-0.904c0-0.63-0.234-1.167-0.709-1.616
		c-0.475-0.442-1.254-0.852-2.331-1.227c-1.082-0.375-1.619-0.76-1.619-1.152c0-0.552,0.422-0.831,1.271-0.831
		c0.365,0,0.677,0.06,0.942,0.175c0.265,0.115,0.579,0.279,0.944,0.51l1.401-1.079c-1.169-0.854-2.228-1.276-3.17-1.276
		c-0.941,0-1.731,0.241-2.351,0.727c-0.626,0.479-0.939,1.089-0.939,1.813c0,0.584,0.222,1.079,0.66,1.479
		c0.439,0.396,1.226,0.792,2.373,1.188c1.139,0.395,1.713,0.834,1.713,1.325c0,0.274-0.163,0.517-0.49,0.727
		c-0.325,0.206-0.707,0.312-1.139,0.312c-0.63,0-1.232-0.247-1.809-0.738l-1.664,0.694c0.904,1.146,2.063,1.718,3.472,1.718
		c0.924,0,1.731-0.275,2.415-0.821c0.288-0.229,0.492-0.478,0.662-0.732c0.876,1.034,1.985,1.554,3.322,1.554
		c0.927,0,1.736-0.275,2.418-0.821c0.685-0.547,1.024-1.192,1.024-1.926c0-0.63-0.235-1.167-0.705-1.616
		C224.312,151.01,223.535,150.601,222.456,150.226 M165.559,143.211h-3.092v3.328h-1.176v2.652h1.176v7.039h3.092v-7.039h1.494
		v-2.652h-1.494V143.211z M174.729,151.279c0,0.649-0.197,1.192-0.587,1.624c-0.395,0.435-0.869,0.649-1.449,0.649
		c-0.54,0-0.994-0.228-1.359-0.67c-0.37-0.446-0.555-1.009-0.555-1.674v-4.638h-3.137v5.393c0,1.342,0.465,2.418,1.392,3.229
		c0.926,0.81,2.166,1.212,3.709,1.212c1.459,0,2.672-0.402,3.657-1.207c0.975-0.812,1.466-1.809,1.466-2.999v-5.628h-3.137V151.279z
		 M157.426,156.23h3.092v-15.034h-3.092V156.23z M190.988,146.349c-1.492,0-2.748,0.475-3.769,1.429
		c-1.017,0.96-1.532,2.138-1.532,3.547c0,1.559,0.485,2.803,1.454,3.724c0.964,0.928,2.268,1.392,3.907,1.392
		c2.226,0,3.864-0.864,4.923-2.579l-2.84-0.883c-0.542,0.805-1.287,1.209-2.241,1.209c-0.537,0-1.001-0.199-1.403-0.584
		c-0.4-0.395-0.617-0.899-0.657-1.524h7.421v-0.464c0-1.501-0.502-2.755-1.506-3.757
		C193.738,146.854,192.486,146.349,190.988,146.349 M188.854,150.135c0.083-0.576,0.32-1.023,0.71-1.344
		c0.395-0.307,0.887-0.464,1.486-0.464c1.042,0,1.711,0.604,2.001,1.808H188.854z M183.614,146.83
		c-0.404,0.282-0.759,0.662-1.064,1.14h-0.05v-1.431h-3.092v9.691h3.14v-4.31c0-0.751,0.175-1.331,0.52-1.751
		c0.355-0.419,0.847-0.626,1.484-0.626c0.248,0,0.507,0.021,0.764,0.069v-3.16c-0.17-0.029-0.359-0.045-0.567-0.045
		C184.398,146.408,184.024,146.548,183.614,146.83 M146.873,63.912c0-1.552-1.256-2.809-2.805-2.809
		c-0.672,0-1.279,0.248-1.764,0.635c-0.742,0.505-1.239,1.364-1.239,2.331c0,0.632,0.214,1.216,0.57,1.686
		c0.044,0.118,0.119,0.237,0.217,0.335v-0.005c0.185,0.192,4.499,4.674-0.332,9.501c-0.14,0.143-0.28,0.271-0.43,0.397
		c-4.761,3.907-10.332-0.731-10.576-0.943l0.003,0.005c-0.282-0.245-0.655-0.285-0.977-0.171c-0.382-1.093-1.412-1.882-2.641-1.882
		c-0.672,0-1.279,0.244-1.761,0.636c-0.749,0.502-1.234,1.354-1.234,2.32c0,1.554,1.257,2.811,2.803,2.811
		c0.76,0,1.449-0.299,1.949-0.791c0.314-0.261,0.577-0.585,0.759-0.955c2.67,2.086,8.156,4.437,12.75,0.655
		c0.325-0.248,0.64-0.53,0.951-0.843c3.984-3.986,3.035-7.865,1.819-10.169c0.354-0.145,0.669-0.354,0.932-0.619
		C146.481,65.53,146.873,64.769,146.873,63.912 M157.581,88.588c1.309-1.145,2.843-1.718,4.591-1.718
		c1.893,0,3.901,0.634,6.022,1.896v-0.37c0.077,0.048,0.157,0.083,0.234,0.136v-4.385c-1.973-0.909-3.894-1.358-5.758-1.358
		c-3.122,0-5.725,0.949-7.798,2.862c-0.075,0.069-0.145,0.146-0.22,0.22c-0.005,0.003-0.013,0.01-0.015,0.018
		c-2.076,1.906-3.112,4.309-3.112,7.206c0,2.554,1.039,4.797,3.123,6.734c2.081,1.943,4.511,2.913,7.276,2.913
		c2.028,0,4.114-0.569,6.27-1.719v-0.12c0.077-0.04,0.157-0.069,0.234-0.115v-4.501c-2.33,1.507-4.404,2.251-6.217,2.251
		c-1.778,0-3.288-0.593-4.516-1.771c-1.234-1.189-1.849-2.653-1.849-4.387c0-1.314,0.484-2.49,1.449-3.52
		C157.391,88.769,157.481,88.678,157.581,88.588 M198.184,123.249c0.152-0.033,0.299-0.056,0.447-0.09
		c0.03-0.006,0.067-0.016,0.1-0.025c1.563-0.368,3.072-1.039,4.426-2.026c2.668-1.955,4.316-4.788,4.856-7.811
		c0.41-2.333,0.16-4.776-0.802-7.028c-0.349-0.805-0.779-1.59-1.311-2.331c0.664-0.237,1.299-0.534,1.911-0.877
		c2.345-1.334,4.238-3.419,5.31-5.995c0.138-0.324,0.263-0.651,0.367-0.989c0.515-1.613,0.679-3.257,0.535-4.854
		c-0.435-4.758-3.637-9.039-8.445-10.62c0.657-0.975,1.171-2.038,1.526-3.147c0.05-0.157,0.092-0.314,0.135-0.472
		c0.02-0.065,0.045-0.131,0.055-0.2c0.589-2.253,0.55-4.687-0.225-7.004c-2.043-6.101-8.408-9.558-14.547-8.104
		c-0.23-3.667-2.088-7.153-5.176-9.339c-2.158-1.531-4.716-2.306-7.329-2.256c-0.05,0-0.093-0.008-0.145-0.005
		c-0.375,0.01-0.759,0.038-1.142,0.08h-10.873v30.758c0,1.185,0.962,2.144,2.148,2.144s2.148-0.959,2.148-2.144V54.452h6.796
		l0.148-0.021c2.043-0.283,4.089,0.217,5.77,1.406c2.708,1.923,3.969,5.375,3.137,8.586l-0.614,2.389l-0.035-0.03
		c-1.089,1.951-3.06,4.754-4.946,6.354c-0.725,0.585-1.434,0.992-2.073,1.082c-0.555,0.072-1.019-0.103-1.459-0.542
		c-2.188-2.188-1.177-3.475,1.144-5.948c1.458-1.555,3.107-3.316,3.107-5.566c0-4.439-3.672-5.613-5.615-5.613v0.158
		c-0.018,0-0.033,0.004-0.05,0.004c-0.044,0-0.095-0.004-0.142-0.004v0.019c-0.592,0.044-1.132,0.266-1.571,0.62
		c-0.744,0.5-1.231,1.358-1.231,2.328c0,1.549,1.257,2.803,2.803,2.803c0.762,0,1.451-0.311,1.958-0.803
		c0.502-0.412,0.852-0.991,0.969-1.655c0.417,0.53,0.707,1.267,0.707,2.303c0,1.464-1.254,2.803-2.573,4.212
		c-1.998,2.138-4.736,5.061-1.099,8.702c0.879,0.882,1.963,1.259,3.135,1.102c1.148-0.162,2.305-0.849,3.382-1.776
		c2.36-1.947,4.374-5.091,5.156-6.419l2.235-1.345c0.512-0.304,1.049-0.554,1.606-0.741c4.213-1.411,8.79,0.869,10.196,5.088
		c1.144,3.417-0.138,7.209-3.125,9.225l-4.833,3.268h-4.082v0.237h-0.237v3.112c-0.779-1.094-1.811-2.009-3.122-2.718
		c-1.441-0.779-2.963-1.169-4.571-1.169c-2.6,0-4.866,0.952-6.799,2.848c-0.05,0.05-0.095,0.1-0.14,0.154
		c-0.03,0.025-0.065,0.053-0.092,0.08c-1.931,1.898-2.895,4.117-2.895,6.652c0,2.68,0.954,4.961,2.87,6.836
		c1.916,1.877,4.219,2.812,6.921,2.812c2.74,0,5.095-1.059,7.054-3.172c0.267-0.27,0.519-0.563,0.774-0.869v3.548h4.332v-0.236
		h0.234v-0.544l4.916,3.133c0.85,0.54,1.579,1.224,2.176,2.038c2.62,3.582,1.836,8.638-1.751,11.261
		c-2.913,2.128-6.919,2.053-9.742-0.181l-6.205-4.896l2.875,7.364c0.365,0.937,0.552,1.92,0.552,2.927
		c0,0.298-0.02,0.585-0.05,0.874c-0.01,0.088-0.03,0.175-0.042,0.263c-0.028,0.197-0.058,0.395-0.098,0.585
		c-0.02,0.098-0.049,0.192-0.072,0.287c-0.05,0.18-0.095,0.359-0.155,0.534c-0.033,0.09-0.067,0.185-0.103,0.275
		c-0.067,0.175-0.135,0.349-0.209,0.514c-0.04,0.086-0.08,0.165-0.12,0.247c-0.084,0.178-0.18,0.346-0.277,0.513
		c-0.042,0.07-0.085,0.137-0.125,0.205c-0.113,0.18-0.232,0.344-0.357,0.519c-0.04,0.051-0.075,0.105-0.115,0.15
		c-0.15,0.19-0.302,0.365-0.467,0.535c-0.022,0.032-0.048,0.06-0.072,0.085c-0.192,0.196-0.393,0.39-0.604,0.569
		c-3.967-2.224-6.785-9.677-5.775-13.279c0.159-0.584,0.414-1.019,0.759-1.329c0.419-0.289,0.964-0.425,1.634-0.395
		c0.295,0.014,0.562-0.104,0.75-0.3c0.274-0.17,0.457-0.461,0.475-0.804c0.025-0.55-0.405-1.009-0.949-1.034
		c-1.244-0.045-2.286,0.277-3.083,0.924c-0.794,0.564-1.372,1.427-1.688,2.558c-1.234,4.446,1.764,11.875,5.782,14.925
		c-0.172,0.073-0.342,0.147-0.517,0.213c-0.005,0-0.005,0-0.01,0c-0.245,0.087-0.5,0.154-0.759,0.215
		c-0.028,0.005-0.055,0.015-0.083,0.02c-0.235,0.051-0.477,0.088-0.712,0.122c-0.052,0.006-0.1,0.016-0.15,0.021
		c-0.285,0.032-0.574,0.05-0.867,0.05h-7.891v-18.837c0.569-0.721,1.426-1.693,2.528-2.622c2.683-2.202,6.744-4.104,11.715-1.948
		c2.348,1.014,4.042,1.828,5.261,2.471c-0.455,0.5-0.739,1.164-0.739,1.898c0,1.551,1.258,2.805,2.807,2.805
		c0.719,0,1.369-0.274,1.864-0.72c0.52-0.39,0.899-0.946,1.054-1.599c0.22-0.252,0.315-0.614,0.248-0.974
		c-0.035-0.199-0.09-0.465-0.445-0.864c-0.387-0.82-1.154-1.414-2.073-1.568c-1.391-0.834-3.569-1.943-6.996-3.427
		c-5.965-2.586-10.821-0.168-13.938,2.452c-0.47,0.382-0.9,0.77-1.284,1.152v-5.01c0-1.181-0.961-2.143-2.148-2.143
		s-2.148,0.962-2.148,2.143v31.082h12.187c6.774,0,12.287-5.479,12.347-12.237c1.534,0.444,3.14,0.589,4.721,0.435
		c0.047-0.006,0.09-0.01,0.135-0.01c0.129-0.015,0.26-0.035,0.387-0.056c0.103-0.015,0.208-0.021,0.308-0.039
		C198.021,123.281,198.102,123.264,198.184,123.249 M189.824,96.716c-0.09,0.09-0.175,0.181-0.275,0.271
		c-1.349,1.193-2.962,1.793-4.841,1.793c-1.896,0-3.509-0.6-4.836-1.806c-1.333-1.201-1.998-2.666-1.998-4.384
		c0-1.352,0.497-2.548,1.488-3.602c0.105-0.101,0.205-0.205,0.317-0.3c1.366-1.18,2.965-1.767,4.793-1.767
		c1.878,0,3.497,0.592,4.841,1.771c1.349,1.185,2.023,2.607,2.023,4.27C191.337,94.378,190.828,95.634,189.824,96.716
		 M201.434,100.383l-6.15-0.225V84.666l5.925-0.38c1.004-0.06,1.998,0.065,2.96,0.365c4.234,1.35,6.582,5.895,5.233,10.121
		C208.31,98.209,205.031,100.519,201.434,100.383 M135.55,133.07c0.944,0.669,1.963,1.193,3.027,1.57
		c1.781,0.632,3.692,0.84,5.605,0.613h10.911v-31.836c0-1.187-0.959-2.143-2.143-2.143c-1.187,0-2.148,0.956-2.148,2.143v15.01
		c-0.325,0.674-0.76,1.333-1.339,1.863c-0.11,0.09-0.214,0.182-0.334,0.262c-1.346,0.895-3.167,0.962-5.4,0.19
		c-0.382-0.128-0.792-0.013-1.054,0.27c-0.177,0.117-0.322,0.287-0.395,0.507c-0.18,0.516,0.098,1.074,0.609,1.26
		c2.853,0.977,5.261,0.841,7.154-0.426c0.235-0.159,0.452-0.329,0.66-0.52c0.035-0.015,0.067-0.044,0.1-0.069v9.197h-6.834
		l-0.145,0.024c-2.048,0.28-4.107-0.224-5.791-1.419c-2.72-1.923-3.991-5.39-3.157-8.622l0.459-1.799
		c1.718-1.551,2.837-3.677,2.997-6.05c1.471-0.919,5.488-3.114,7.484-1.118c0.384,0.387,1.014,0.387,1.399,0
		c0.007-0.011,0.01-0.015,0.015-0.021c0.065-0.04,0.125-0.09,0.178-0.135c0.387-0.39,0.387-1.017,0-1.404
		c-2.726-2.727-7.052-0.839-9.245,0.423c-0.81-3.365-4.007-5.883-7.824-5.883c-1.671,0-3.194,0.589-4.361,1.554
		c-1.494,1.149-2.448,2.891-2.448,4.846h0.045c0.042,1.509,1.279,2.725,2.803,2.725c0.669,0,1.274-0.247,1.764-0.642
		c0.744-0.502,1.239-1.354,1.239-2.322c0-1.432-1.079-2.599-2.463-2.773c0.1-0.104,0.21-0.199,0.317-0.292
		c0.797-0.597,1.806-0.959,2.91-0.959c3.334,0,6.05,2.5,6.05,5.572c0,1.464-0.478,2.833-1.294,3.967l-3.212,1.943
		c-0.51,0.305-1.054,0.549-1.614,0.739c-0.22,0.075-0.442,0.133-0.66,0.188c-0.089,0.021-0.174,0.042-0.26,0.057
		c-0.107,0.024-0.22,0.039-0.325,0.056c-0.234,0.039-0.464,0.069-0.702,0.087c-2.755-0.118-5.218-1.257-6.954-3.035
		c-0.002,0-0.002-0.008-0.007-0.008c-0.132-0.17-0.26-0.348-0.385-0.526c-0.015-0.025-0.032-0.056-0.05-0.075
		c-0.103-0.165-0.21-0.333-0.305-0.505c-0.044-0.08-0.084-0.167-0.129-0.254c-0.062-0.126-0.13-0.251-0.19-0.385
		c-0.105-0.228-0.195-0.466-0.28-0.71c-1.149-3.43,0.142-7.241,3.143-9.272l6.509-4.396c1.699,1.289,3.662,1.942,5.905,1.942
		c2.743,0,5.096-1.059,7.057-3.172c0.262-0.27,0.517-0.563,0.771-0.869v3.548h4.332v-0.236h0.237V83.635h-4.336v0.237h-0.232v3.112
		c-0.779-1.094-1.808-2.009-3.122-2.718c-1.444-0.779-2.965-1.169-4.571-1.169c-2.603,0-4.866,0.952-6.799,2.848
		c-0.045,0.05-0.089,0.1-0.135,0.147c-0.033,0.03-0.065,0.057-0.1,0.087c-1.929,1.898-2.896,4.117-2.896,6.652
		c0,2.68,0.957,4.961,2.873,6.836c0.317,0.311,0.647,0.59,0.986,0.851l-7.818,0.502c-1.009,0.062-2.008-0.061-2.972-0.368
		c-2.063-0.654-3.742-2.075-4.736-3.993c-0.989-1.922-1.176-4.114-0.519-6.178c1.094-3.447,4.391-5.765,8.002-5.633l7.901,0.292
		l-6.667-4.251c-0.854-0.54-1.589-1.227-2.184-2.043c-2.637-3.603-1.843-8.681,1.759-11.315c2.922-2.131,6.949-2.062,9.787,0.178
		l6.2,4.896l-2.873-7.359c-0.365-0.941-0.555-1.93-0.555-2.939c0-2.163,0.844-4.199,2.373-5.726c1.529-1.528,3.564-2.37,5.726-2.37
		h7.928v27.149c0,1.194,0.961,2.147,2.148,2.147c1.184,0,2.143-0.953,2.143-2.147V49.916h-12.219
		c-6.794,0-12.33,5.506-12.387,12.279c-3.619-1.057-7.633-0.444-10.803,1.874c-2.673,1.95-4.424,4.83-4.931,8.098
		c-0.482,3.098,0.222,6.185,1.953,8.775c0.085,0.117,0.15,0.237,0.227,0.348c-3.544,1.285-6.427,4.146-7.621,7.891
		c-2.061,6.474,1.501,13.415,7.948,15.523c-2.108,3.13-2.745,7.142-1.504,10.865c2.051,6.12,8.443,9.585,14.603,8.124
		C130.589,127.375,132.448,130.879,135.55,133.07 M131.858,88.988c0.103-0.101,0.205-0.205,0.317-0.3
		c1.367-1.18,2.963-1.767,4.793-1.767c1.884,0,3.492,0.592,4.841,1.771c1.349,1.185,2.023,2.607,2.023,4.27
		c0,1.416-0.507,2.672-1.514,3.754c-0.09,0.09-0.177,0.181-0.275,0.271c-1.346,1.193-2.962,1.793-4.841,1.793
		c-1.896,0-3.512-0.6-4.841-1.806c-1.329-1.201-1.999-2.666-1.999-4.384C130.364,91.238,130.869,90.042,131.858,88.988
		 M189.139,80.614l0.025-0.024c0.058-0.04,0.117-0.08,0.17-0.136l7.264-7.263c0.385-0.385,0.385-1.009,0-1.399
		c-0.384-0.387-1.014-0.387-1.401,0l-0.022,0.025c-0.06,0.04-0.115,0.08-0.169,0.135l-7.264,7.264c-0.384,0.383-0.384,1.018,0,1.398
		C188.127,81.002,188.754,81.002,189.139,80.614"/>
</g>
</svg>
