<?xml version="1.0" encoding="utf-8"?>
<!-- Generator: Adobe Illustrator 16.0.0, SVG Export Plug-In . SVG Version: 6.00 Build 0)  -->
<!DOCTYPE svg PUBLIC "-//W3C//DTD SVG 1.1//EN" "http://www.w3.org/Graphics/SVG/1.1/DTD/svg11.dtd">
<svg version="1.1" id="Layer_1" xmlns="http://www.w3.org/2000/svg" xmlns:xlink="http://www.w3.org/1999/xlink" x="0px" y="0px"
	 width="320px" height="200px" viewBox="0 0 320 200" enable-background="new 0 0 320 200" xml:space="preserve">
<g>
	<path fill="#231F20" d="M121.885,148.481c0.179,0.343,0.059,0.627-0.362,0.627h-3.533c-0.299,0-0.481-0.143-0.604-0.37
		l-1.627-3.244H104.14l-1.632,3.244c-0.119,0.228-0.333,0.37-0.603,0.37h-3.562c-0.364,0-0.573-0.284-0.395-0.627l11.379-22.002
		c0.122-0.199,0.271-0.287,0.421-0.287h0.365c0.179,0,0.299,0.088,0.421,0.287L121.885,148.481z M113.918,141.793l-3.956-7.94
		l-3.982,7.94H113.918z"/>
	<path fill="#231F20" d="M138.786,126.337c5.007,0,8.3,4.268,8.3,7.77c0,3.758-3.293,7.829-8.3,7.829h-5.34v6.603
		c0,0.34-0.245,0.57-0.575,0.57h-3.202c-0.301,0-0.541-0.23-0.541-0.57v-21.66c0-0.284,0.24-0.541,0.575-0.541H138.786z
		 M138.333,138.007c2.837,0,4.437-1.965,4.437-3.9c0-1.91-1.6-3.845-4.437-3.845h-4.887v7.745H138.333z"/>
	<path fill="#231F20" d="M174.398,148.481c0.184,0.343,0.063,0.627-0.36,0.627h-3.532c-0.301,0-0.484-0.143-0.603-0.37l-1.632-3.244
		h-11.62l-1.629,3.244c-0.122,0.228-0.331,0.37-0.603,0.37h-3.562c-0.361,0-0.573-0.284-0.392-0.627l11.376-22.002
		c0.122-0.199,0.271-0.287,0.425-0.287h0.36c0.184,0,0.302,0.088,0.422,0.287L174.398,148.481z M166.432,141.793l-3.955-7.94
		l-3.982,7.94H166.432z"/>
	<path fill="#231F20" d="M182.516,143.273c0.363-0.399,0.818-0.399,1.146-0.172c0.998,0.801,2.778,2.306,5.013,2.306
		c2.175,0,4.045-0.768,4.045-2.533c0-1.85-2.024-2.391-4.104-3.188c-4.32-1.68-7.456-3.414-7.456-7.118
		c0-2.904,2.264-6.402,7.726-6.402c3.712,0,6.398,1.993,7.185,2.733c0.331,0.311,0.51,0.71,0.211,1.051l-1.509,1.879
		c-0.301,0.367-0.725,0.541-1.21,0.23c-0.965-0.714-2.532-2.021-4.647-2.021c-2.139,0-3.471,1.164-3.471,2.53
		c0,1.512,1.392,2.252,3.655,3.106c3.95,1.565,7.905,3.243,7.905,7.256c0,3.331-3.501,6.378-8.269,6.378
		c-4.317,0-7.003-2.594-7.755-3.274c-0.272-0.227-0.544-0.54-0.184-0.884L182.516,143.273z"/>
	<path fill="#231F20" d="M226.552,148.481c0.182,0.343,0.062,0.627-0.361,0.627h-3.531c-0.303,0-0.484-0.143-0.604-0.37
		l-1.632-3.244h-11.616l-1.629,3.244c-0.122,0.228-0.335,0.37-0.607,0.37h-3.56c-0.362,0-0.573-0.284-0.392-0.627l11.376-22.002
		c0.119-0.199,0.274-0.287,0.424-0.287h0.364c0.18,0,0.299,0.088,0.419,0.287L226.552,148.481z M218.584,141.793l-3.956-7.94
		l-3.979,7.94H218.584z"/>
	<path fill="#231F20" d="M82.911,163.94c0.045,0.083,0.018,0.149-0.078,0.149h-0.799c-0.078,0-0.123-0.032-0.149-0.089l-0.536-1.079
		h-3.79l-0.535,1.079c-0.032,0.057-0.08,0.089-0.146,0.089h-0.811c-0.086,0-0.131-0.066-0.099-0.149l3.311-6.438
		c0.023-0.057,0.071-0.074,0.114-0.074h0.112c0.045,0,0.081,0.018,0.113,0.074L82.911,163.94z M80.922,162.071l-1.467-2.932
		l-1.467,2.932H80.922z"/>
	<path fill="#231F20" d="M86.187,162.542c0.096-0.101,0.203-0.101,0.279-0.042c0.24,0.191,0.838,0.754,1.632,0.754
		c0.879,0,1.403-0.398,1.403-0.944c0-0.679-0.788-0.866-1.541-1.142c-1.153-0.43-2.061-0.911-2.061-1.943
		c0-0.847,0.657-1.805,2.234-1.805c1.081,0,1.861,0.588,2.079,0.785c0.081,0.074,0.126,0.173,0.054,0.258l-0.34,0.424
		c-0.073,0.089-0.169,0.122-0.284,0.047c-0.228-0.167-0.771-0.63-1.497-0.63c-0.795,0-1.258,0.415-1.258,0.921
		c0,0.569,0.58,0.804,1.403,1.102c1.056,0.394,2.197,0.86,2.197,1.995c0,0.965-0.987,1.829-2.379,1.829
		c-1.267,0-2.046-0.771-2.264-0.972c-0.072-0.057-0.132-0.135-0.046-0.224L86.187,162.542z"/>
	<path fill="#231F20" d="M94.473,157.471c0.077,0,0.138,0.057,0.138,0.131v6.349c0,0.073-0.054,0.14-0.132,0.14h-0.675
		c-0.087,0-0.149-0.057-0.149-0.14v-6.349c0-0.074,0.053-0.131,0.141-0.131H94.473z"/>
	<path fill="#231F20" d="M104.695,163.94c0.042,0.083,0.018,0.149-0.078,0.149h-0.801c-0.076,0-0.125-0.032-0.149-0.089
		l-0.537-1.079h-3.787l-0.538,1.079c-0.032,0.057-0.078,0.089-0.147,0.089h-0.809c-0.088,0-0.132-0.066-0.096-0.149l3.31-6.438
		c0.024-0.057,0.071-0.074,0.113-0.074h0.114c0.045,0,0.077,0.018,0.113,0.074L104.695,163.94z M102.703,162.071l-1.467-2.932
		l-1.464,2.932H102.703z"/>
	<path fill="#231F20" d="M113.741,157.471c0.081,0,0.143,0.057,0.143,0.122v6.372c0,0.068-0.054,0.125-0.13,0.125h-0.245
		c-0.186,0-0.38-0.125-0.629-0.382l-4.068-4.409v4.651c0,0.073-0.06,0.135-0.143,0.135l-0.69,0.005c-0.087,0-0.152-0.057-0.152-0.14
		v-6.349c0-0.074,0.065-0.131,0.144-0.131h0.412c0.078,0,0.131,0.032,0.2,0.107l4.316,4.75v-4.735c0-0.065,0.055-0.122,0.135-0.122
		H113.741z"/>
	<path fill="#231F20" d="M124.451,157.471c1.526,0,2.403,1.215,2.403,2.217c0,1.057-0.877,2.234-2.403,2.234h-1.748v2.028
		c0,0.093-0.055,0.14-0.138,0.14h-0.711c-0.09,0-0.144-0.047-0.144-0.14v-6.349c0-0.074,0.054-0.131,0.144-0.131H124.451z
		 M124.37,161.019c0.968,0,1.499-0.669,1.499-1.331c0-0.655-0.531-1.315-1.499-1.315h-1.667v2.646H124.37z"/>
	<path fill="#231F20" d="M135.823,163.94c0.041,0.083,0.019,0.149-0.077,0.149h-0.801c-0.078,0-0.12-0.032-0.149-0.089l-0.534-1.079
		h-3.792l-0.534,1.079c-0.036,0.057-0.078,0.089-0.149,0.089h-0.811c-0.083,0-0.13-0.066-0.095-0.149l3.31-6.438
		c0.024-0.057,0.072-0.074,0.114-0.074h0.113c0.044,0,0.078,0.018,0.112,0.074L135.823,163.94z M133.831,162.071l-1.465-2.932
		l-1.466,2.932H133.831z"/>
	<path fill="#231F20" d="M144.391,162.907c0.069,0.056,0.069,0.132-0.012,0.205c-0.648,0.649-1.536,1.038-2.587,1.038
		c-1.947,0-3.562-1.477-3.562-3.353c0-1.882,1.614-3.388,3.562-3.388c1.036,0,1.947,0.389,2.604,1.046
		c0.081,0.071,0.081,0.146,0.012,0.197l-0.561,0.43c-0.071,0.057-0.133,0.057-0.204-0.008c-0.376-0.374-1.026-0.762-1.815-0.762
		c-1.581,0-2.608,1.242-2.608,2.484c0,1.249,1.027,2.446,2.608,2.446c0.779,0,1.409-0.37,1.789-0.734
		c0.068-0.075,0.14-0.083,0.213-0.032L144.391,162.907z"/>
	<path fill="#231F20" d="M148.454,157.471c0.077,0,0.138,0.057,0.138,0.131v6.349c0,0.073-0.052,0.14-0.132,0.14h-0.676
		c-0.086,0-0.149-0.057-0.149-0.14v-6.349c0-0.074,0.054-0.131,0.144-0.131H148.454z"/>
	<path fill="#231F20" d="M156.203,157.471c0.086,0,0.149,0.057,0.149,0.131v0.639c0,0.081-0.054,0.132-0.149,0.132h-3.405v2.02
		h1.938c0.088,0,0.149,0.058,0.149,0.141v0.618c0,0.093-0.062,0.144-0.149,0.144h-1.938v2.656c0,0.093-0.054,0.14-0.132,0.14h-0.526
		c-0.212,0-0.334-0.14-0.334-0.328v-6.16c0-0.074,0.054-0.131,0.138-0.131H156.203z"/>
	<path fill="#231F20" d="M160.206,157.471c0.078,0,0.137,0.057,0.137,0.131v6.349c0,0.073-0.054,0.14-0.13,0.14h-0.676
		c-0.087,0-0.149-0.057-0.149-0.14v-6.349c0-0.074,0.054-0.131,0.14-0.131H160.206z"/>
	<path fill="#231F20" d="M169.676,162.907c0.065,0.056,0.065,0.132-0.013,0.205c-0.651,0.649-1.535,1.038-2.587,1.038
		c-1.947,0-3.566-1.477-3.566-3.353c0-1.882,1.619-3.388,3.566-3.388c1.034,0,1.948,0.389,2.604,1.046
		c0.078,0.071,0.078,0.146,0.01,0.197l-0.559,0.43c-0.071,0.057-0.135,0.057-0.203-0.008c-0.38-0.374-1.027-0.762-1.815-0.762
		c-1.584,0-2.608,1.242-2.608,2.484c0,1.249,1.024,2.446,2.608,2.446c0.779,0,1.409-0.37,1.786-0.734
		c0.071-0.075,0.143-0.083,0.212-0.032L169.676,162.907z"/>
	<path fill="#231F20" d="M184.016,163.94c0.041,0.083,0.017,0.149-0.078,0.149h-0.801c-0.081,0-0.126-0.032-0.149-0.089
		l-0.537-1.079h-3.789l-0.537,1.079c-0.036,0.057-0.078,0.089-0.149,0.089h-0.807c-0.087,0-0.132-0.066-0.095-0.149l3.31-6.438
		c0.024-0.057,0.065-0.074,0.112-0.074h0.113c0.043,0,0.078,0.018,0.114,0.074L184.016,163.94z M182.021,162.071l-1.465-2.932
		l-1.468,2.932H182.021z"/>
	<path fill="#231F20" d="M195.026,157.471c0.081,0,0.143,0.057,0.143,0.14v6.34c0,0.073-0.054,0.14-0.143,0.14h-0.693
		c-0.096,0-0.149-0.057-0.149-0.14v-4.562l-2.861,4.414c-0.042,0.066-0.083,0.096-0.156,0.096h-0.042
		c-0.071,0-0.115-0.029-0.161-0.096l-2.85-4.414v4.562c0,0.073-0.062,0.14-0.149,0.14h-0.692c-0.091,0-0.149-0.057-0.149-0.14
		v-6.349c0-0.074,0.054-0.131,0.137-0.131h0.598c0.081,0,0.132,0.022,0.177,0.089l3.115,4.801l3.116-4.801
		c0.032-0.066,0.086-0.089,0.176-0.089H195.026z"/>
	<path fill="#231F20" d="M199.549,158.372v2.02h2.016c0.088,0,0.149,0.058,0.149,0.141v0.618c0,0.093-0.062,0.144-0.149,0.144
		h-2.009v1.895h3.477c0.087,0,0.149,0.056,0.149,0.14v0.622c0,0.083-0.062,0.14-0.149,0.14h-4.329c-0.086,0-0.146-0.057-0.146-0.14
		v-6.349c0-0.074,0.054-0.131,0.139-0.131h4.337c0.087,0,0.149,0.057,0.149,0.131v0.639c0,0.081-0.062,0.132-0.149,0.132H199.549z"
		/>
	<path fill="#231F20" d="M211.615,163.931c0.062,0.085,0.018,0.159-0.099,0.159h-0.646c-0.196,0-0.353-0.167-0.424-0.263
		l-1.367-1.905h-1.739v2.028c0,0.093-0.054,0.14-0.137,0.14h-0.712c-0.089,0-0.143-0.047-0.143-0.14v-6.349
		c0-0.074,0.054-0.131,0.143-0.131h2.701c1.535,0,2.359,1.23,2.359,2.225c0,0.837-0.525,1.754-1.517,2.095L211.615,163.931z
		 M207.34,161.019h1.739c0.99,0,1.48-0.669,1.48-1.338c0-0.664-0.498-1.309-1.48-1.309h-1.739V161.019z"/>
	<path fill="#231F20" d="M215.615,157.471c0.08,0,0.143,0.057,0.143,0.131v6.349c0,0.073-0.054,0.14-0.131,0.14h-0.676
		c-0.089,0-0.151-0.057-0.151-0.14v-6.349c0-0.074,0.054-0.131,0.14-0.131H215.615z"/>
	<path fill="#231F20" d="M225.085,162.907c0.071,0.056,0.071,0.132-0.007,0.205c-0.651,0.649-1.534,1.038-2.59,1.038
		c-1.95,0-3.563-1.477-3.563-3.353c0-1.882,1.613-3.388,3.563-3.388c1.037,0,1.948,0.389,2.604,1.046
		c0.081,0.071,0.081,0.146,0.01,0.197l-0.562,0.43c-0.071,0.057-0.132,0.057-0.203-0.008c-0.377-0.374-1.024-0.762-1.817-0.762
		c-1.577,0-2.604,1.242-2.604,2.484c0,1.249,1.026,2.446,2.604,2.446c0.784,0,1.414-0.37,1.793-0.734
		c0.071-0.075,0.138-0.083,0.21-0.032L225.085,162.907z"/>
	<path fill="#231F20" d="M234.854,163.94c0.045,0.083,0.018,0.149-0.078,0.149h-0.801c-0.078,0-0.122-0.032-0.149-0.089
		l-0.531-1.079H229.5l-0.535,1.079c-0.036,0.057-0.08,0.089-0.149,0.089h-0.806c-0.088,0-0.135-0.066-0.1-0.149l3.311-6.438
		c0.027-0.057,0.071-0.074,0.113-0.074h0.113c0.046,0,0.078,0.018,0.114,0.074L234.854,163.94z M232.863,162.071l-1.47-2.932
		l-1.463,2.932H232.863z"/>
	<path fill="#231F20" d="M243.902,157.471c0.077,0,0.14,0.057,0.14,0.122v6.372c0,0.068-0.054,0.125-0.132,0.125h-0.244
		c-0.185,0-0.376-0.125-0.621-0.382l-4.075-4.409v4.651c0,0.073-0.06,0.135-0.143,0.135l-0.69,0.005
		c-0.086,0-0.149-0.057-0.149-0.14v-6.349c0-0.074,0.063-0.131,0.14-0.131h0.413c0.08,0,0.131,0.032,0.202,0.107l4.317,4.75v-4.735
		c0-0.065,0.05-0.122,0.131-0.122H243.902z"/>
	<path fill="#231F20" d="M98.446,173.393c0.096-0.1,0.203-0.1,0.28-0.039c0.236,0.188,0.834,0.753,1.631,0.753
		c0.879,0,1.404-0.397,1.404-0.943c0-0.679-0.789-0.87-1.541-1.145c-1.154-0.431-2.065-0.908-2.065-1.942
		c0-0.845,0.661-1.805,2.238-1.805c1.081,0,1.861,0.586,2.08,0.786c0.08,0.075,0.125,0.174,0.054,0.257l-0.341,0.422
		c-0.072,0.09-0.168,0.125-0.281,0.048c-0.228-0.161-0.771-0.628-1.499-0.628c-0.796,0-1.259,0.413-1.259,0.92
		c0,0.571,0.583,0.801,1.404,1.1c1.055,0.4,2.196,0.86,2.196,1.995c0,0.969-0.986,1.829-2.381,1.829
		c-1.264,0-2.048-0.771-2.262-0.968c-0.072-0.061-0.132-0.132-0.046-0.222L98.446,173.393z"/>
	<path fill="#231F20" d="M110.832,168.32c0.077,0,0.137,0.051,0.137,0.132v0.64c0,0.073-0.06,0.13-0.137,0.13h-2.119v5.58
		c0,0.091-0.051,0.138-0.14,0.138h-0.508c-0.228,0-0.34-0.138-0.34-0.328v-5.39h-2.119c-0.078,0-0.146-0.047-0.146-0.13v-0.628
		c0-0.085,0.06-0.144,0.146-0.144H110.832z"/>
	<path fill="#231F20" d="M119.447,168.314c0.09,0,0.143,0.048,0.143,0.138v4.064c-0.011,1.374-1.055,2.483-2.793,2.483
		c-1.729,0-2.746-1.109-2.746-2.483v-4.064c0-0.09,0.061-0.138,0.156-0.138h0.693c0.089,0,0.143,0.048,0.143,0.138v4
		c0,1.099,0.798,1.646,1.754,1.646c0.977,0,1.798-0.548,1.798-1.646v-4c0-0.09,0.054-0.138,0.142-0.138H119.447z"/>
	<path fill="#231F20" d="M125.294,168.32c2.332,0,3.587,1.709,3.587,3.28c0,1.727-1.26,3.339-3.579,3.339h-2.354
		c-0.086,0-0.149-0.053-0.149-0.138v-6.35c0-0.073,0.054-0.132,0.145-0.132H125.294z M125.32,174.04c1.622,0,2.551-1.2,2.545-2.452
		c0-1.225-0.896-2.366-2.545-2.366h-1.535l0.005,4.818H125.32z"/>
	<path fill="#231F20" d="M133.087,169.222v2.021h2.016c0.088,0,0.153,0.06,0.153,0.143v0.622c0,0.089-0.065,0.137-0.153,0.137h-2.01
		v1.896h3.477c0.091,0,0.149,0.059,0.149,0.142v0.62c0,0.085-0.059,0.138-0.149,0.138h-4.325c-0.089,0-0.149-0.053-0.149-0.138
		v-6.35c0-0.073,0.054-0.132,0.142-0.132h4.333c0.091,0,0.149,0.059,0.149,0.132v0.64c0,0.083-0.059,0.13-0.149,0.13H133.087z"/>
	<path fill="#231F20" d="M145.908,168.32c0.078,0,0.139,0.059,0.139,0.125v6.372c0,0.069-0.052,0.122-0.132,0.122h-0.245
		c-0.186,0-0.377-0.122-0.622-0.376l-4.074-4.416v4.654c0,0.073-0.061,0.132-0.138,0.132l-0.692,0.006
		c-0.091,0-0.149-0.053-0.149-0.138v-6.35c0-0.073,0.059-0.132,0.137-0.132h0.412c0.081,0,0.132,0.036,0.203,0.107l4.32,4.75v-4.732
		c0-0.066,0.054-0.125,0.131-0.125H145.908z"/>
	<path fill="#231F20" d="M154.542,168.32c0.078,0,0.143,0.051,0.143,0.132v0.64c0,0.073-0.064,0.13-0.143,0.13h-2.114v5.58
		c0,0.091-0.054,0.138-0.142,0.138h-0.507c-0.228,0-0.344-0.138-0.344-0.328v-5.39h-2.116c-0.077,0-0.146-0.047-0.146-0.13v-0.628
		c0-0.085,0.061-0.144,0.146-0.144H154.542z"/>
	<path fill="#231F20" d="M168.946,174.794c0.043,0.081,0.016,0.146-0.079,0.146h-0.799c-0.08,0-0.125-0.029-0.149-0.089
		l-0.538-1.075h-3.787l-0.537,1.075c-0.037,0.06-0.078,0.089-0.149,0.089H162.1c-0.089,0-0.131-0.064-0.096-0.146l3.307-6.438
		c0.027-0.061,0.073-0.078,0.117-0.078h0.113c0.042,0,0.078,0.018,0.114,0.078L168.946,174.794z M166.951,172.923l-1.464-2.93
		l-1.463,2.93H166.951z"/>
	<path fill="#231F20" d="M172.221,173.393c0.096-0.1,0.198-0.1,0.277-0.039c0.237,0.188,0.835,0.753,1.636,0.753
		c0.877,0,1.403-0.397,1.403-0.943c0-0.679-0.789-0.87-1.548-1.145c-1.146-0.431-2.061-0.908-2.061-1.942
		c0-0.845,0.657-1.805,2.239-1.805c1.078,0,1.859,0.586,2.08,0.786c0.078,0.075,0.119,0.174,0.051,0.257l-0.345,0.422
		c-0.064,0.09-0.164,0.125-0.277,0.048c-0.229-0.161-0.773-0.628-1.502-0.628c-0.788,0-1.256,0.413-1.256,0.92
		c0,0.571,0.58,0.801,1.405,1.1c1.054,0.4,2.195,0.86,2.195,1.995c0,0.969-0.982,1.829-2.381,1.829
		c-1.261,0-2.043-0.771-2.264-0.968c-0.066-0.061-0.132-0.132-0.042-0.222L172.221,173.393z"/>
	<path fill="#231F20" d="M179.81,173.393c0.095-0.1,0.203-0.1,0.279-0.039c0.24,0.188,0.838,0.753,1.634,0.753
		c0.877,0,1.405-0.397,1.405-0.943c0-0.679-0.792-0.87-1.545-1.145c-1.149-0.431-2.061-0.908-2.061-1.942
		c0-0.845,0.657-1.805,2.234-1.805c1.081,0,1.864,0.586,2.082,0.786c0.081,0.075,0.122,0.174,0.051,0.257l-0.342,0.422
		c-0.071,0.09-0.167,0.125-0.279,0.048c-0.228-0.161-0.774-0.628-1.504-0.628c-0.787,0-1.252,0.413-1.252,0.92
		c0,0.571,0.578,0.801,1.405,1.1c1.052,0.4,2.192,0.86,2.192,1.995c0,0.969-0.982,1.829-2.378,1.829
		c-1.267,0-2.046-0.771-2.264-0.968c-0.073-0.061-0.132-0.132-0.042-0.222L179.81,173.393z"/>
	<path fill="#231F20" d="M188.227,169.222v2.021h2.021c0.083,0,0.149,0.06,0.149,0.143v0.622c0,0.089-0.066,0.137-0.149,0.137
		h-2.011v1.896h3.474c0.09,0,0.149,0.059,0.149,0.142v0.62c0,0.085-0.06,0.138-0.149,0.138h-4.326c-0.089,0-0.149-0.053-0.149-0.138
		v-6.35c0-0.073,0.054-0.132,0.142-0.132h4.334c0.09,0,0.149,0.059,0.149,0.132v0.64c0,0.083-0.06,0.13-0.149,0.13H188.227z"/>
	<path fill="#231F20" d="M203.041,168.32c0.078,0,0.141,0.059,0.141,0.144v6.338c0,0.073-0.055,0.138-0.141,0.138h-0.695
		c-0.096,0-0.149-0.053-0.149-0.138v-4.561l-2.859,4.411c-0.045,0.066-0.087,0.1-0.158,0.1h-0.045c-0.068,0-0.114-0.033-0.158-0.1
		l-2.85-4.411v4.561c0,0.073-0.061,0.138-0.149,0.138h-0.693c-0.09,0-0.149-0.053-0.149-0.138v-6.35c0-0.073,0.054-0.132,0.14-0.132
		h0.596c0.08,0,0.13,0.026,0.179,0.093l3.113,4.801l3.118-4.801c0.032-0.066,0.084-0.093,0.174-0.093H203.041z"/>
	<path fill="#231F20" d="M211.475,173.097c0,1.091-1.019,1.843-2.098,1.843h-2.835c-0.086,0-0.149-0.053-0.149-0.138v-6.35
		c0-0.073,0.054-0.132,0.142-0.132h2.616c1.111,0,1.947,0.921,1.947,1.744c0,0.607-0.343,1.078-0.81,1.35
		C211.018,171.732,211.475,172.359,211.475,173.097 M208.957,171.143c1.453,0,1.484-1.921,0.015-1.921h-1.59v1.921H208.957z
		 M209.15,174.04c1.72,0,1.727-2.019-0.019-2.019h-1.738v2.019H209.15z"/>
	<path fill="#231F20" d="M218.836,174.04c0.083,0,0.143,0.049,0.143,0.142v0.627c0,0.078-0.06,0.131-0.143,0.131h-4.142
		c-0.077,0-0.113-0.053-0.113-0.131v-6.356c0-0.073,0.054-0.132,0.141-0.132h0.712c0.079,0,0.14,0.059,0.14,0.132v5.588H218.836z"/>
	<path fill="#231F20" d="M226.937,168.32c0.071,0,0.126,0.074,0.071,0.149l-2.688,3.775v2.557c0,0.091-0.048,0.138-0.139,0.138
		h-0.507c-0.221,0-0.344-0.138-0.344-0.328v-2.366l-2.685-3.775c-0.042-0.075,0-0.149,0.076-0.149h0.887
		c0.073,0,0.105,0.059,0.154,0.125l2.061,2.861l2.062-2.861c0.05-0.066,0.077-0.125,0.155-0.125H226.937z"/>
	<path fill="#1B97A7" d="M122.894,88.013c13.526,18.517,40.535,22.565,40.535,22.565s-0.151-12.01-3.175-25.622
		c-2.032-9.117-5.347-18.949-10.772-26.379c-13.526-18.515-35.041-15.056-35.041-15.056S109.364,69.494,122.894,88.013"/>
	<path fill="#1B97A7" d="M203.34,88.522c-13.529,18.519-39.911,22.056-39.911,22.056s0.888-35.2,14.414-53.719
		c1.273-1.741,2.605-3.268,3.976-4.603c13.213-12.893,29.973-8.222,29.973-8.222S216.869,70.007,203.34,88.522"/>
	<path fill="#A0DAE7" d="M184.792,67.784c0,23.634-21.36,42.791-21.36,42.791s-21.353-19.157-21.353-42.791
		c0-23.629,21.353-42.784,21.353-42.784S184.792,44.155,184.792,67.784"/>
	<path fill="#A0DAE7" d="M201.826,83.023c-20.467,5.81-38.397,27.555-38.397,27.555s20.79,6.6,41.252,0.786
		c20.471-5.808,33.105-21.526,33.105-21.526S222.292,77.213,201.826,83.023"/>
	<path fill="#A0DAE7" d="M125.032,83.023c20.467,5.81,38.396,27.555,38.396,27.555s-20.789,6.6-41.251,0.786
		c-20.471-5.808-33.105-21.526-33.105-21.526S104.566,77.213,125.032,83.023"/>
	<path fill="#1FB4C8" d="M207.34,81.84c-0.002,0.003-0.007,0.003-0.007,0.003c-0.145,0.311-0.346,0.723-0.593,1.198
		c-0.49,0.947-0.903,1.643-1.176,2.097c-0.554,0.936-0.997,1.616-1.104,1.771c-0.52,0.788-0.965,1.41-1.255,1.802
		c-0.25,0.338-0.783,1.054-1.523,1.938c-0.382,0.46-1.036,1.231-1.905,2.143c-0.27,0.284-1.056,1.103-2.151,2.111
		c-0.46,0.424-1.425,1.299-2.724,2.33c-0.281,0.228-1.13,0.894-2.271,1.702c-0.226,0.162-1.037,0.735-2.146,1.45
		c-1.049,0.674-1.882,1.168-2.252,1.382c-1.159,0.676-2.056,1.148-2.605,1.436c-0.322,0.166-1.093,0.563-2.105,1.051
		c-1.097,0.526-1.944,0.899-2.238,1.028c-1.648,0.723-2.937,1.206-3.887,1.559c-0.547,0.203-1.18,0.442-2.043,0.734
		c-0.944,0.323-1.696,0.551-2.323,0.745c-0.801,0.242-1.423,0.421-1.694,0.498c-0.466,0.132-1.159,0.329-2.067,0.56
		c-0.586,0.152-1.571,0.396-2.861,0.665c-0.784,0.161-1.387,0.269-1.644,0.317c-0.508,0.086-0.956,0.154-1.326,0.211v-0.002
		c0.319-0.299,0.64-0.598,0.961-0.909c0.255-0.245,0.445-0.432,0.646-0.627c0.429-0.417,0.645-0.63,0.865-0.854
		c0.317-0.317,0.526-0.541,0.95-0.992c0.57-0.609,0.994-1.082,1.094-1.192c0.358-0.396,0.724-0.798,1.188-1.347
		c0.557-0.657,0.95-1.156,1.022-1.247c1.95-2.442,7.414-6.697,7.414-6.697c2.587-2.171,4.941-3.895,6.864-5.206
		c1.658-1.133,3.966-2.694,7.224-4.403c1.351-0.705,3.256-1.69,5.775-2.665c2.353-0.902,5.693-1.965,9.89-2.59H207.34z"/>
	<path fill="#1FB4C8" d="M163.432,110.575L163.432,110.575c-0.245-0.038-0.578-0.093-0.973-0.161
		c-0.359-0.065-0.789-0.153-1.548-0.317c-1.135-0.251-2.011-0.466-2.259-0.525c-1.039-0.257-1.854-0.484-2.271-0.598
		c-0.257-0.071-1.149-0.322-2.317-0.688c-0.353-0.106-1.166-0.363-2.199-0.713c-0.4-0.138-0.878-0.302-1.515-0.529
		c-0.528-0.193-0.929-0.346-1.317-0.495c-0.346-0.138-0.86-0.335-1.536-0.607c-0.605-0.247-1.062-0.438-1.328-0.553
		c-0.341-0.143-0.735-0.313-1.259-0.544c-0.541-0.245-0.955-0.437-1.141-0.525c-0.155-0.071-0.675-0.315-1.362-0.656
		c-0.107-0.054-0.609-0.306-1.272-0.648c-0.269-0.141-0.621-0.323-1.094-0.58c-0.627-0.337-1.099-0.606-1.245-0.689
		c-0.442-0.255-0.769-0.448-1.072-0.627c-0.329-0.201-0.661-0.395-1.098-0.671c-0.19-0.118-0.647-0.402-1.221-0.781
		c-0.598-0.395-1.043-0.703-1.183-0.802c-0.312-0.215-0.538-0.382-0.7-0.492c-0.238-0.174-0.615-0.442-1.093-0.804
		c-0.624-0.47-1.088-0.84-1.216-0.944c-0.47-0.376-0.842-0.687-1.064-0.878c-0.559-0.473-0.964-0.843-1.286-1.136
		c-0.37-0.334-0.718-0.647-1.171-1.093c-0.455-0.439-0.796-0.792-1.041-1.043c-0.463-0.48-0.797-0.846-0.89-0.946
		c-0.154-0.174-0.385-0.424-0.681-0.765c-0.305-0.353-0.526-0.625-0.771-0.926c-0.232-0.287-0.483-0.59-0.809-1.014
		c-0.171-0.221-0.448-0.583-0.779-1.042c-0.145-0.198-0.353-0.487-0.616-0.879c-0.227-0.335-0.383-0.58-0.651-0.997
		c-0.245-0.389-0.395-0.615-0.597-0.953c-0.293-0.481-0.509-0.869-0.592-1.019c-0.108-0.188-0.197-0.353-0.365-0.657
		c-0.179-0.33-0.25-0.467-0.274-0.514c-0.138-0.258-0.245-0.463-0.292-0.568c-0.073-0.14-0.132-0.263-0.186-0.364
		c0-0.003-0.003-0.013-0.006-0.018h0.006c0.208,0.029,0.478,0.065,0.788,0.11c0.125,0.021,0.406,0.062,0.711,0.11
		c0.696,0.114,1.239,0.228,1.553,0.293c0.686,0.143,1.195,0.27,1.34,0.302c0.143,0.032,0.549,0.135,1.081,0.284
		c0.447,0.125,0.783,0.226,1.04,0.304c0.31,0.096,0.726,0.221,1.206,0.383c0.362,0.116,0.827,0.271,1.423,0.489
		c0.486,0.18,0.83,0.317,1.281,0.497c0.504,0.203,1.036,0.414,1.729,0.72c0.666,0.295,1.158,0.527,1.602,0.74
		c0.843,0.404,1.46,0.721,1.588,0.786c0.629,0.321,1.088,0.573,1.572,0.839c0.377,0.207,0.717,0.392,1.176,0.655
		c0.646,0.37,1.13,0.662,1.482,0.877c0.567,0.348,0.992,0.615,1.261,0.784c0.281,0.179,0.729,0.463,1.315,0.848
		c0.147,0.096,0.758,0.505,1.565,1.063c0.561,0.389,0.982,0.693,1.313,0.933c0.302,0.214,0.634,0.456,1.075,0.782
		c0.458,0.34,0.796,0.598,1.117,0.842c0.609,0.469,1.063,0.831,1.381,1.076c0.424,0.335,0.711,0.561,1.105,0.884
		c0.346,0.284,0.614,0.508,0.788,0.651c0.377,0.316,0.415,0.353,1.052,0.896c0.559,0.469,0.573,0.478,0.848,0.716
		c0.348,0.299,0.609,0.532,0.843,0.735c0.452,0.4,0.788,0.705,1.028,0.92c0.281,0.255,0.676,0.615,1.197,1.103
		c0.174,0.162,0.409,0.38,0.721,0.679c0.289,0.274,0.311,0.302,0.776,0.747c0.58,0.562,0.603,0.578,0.921,0.887
		c0.232,0.233,0.409,0.404,0.703,0.702c0,0,0.419,0.421,0.793,0.8c0.527,0.538,2.404,2.543,4.904,5.318L163.432,110.575z"/>
	<path fill="#1FB4C8" d="M184.792,67.775c0,0.511-0.013,0.908-0.013,1.067c-0.012,0.436-0.029,0.762-0.044,1.021
		c-0.012,0.218-0.034,0.567-0.066,1.03c-0.021,0.275-0.054,0.636-0.098,1.066c-0.02,0.186-0.061,0.573-0.127,1.075
		c-0.018,0.125-0.074,0.583-0.169,1.188c-0.039,0.252-0.099,0.622-0.188,1.109c-0.071,0.373-0.126,0.656-0.187,0.936
		c-0.054,0.262-0.107,0.524-0.184,0.872c-0.103,0.438-0.187,0.773-0.265,1.087c-0.059,0.233-0.13,0.508-0.226,0.878
		c-0.029,0.099-0.132,0.473-0.274,0.962c-0.132,0.457-0.245,0.812-0.306,0.992c-0.14,0.448-0.25,0.779-0.341,1.046
		c-0.078,0.227-0.206,0.604-0.388,1.096c-0.2,0.559-0.359,0.975-0.395,1.066c-0.144,0.367-0.257,0.636-0.367,0.915
		c-0.11,0.262-0.249,0.603-0.434,1.039c-0.262,0.609-0.472,1.063-0.598,1.335c-0.149,0.325-0.34,0.737-0.573,1.22
		c-0.221,0.45-0.4,0.815-0.523,1.054c-0.122,0.245-0.331,0.646-0.594,1.141c-0.102,0.191-0.344,0.64-0.669,1.22
		c-0.29,0.52-0.514,0.904-0.663,1.159c-0.171,0.286-0.382,0.647-0.669,1.122c-0.299,0.484-0.526,0.846-0.693,1.109
		c-0.114,0.182-0.401,0.624-0.776,1.198c-0.188,0.283-0.479,0.723-0.876,1.296c-0.358,0.526-0.637,0.911-0.851,1.213
		c-0.191,0.266-0.468,0.646-0.84,1.146c-0.188,0.252-0.522,0.7-0.966,1.268c-0.453,0.579-0.528,0.654-0.835,1.061
		c-0.377,0.493-0.604,0.836-0.747,1.036c-0.482,0.687-1.088,1.344-2.301,2.661c-0.392,0.422-0.896,0.972-1.595,1.68
		c-0.693,0.701-1.273,1.252-1.733,1.69c-0.319,0.309-0.591,0.559-0.792,0.747l6.639-21.017l-6.639,21.014
		c0.022-0.699,0.057-1.655,0.123-2.784c0.024-0.397,0.078-1.281,0.228-3.053c0.104-1.207,0.23-2.674,0.448-4.648
		c0.113-1.034,0.304-2.751,0.627-5.005c0.054-0.372,0.274-1.908,0.62-3.927c0.276-1.6,0.509-2.839,0.622-3.415
		c0.171-0.879,0.427-2.202,0.818-3.943c0.419-1.882,0.783-3.29,0.879-3.66c0.412-1.602,0.779-2.873,0.997-3.608
		c0.224-0.759,0.574-1.93,1.091-3.466c0.612-1.812,1.126-3.147,1.258-3.482c0.544-1.407,1.024-2.521,1.314-3.183
		c0.313-0.703,0.675-1.525,1.212-2.602c0.64-1.278,1.19-2.258,1.47-2.748c0.401-0.698,0.972-1.69,1.822-2.945
		c0.867-1.272,1.614-2.223,2.014-2.719c0.968-1.194,1.725-1.991,1.886-2.162c0.395-0.415,0.738-0.756,1.007-1.01l0,0
		c0.05,0.143,0.096,0.263,0.131,0.36c0.036,0.1,0.09,0.245,0.156,0.434c0.039,0.114,0.041,0.132,0.115,0.348
		c0.088,0.25,0.093,0.279,0.138,0.411c0.033,0.099,0.122,0.358,0.228,0.688c0.051,0.164,0.086,0.279,0.158,0.507
		c0.06,0.201,0.099,0.331,0.152,0.511c0.06,0.207,0.105,0.361,0.159,0.562c0.054,0.19,0.096,0.331,0.149,0.524
		c0.041,0.159,0.071,0.278,0.112,0.431c0.033,0.135,0.069,0.274,0.113,0.451c0.071,0.286,0.125,0.514,0.149,0.615
		c0.071,0.313,0.125,0.55,0.164,0.723c0.1,0.467,0.171,0.812,0.188,0.915c0.06,0.287,0.096,0.502,0.123,0.633
		c0.033,0.193,0.075,0.409,0.122,0.7c0.054,0.321,0.091,0.566,0.12,0.776c0.029,0.187,0.065,0.436,0.107,0.765
		c0.042,0.311,0.066,0.552,0.084,0.698c0.032,0.306,0.056,0.531,0.059,0.592c0.031,0.269,0.046,0.472,0.061,0.657
		c0.018,0.242,0.035,0.406,0.047,0.63c0.024,0.296,0.034,0.52,0.042,0.715c0.015,0.316,0.024,0.588,0.03,0.806
		C184.792,67.238,184.792,67.672,184.792,67.775"/>
	<path fill="#1FB4C8" d="M163.429,110.575h-0.002c-0.138-0.161-0.338-0.383-0.58-0.648c-0.155-0.171-0.27-0.296-0.419-0.463
		c-0.232-0.257-0.436-0.48-0.689-0.759c-0.266-0.287-0.236-0.258-0.69-0.747c-0.338-0.37-0.357-0.395-0.567-0.621
		c-0.263-0.286-0.466-0.506-0.591-0.639c-0.316-0.341-0.49-0.529-0.738-0.789c-0.2-0.213-0.406-0.431-0.678-0.712
		c-0.239-0.238-0.245-0.245-0.538-0.544c-0.442-0.45-0.663-0.674-0.812-0.841c-0.107-0.127-0.299-0.359-0.675-0.828
		c-0.233-0.29-0.419-0.528-0.539-0.673c-0.16-0.206-0.349-0.441-0.591-0.758c-0.203-0.264-0.353-0.46-0.507-0.67
		c-0.153-0.196-0.309-0.405-0.515-0.687c-0.083-0.107-0.232-0.311-0.418-0.565c-0.248-0.343-0.43-0.603-0.568-0.797
		c-0.16-0.228-0.352-0.496-0.601-0.86c-0.059-0.084-0.286-0.415-0.585-0.861c-0.266-0.399-0.463-0.703-0.54-0.818
		c-0.288-0.441-0.502-0.781-0.574-0.896c-0.209-0.332-0.364-0.586-0.483-0.782c-0.138-0.221-0.27-0.437-0.448-0.735
		c-0.198-0.338-0.348-0.592-0.448-0.771c-0.057-0.089-0.255-0.437-0.515-0.896c-0.115-0.209-0.253-0.454-0.436-0.782
		c-0.035-0.071-0.212-0.395-0.438-0.828c-0.201-0.379-0.355-0.678-0.434-0.836c-0.096-0.188-0.242-0.475-0.431-0.857
		c-0.16-0.34-0.287-0.598-0.388-0.819c-0.078-0.167-0.191-0.409-0.341-0.73c-0.154-0.345-0.278-0.619-0.353-0.786
		c-0.167-0.383-0.289-0.676-0.326-0.76c-0.158-0.379-0.277-0.669-0.354-0.866c-0.087-0.218-0.204-0.508-0.354-0.89
		c-0.029-0.078-0.143-0.383-0.289-0.786c-0.057-0.152-0.146-0.399-0.264-0.73c-0.116-0.336-0.199-0.587-0.271-0.808
		c-0.084-0.245-0.158-0.476-0.256-0.782c-0.085-0.278-0.149-0.49-0.186-0.615c-0.024-0.075-0.123-0.403-0.245-0.85
		c-0.049-0.173-0.105-0.37-0.177-0.632c-0.018-0.073-0.104-0.401-0.213-0.84c-0.112-0.454-0.19-0.804-0.221-0.929
		c-0.029-0.138-0.095-0.425-0.173-0.796c-0.035-0.17-0.092-0.453-0.16-0.83c-0.02-0.096-0.088-0.451-0.165-0.926
		c-0.062-0.383-0.107-0.672-0.122-0.774c-0.054-0.38-0.096-0.677-0.114-0.826c-0.018-0.13-0.047-0.384-0.084-0.7
		c-0.039-0.37-0.065-0.656-0.078-0.789c-0.008-0.089-0.034-0.394-0.064-0.794c-0.012-0.203-0.036-0.484-0.051-0.849
		c-0.015-0.245-0.021-0.43-0.027-0.591c-0.007-0.216-0.018-0.487-0.023-0.836c-0.006-0.429,0-0.754,0-0.963
		c0.002-0.424,0.012-0.749,0.017-0.864c0.007-0.164,0.016-0.456,0.034-0.823c0.021-0.367,0.039-0.654,0.051-0.798
		c0.026-0.365,0.05-0.643,0.069-0.843c0.02-0.211,0.044-0.478,0.083-0.824c0.035-0.335,0.068-0.585,0.093-0.756
		c0.023-0.188,0.071-0.534,0.138-0.971c0.054-0.338,0.096-0.598,0.112-0.69c0.03-0.185,0.072-0.421,0.123-0.69
		c0.063-0.341,0.113-0.591,0.152-0.791c0.036-0.17,0.065-0.326,0.114-0.534c0.042-0.194,0.074-0.336,0.128-0.568
		c0.051-0.218,0.086-0.37,0.137-0.579c0.032-0.144,0.087-0.364,0.162-0.639c0.071-0.287,0.132-0.497,0.169-0.64
		c0.049-0.186,0.123-0.455,0.216-0.771c0.125-0.434,0.228-0.752,0.252-0.84c0.029-0.098,0.118-0.385,0.24-0.762
		c0.073-0.218,0.135-0.405,0.187-0.559l0.112-0.331c0.103,0.096,0.213,0.2,0.333,0.311c0.071,0.066,0.154,0.155,0.262,0.251
		c0.078,0.081,0.323,0.323,0.652,0.654c0.399,0.413,0.698,0.738,0.781,0.827c0.108,0.117,0.351,0.38,0.651,0.729
		c0.153,0.173,0.401,0.454,0.693,0.812c0.123,0.149,0.374,0.455,0.688,0.855c0.242,0.311,0.43,0.561,0.525,0.688
		c0,0,0.236,0.321,0.484,0.669c0.753,1.051,1.356,1.998,1.356,1.998c0.646,1.007,1.076,1.789,1.512,2.572
		c0.483,0.878,0.815,1.529,0.917,1.728c0.313,0.614,0.541,1.104,0.684,1.403c0.065,0.138,0.332,0.696,0.658,1.428
		c0.172,0.388,0.292,0.662,0.316,0.723c0.161,0.37,0.274,0.652,0.396,0.944c0.099,0.236,0.206,0.496,0.344,0.849
		c0.144,0.352,0.251,0.623,0.308,0.776c0.057,0.149,0.141,0.371,0.242,0.646c0.077,0.19,0.131,0.347,0.167,0.436
		c0.045,0.13,0.099,0.27,0.155,0.434c0.085,0.23,0.144,0.395,0.245,0.69c0.078,0.224,0.132,0.382,0.229,0.669
		c0.105,0.299,0.159,0.448,0.21,0.609c0.071,0.215,0.123,0.373,0.182,0.562c0.024,0.066,0.11,0.334,0.228,0.698
		c0.06,0.188,0.138,0.431,0.221,0.711c0.071,0.223,0.145,0.455,0.233,0.759c0.065,0.228,0.117,0.395,0.174,0.583
		c0.065,0.23,0.125,0.438,0.203,0.711c0.041,0.142,0.083,0.302,0.173,0.622c0.084,0.301,0.126,0.457,0.17,0.624
		c0.045,0.155,0.117,0.424,0.209,0.779c0.033,0.132,0.111,0.422,0.207,0.798c0.074,0.308,0.131,0.532,0.179,0.717
		c0.013,0.065,0.077,0.32,0.199,0.83c0.073,0.306,0.112,0.46,0.149,0.634c0.034,0.145,0.039,0.167,0.093,0.416
		c0.071,0.307,0.091,0.378,0.138,0.601c0.078,0.346,0.138,0.617,0.179,0.804c0.073,0.331,0.127,0.585,0.162,0.757
		c0.041,0.208,0.078,0.393,0.156,0.763c0.083,0.421,0.127,0.639,0.169,0.863c0.052,0.242,0.084,0.427,0.117,0.589
		c0.057,0.308,0.101,0.538,0.131,0.723c0.058,0.299,0.093,0.496,0.144,0.765c0.042,0.251,0.078,0.436,0.107,0.621
		c0.037,0.203,0.039,0.24,0.138,0.816c0.075,0.445,0.075,0.438,0.09,0.549c0.055,0.296,0.087,0.514,0.126,0.762
		c0.047,0.306,0.089,0.568,0.143,0.918c0.019,0.115,0.048,0.325,0.107,0.74c0.065,0.458,0.1,0.69,0.132,0.923
		c0.047,0.348,0.083,0.604,0.093,0.676c0.029,0.221,0.054,0.412,0.104,0.797c0.049,0.374,0.073,0.565,0.103,0.783
		c0.018,0.165,0.044,0.373,0.078,0.654c0.011,0.123,0.021,0.167,0.089,0.797c0.057,0.506,0.061,0.526,0.071,0.622
		c0.019,0.183,0.049,0.421,0.078,0.734c0.029,0.26,0.048,0.455,0.065,0.654c0.03,0.294,0.052,0.505,0.069,0.686
		c0.026,0.295,0.051,0.52,0.078,0.83c0.023,0.277,0.044,0.505,0.056,0.672c0.01,0.071,0.037,0.395,0.069,0.843
		c0.02,0.262,0.039,0.46,0.063,0.851c0.026,0.338,0.037,0.504,0.054,0.705c0.005,0.104,0.022,0.35,0.041,0.673
		c0.016,0.206,0.016,0.226,0.045,0.72c0.032,0.597,0.032,0.601,0.044,0.794c0.013,0.266,0.018,0.458,0.034,0.738
		c0.015,0.293,0.022,0.544,0.032,0.875c0.005,0.215,0.012,0.431,0.018,0.612C163.427,110.349,163.427,110.48,163.429,110.575"/>
	<path fill="#1FB4C8" d="M144.678,53.099c1.124,1.069,2.641,2.636,4.257,4.708c0.308,0.388,0.721,0.932,1.171,1.571
		c0.562,0.795,2.034,2.937,3.814,6.581c1.5,3.072,2.394,5.518,2.97,7.106c1.256,3.466,1.972,6.185,2.503,8.216
		c0.299,1.142,0.874,3.412,1.452,6.32c0.448,2.229,0.721,3.951,0.909,5.145c0.149,0.95,0.46,2.964,0.767,5.555
		c0.142,1.174,0.328,2.867,0.505,4.904c0.107,1.22,0.216,2.53,0.306,4.281c0.06,1.248,0.086,2.304,0.098,3.089L144.678,53.099z"/>
</g>
</svg>
