<?xml version="1.0" encoding="utf-8"?>
<!-- Generator: Adobe Illustrator 16.0.0, SVG Export Plug-In . SVG Version: 6.00 Build 0)  -->
<!DOCTYPE svg PUBLIC "-//W3C//DTD SVG 1.1//EN" "http://www.w3.org/Graphics/SVG/1.1/DTD/svg11.dtd">
<svg version="1.1" id="Layer_1" xmlns="http://www.w3.org/2000/svg" xmlns:xlink="http://www.w3.org/1999/xlink" x="0px" y="0px"
	 width="320px" height="200px" viewBox="0 0 320 200" enable-background="new 0 0 320 200" xml:space="preserve">
<g>
	<polygon fill="#9E1D22" points="92.553,63.033 35,120.383 42.92,120.383 92.553,70.965 142.393,120.383 150.727,120.383 	"/>
	<polygon points="92.866,79.301 51.055,120.383 58.561,120.383 92.866,86.6 126.335,120.383 134.881,120.383 	"/>
	<polygon fill="#0E9347" points="92.866,95.152 66.903,120.383 75.245,120.383 92.866,102.658 110.697,120.383 118.41,120.383 	"/>
	<path fill="#9E1D22" d="M156.364,120.383V68.504h7.792c3.473,0,6.247,0.271,8.306,0.809c2.075,0.533,3.831,1.443,5.269,2.719
		c1.454,1.322,2.611,2.967,3.456,4.943c0.878,1.992,1.32,4.002,1.32,6.047c0,3.717-1.427,6.861-4.268,9.443
		c2.746,0.938,4.922,2.584,6.516,4.939c1.617,2.326,2.416,5.035,2.416,8.123c0,4.059-1.432,7.49-4.295,10.285
		c-1.734,1.723-3.664,2.926-5.817,3.598c-2.349,0.648-5.296,0.973-8.831,0.973H156.364z M164.184,90.781h2.461
		c2.908,0,5.045-0.646,6.398-1.932c1.359-1.289,2.036-3.189,2.036-5.695c0-2.441-0.693-4.295-2.087-5.559
		c-1.387-1.264-3.4-1.902-6.046-1.902h-2.763V90.781z M164.184,113.021h4.849c3.541,0,6.137-0.689,7.792-2.08
		c1.75-1.498,2.617-3.406,2.617-5.717c0-2.23-0.833-4.121-2.517-5.641c-1.634-1.498-4.559-2.25-8.765-2.25h-3.977V113.021z"/>
	<path fill="#9E1D22" d="M226.39,76.197l-6.359,3.762c-1.186-2.059-2.315-3.398-3.389-4.029c-1.113-0.713-2.562-1.074-4.341-1.074
		c-2.176,0-3.965,0.621-5.403,1.848c-1.431,1.211-2.147,2.732-2.147,4.572c0,2.535,1.88,4.576,5.644,6.119l5.174,2.117
		c4.212,1.709,7.288,3.783,9.24,6.238c1.946,2.457,2.919,5.465,2.919,9.027c0,4.777-1.589,8.723-4.771,11.836
		c-3.199,3.143-7.182,4.709-11.931,4.709c-4.502,0-8.216-1.336-11.146-4.016c-2.897-2.674-4.698-6.432-5.414-11.27l7.931-1.752
		c0.358,3.049,0.984,5.158,1.879,6.32c1.617,2.24,3.966,3.359,7.064,3.359c2.433,0,4.469-0.814,6.074-2.453
		c1.616-1.629,2.428-3.701,2.428-6.213c0-1.002-0.151-1.924-0.432-2.77c-0.273-0.838-0.71-1.605-1.309-2.314
		c-0.592-0.703-1.358-1.365-2.293-1.98c-0.945-0.615-2.063-1.203-3.366-1.766l-5.001-2.076c-7.103-3.004-10.66-7.393-10.66-13.164
		c0-3.893,1.499-7.154,4.469-9.771c2.981-2.643,6.689-3.963,11.13-3.963C218.358,67.494,223.028,70.395,226.39,76.197"/>
	<path fill="#9E1D22" d="M267.097,107.785h-22.21l-5.783,12.598h-8.43l25.667-55.139l24.767,55.139h-8.563L267.097,107.785z
		 M263.902,100.424l-7.689-17.639l-8.066,17.639H263.902z"/>
	<path fill="#9E1D22" d="M157.153,131.166c0,0.57-0.022,1.223,0.336,1.709c0.335,0.473,0.995,0.736,1.549,0.736
		c0.548,0,1.152-0.258,1.504-0.684c0.408-0.492,0.387-1.164,0.387-1.762v-4.578h0.85v4.807c0,0.84-0.062,1.502-0.677,2.133
		c-0.525,0.57-1.292,0.877-2.063,0.877c-0.722,0-1.466-0.273-1.985-0.787c-0.677-0.645-0.755-1.34-0.755-2.223v-4.807h0.855V131.166
		z"/>
	<path fill="#9E1D22" d="M166.779,128.088c-0.303-0.535-0.672-0.836-1.326-0.836c-0.683,0-1.27,0.488-1.27,1.191
		c0,0.664,0.683,0.967,1.196,1.201l0.51,0.225c1.007,0.436,1.846,0.934,1.846,2.164c0,1.342-1.074,2.371-2.411,2.371
		c-1.235,0-2.147-0.793-2.394-1.984l0.828-0.236c0.123,0.783,0.722,1.428,1.538,1.428c0.827,0,1.588-0.639,1.588-1.5
		c0-0.895-0.704-1.201-1.42-1.533l-0.47-0.201c-0.901-0.404-1.667-0.867-1.667-1.969c0-1.188,1.007-1.951,2.147-1.951
		c0.855,0,1.571,0.436,1.985,1.191L166.779,128.088z"/>
	<path fill="#9E1D22" d="M174.855,128.27c-0.621-0.627-1.466-1.018-2.35-1.018c-1.711,0-3.099,1.486-3.099,3.176
		s1.393,3.184,3.115,3.184c0.867,0,1.712-0.412,2.333-1.02v1.059c-0.666,0.48-1.482,0.754-2.299,0.754
		c-2.171,0-4.005-1.762-4.005-3.943c0-2.203,1.801-4.004,4.005-4.004c0.855,0,1.611,0.246,2.299,0.75V128.27z"/>
	<path fill="#9E1D22" d="M179.437,126.588h1.258c1.398,0,2.567,0.512,2.567,2.078c0,0.627-0.229,1.152-0.749,1.5
		c0.917,0.223,1.46,1.051,1.46,1.967c0,1.521-1.236,2.137-2.758,2.137h-1.778V126.588z M180.292,129.973h0.324
		c0.968,0,1.79-0.111,1.79-1.307c0-1.16-0.728-1.281-1.773-1.281h-0.341V129.973z M180.292,133.479h0.85
		c0.974,0,1.975-0.236,1.975-1.406c0-1.197-1.141-1.367-2.081-1.367h-0.743V133.479z"/>
	<rect x="185.403" y="125.863" fill="#9E1D22" width="0.817" height="8.406"/>
	<path fill="#9E1D22" d="M192.317,134.27H191.5v-0.658h-0.027c-0.414,0.525-0.974,0.793-1.645,0.793
		c-1.404,0-2.293-1.193-2.293-2.52c0-1.365,0.867-2.535,2.304-2.535c0.655,0,1.242,0.305,1.634,0.816h0.027v-0.684h0.817V134.27z
		 M188.368,131.826c0,0.938,0.548,1.824,1.577,1.824c1.046,0,1.595-0.848,1.595-1.812c0-0.963-0.6-1.732-1.611-1.732
		C188.989,130.105,188.368,130.932,188.368,131.826"/>
	<path fill="#9E1D22" d="M197.58,130.91h-0.017c-0.381-0.482-0.84-0.805-1.487-0.805c-0.99,0-1.695,0.809-1.695,1.771
		c0,0.951,0.648,1.773,1.649,1.773c0.693,0,1.164-0.303,1.561-0.822h0.022v1.084c-0.47,0.318-0.95,0.492-1.516,0.492
		c-1.448,0-2.551-1.08-2.551-2.527c0-1.426,1.146-2.527,2.557-2.527c0.525,0,1.052,0.172,1.477,0.48V130.91z"/>
	<polygon fill="#9E1D22" points="199.851,131.256 201.602,129.482 202.687,129.482 200.64,131.523 203.072,134.27 201.993,134.27 
		200.068,132.096 199.851,132.307 199.851,134.27 199.046,134.27 199.046,125.863 199.851,125.863 	"/>
	<path fill="#9E1D22" d="M210.695,128.088c-0.308-0.535-0.671-0.836-1.325-0.836c-0.683,0-1.27,0.488-1.27,1.191
		c0,0.664,0.683,0.967,1.196,1.201l0.515,0.225c0.99,0.436,1.841,0.934,1.841,2.164c0,1.342-1.079,2.371-2.422,2.371
		c-1.225,0-2.143-0.793-2.389-1.984l0.839-0.236c0.106,0.783,0.711,1.428,1.539,1.428c0.821,0,1.577-0.639,1.577-1.5
		c0-0.895-0.699-1.201-1.415-1.533l-0.47-0.201c-0.9-0.404-1.673-0.867-1.673-1.969c0-1.188,1.007-1.951,2.147-1.951
		c0.855,0,1.583,0.436,1.991,1.191L210.695,128.088z"/>
	<polygon fill="#9E1D22" points="213.968,134.27 213.146,134.27 213.146,130.234 212.653,130.234 212.653,129.482 213.146,129.482 
		213.146,127.76 213.968,127.76 213.968,129.482 214.829,129.482 214.829,130.234 213.968,130.234 	"/>
	<path fill="#9E1D22" d="M216.513,132.15c0,0.811,0.089,1.5,1.073,1.5c0.996,0,1.091-0.689,1.091-1.5v-2.668h0.806v2.76
		c0,1.275-0.47,2.162-1.896,2.162c-1.409,0-1.89-0.887-1.89-2.162v-2.76h0.816V132.15z"/>
	<path fill="#9E1D22" d="M224.74,133.611h-0.022c-0.403,0.52-1.001,0.793-1.661,0.793c-1.398,0-2.282-1.193-2.282-2.52
		c0-1.365,0.867-2.535,2.299-2.535c0.644,0,1.253,0.305,1.645,0.816h0.022v-4.303h0.811v8.406h-0.811V133.611z M221.607,131.826
		c0,0.938,0.555,1.824,1.572,1.824c1.046,0,1.6-0.848,1.6-1.812c0-0.963-0.599-1.732-1.616-1.732
		C222.218,130.105,221.607,130.932,221.607,131.826"/>
	<path fill="#9E1D22" d="M227.677,132.051c0.006,0.883,0.632,1.6,1.555,1.6c0.699,0,1.146-0.42,1.471-0.99l0.688,0.396
		c-0.459,0.855-1.231,1.348-2.215,1.348c-1.421,0-2.344-1.09-2.344-2.467c0-1.418,0.833-2.588,2.321-2.588
		c1.549,0,2.354,1.273,2.276,2.701H227.677z M230.573,131.355c-0.111-0.689-0.693-1.25-1.415-1.25c-0.693,0-1.342,0.561-1.448,1.25
		H230.573z"/>
	<path fill="#9E1D22" d="M233.566,130.059h0.027c0.336-0.453,0.772-0.709,1.37-0.709c1.32,0,1.622,0.955,1.622,2.08v2.84h-0.816
		v-2.695c0-0.777-0.062-1.469-1.007-1.469c-1.124,0-1.196,1.039-1.196,1.895v2.27h-0.817v-4.787h0.817V130.059z"/>
	<polygon fill="#9E1D22" points="239.192,134.27 238.382,134.27 238.382,130.234 237.884,130.234 237.884,129.482 238.382,129.482 
		238.382,127.76 239.192,127.76 239.192,129.482 240.049,129.482 240.049,130.234 239.192,130.234 	"/>
	<path fill="#9E1D22" d="M245.277,132.096l-0.928,2.174h-0.939l3.546-8.045l3.456,8.045h-0.945l-0.911-2.174H245.277z
		 M246.938,128.219l-1.313,3.076h2.601L246.938,128.219z"/>
	<path fill="#9E1D22" d="M253.181,130.596c-0.111-0.258-0.357-0.49-0.648-0.49c-0.285,0-0.593,0.229-0.593,0.529
		c0,0.439,0.554,0.598,1.112,0.834c0.565,0.234,1.108,0.57,1.108,1.373c0,0.912-0.733,1.562-1.617,1.562
		c-0.805,0-1.432-0.463-1.688-1.213l0.716-0.303c0.201,0.447,0.441,0.762,0.979,0.762c0.441,0,0.777-0.297,0.777-0.736
		c0-1.068-2.159-0.701-2.159-2.209c0-0.803,0.655-1.355,1.421-1.355c0.554,0,1.068,0.391,1.275,0.885L253.181,130.596z"/>
	<path fill="#9E1D22" d="M257.247,130.596c-0.111-0.258-0.357-0.49-0.649-0.49c-0.284,0-0.592,0.229-0.592,0.529
		c0,0.439,0.548,0.598,1.106,0.834c0.565,0.234,1.108,0.57,1.108,1.373c0,0.912-0.728,1.562-1.617,1.562
		c-0.805,0-1.432-0.463-1.684-1.213l0.722-0.303c0.202,0.447,0.437,0.762,0.979,0.762c0.431,0,0.771-0.297,0.771-0.736
		c0-1.068-2.159-0.701-2.159-2.209c0-0.803,0.649-1.355,1.427-1.355c0.542,0,1.057,0.391,1.27,0.885L257.247,130.596z"/>
	<path fill="#9E1D22" d="M259.792,132.051c0.006,0.883,0.638,1.6,1.561,1.6c0.699,0,1.146-0.42,1.46-0.99l0.693,0.396
		c-0.464,0.855-1.236,1.348-2.215,1.348c-1.421,0-2.338-1.09-2.338-2.467c0-1.418,0.822-2.588,2.321-2.588
		c1.538,0,2.354,1.273,2.271,2.701H259.792z M262.689,131.355c-0.112-0.689-0.693-1.25-1.41-1.25c-0.693,0-1.354,0.561-1.448,1.25
		H262.689z"/>
	<path fill="#9E1D22" d="M265.48,130.002h0.022c0.257-0.396,0.66-0.652,1.151-0.652c0.56,0,1.074,0.295,1.326,0.795
		c0.285-0.531,0.855-0.795,1.432-0.795c1.225,0,1.532,1,1.532,2.006v2.914h-0.811v-2.785c0-0.615-0.039-1.379-0.884-1.379
		c-0.935,0-1.04,0.904-1.04,1.631v2.533h-0.817v-2.717c0-0.594-0.062-1.447-0.85-1.447c-0.962,0-1.062,0.969-1.062,1.693v2.471
		h-0.812v-4.787h0.812V130.002z"/>
	<path fill="#9E1D22" d="M272.455,125.863h0.811v4.303h0.022c0.386-0.512,0.984-0.816,1.639-0.816c1.426,0,2.299,1.17,2.299,2.527
		c0,1.334-0.878,2.527-2.287,2.527c-0.666,0-1.265-0.273-1.65-0.793h-0.022v0.658h-0.811V125.863z M273.227,131.826
		c0,0.938,0.549,1.824,1.565,1.824c1.052,0,1.601-0.848,1.601-1.812c0-0.963-0.599-1.732-1.611-1.732
		C273.842,130.105,273.227,130.932,273.227,131.826"/>
	<rect x="278.35" y="125.863" fill="#9E1D22" width="0.816" height="8.406"/>
	<polygon fill="#9E1D22" points="279.888,129.482 280.833,129.482 282.522,132.914 284.077,129.482 285,129.482 281.465,136.967 
		280.542,136.967 282.092,133.822 	"/>
</g>
</svg>
