<?xml version="1.0" encoding="utf-8"?>
<!-- Generator: Adobe Illustrator 16.0.0, SVG Export Plug-In . SVG Version: 6.00 Build 0)  -->
<!DOCTYPE svg PUBLIC "-//W3C//DTD SVG 1.1//EN" "http://www.w3.org/Graphics/SVG/1.1/DTD/svg11.dtd">
<svg version="1.1" id="Layer_1" xmlns="http://www.w3.org/2000/svg" xmlns:xlink="http://www.w3.org/1999/xlink" x="0px" y="0px"
	 width="320px" height="200px" viewBox="0 0 320 200" enable-background="new 0 0 320 200" xml:space="preserve">
<g>
	<rect x="69.436" y="109.772" width="6.812" height="5.573"/>
	<rect x="69.436" y="84.651" width="6.812" height="5.576"/>
	<rect x="80.921" y="78.748" width="6.813" height="11.479"/>
	<rect x="80.921" y="109.772" width="6.813" height="11.475"/>
	<rect x="103.898" y="49.599" width="6.812" height="40.628"/>
	<rect x="103.898" y="109.772" width="6.812" height="40.625"/>
	<rect x="92.413" y="25" width="6.812" height="65.227"/>
	<rect x="92.413" y="109.772" width="6.812" height="65.228"/>
	<rect x="115.384" y="62.583" width="6.813" height="27.644"/>
	<rect x="115.384" y="109.772" width="6.813" height="27.643"/>
	<rect x="126.875" y="67.284" width="6.812" height="22.943"/>
	<rect x="126.875" y="109.772" width="6.812" height="22.942"/>
	<rect x="138.361" y="75.272" width="6.812" height="14.955"/>
	<rect x="138.361" y="109.772" width="6.812" height="14.954"/>
	<rect x="149.848" y="78.748" width="6.813" height="11.479"/>
	<rect x="149.848" y="109.772" width="6.813" height="11.475"/>
	<rect x="161.338" y="109.772" width="6.812" height="51.965"/>
	<rect x="161.338" y="38.26" width="6.812" height="51.967"/>
	<rect x="172.825" y="49.599" width="6.812" height="40.628"/>
	<rect x="172.825" y="109.772" width="6.812" height="40.625"/>
	<rect x="184.31" y="64.06" width="6.812" height="26.167"/>
	<rect x="184.31" y="109.772" width="6.812" height="26.164"/>
	<rect x="195.801" y="68.829" width="6.812" height="21.398"/>
	<rect x="195.801" y="109.772" width="6.812" height="21.398"/>
	<rect x="207.287" y="79.445" width="6.812" height="10.782"/>
	<rect x="207.287" y="109.772" width="6.812" height="10.781"/>
	<rect x="218.773" y="81.586" width="6.812" height="8.641"/>
	<rect x="218.773" y="109.772" width="6.812" height="8.637"/>
	<rect x="230.264" y="86.793" width="6.812" height="3.434"/>
	<rect x="230.264" y="109.772" width="6.812" height="3.432"/>
	<rect x="242.635" y="87.971" width="6.812" height="2.256"/>
	<rect x="242.635" y="109.772" width="6.812" height="2.251"/>
	<g>
		<path d="M71.924,103.088c-1.401,0-2.514-1.127-2.514-2.513v-3.097c0-0.268,0.206-0.477,0.479-0.477
			c0.259,0,0.487,0.208,0.487,0.477v3.097c0,0.853,0.692,1.548,1.548,1.548c0.862,0,1.548-0.695,1.548-1.548v-3.097
			c0-0.268,0.22-0.477,0.487-0.477c0.272,0,0.479,0.208,0.479,0.477v3.097C74.438,101.961,73.317,103.088,71.924,103.088z"/>
		<path d="M78.802,101.578c0.155-0.193,0.441-0.222,0.634-0.062c0.383,0.312,1.047,0.678,1.658,0.666
			c0.436,0,0.827-0.129,1.091-0.318c0.258-0.191,0.377-0.41,0.377-0.627c0-0.113-0.031-0.191-0.082-0.279
			c-0.052-0.086-0.133-0.173-0.259-0.262c-0.257-0.164-0.677-0.313-1.194-0.408h-0.014c-0.412-0.079-0.796-0.184-1.128-0.338
			c-0.324-0.158-0.611-0.375-0.804-0.681c-0.132-0.208-0.198-0.451-0.198-0.711c0-0.523,0.294-0.975,0.692-1.27
			c0.406-0.297,0.937-0.463,1.504-0.463c0.833,0,1.452,0.41,1.895,0.697c0.199,0.14,0.265,0.417,0.125,0.617
			c-0.133,0.208-0.413,0.269-0.619,0.131c-0.443-0.297-0.87-0.556-1.401-0.556c-0.391,0-0.737,0.122-0.973,0.294
			c-0.236,0.176-0.333,0.365-0.333,0.549c0,0.104,0.015,0.174,0.06,0.245c0.043,0.068,0.125,0.146,0.235,0.224
			c0.229,0.157,0.62,0.297,1.092,0.383h0.014c0.444,0.087,0.856,0.199,1.202,0.365c0.354,0.176,0.671,0.4,0.871,0.723
			c0.124,0.208,0.206,0.47,0.206,0.739c0,0.555-0.309,1.034-0.745,1.347c-0.427,0.313-0.995,0.498-1.615,0.498
			c-0.937-0.007-1.724-0.479-2.227-0.87C78.677,102.053,78.654,101.77,78.802,101.578z"/>
		<path d="M87.221,99.957c0.016-1.722,1.454-3.122,3.193-3.131c0.767,0,1.459,0.252,2.012,0.681
			c0.207,0.172,0.243,0.477,0.089,0.695c-0.177,0.217-0.502,0.252-0.701,0.095c-0.383-0.313-0.863-0.479-1.401-0.479
			c-0.597,0-1.158,0.246-1.562,0.626c-0.391,0.4-0.634,0.921-0.634,1.513c0,0.592,0.243,1.133,0.634,1.514
			c0.405,0.383,0.966,0.626,1.562,0.626c0.538,0,1.01-0.165,1.401-0.476c0.199-0.15,0.523-0.117,0.701,0.093
			c0.154,0.218,0.117,0.53-0.089,0.696c-0.553,0.428-1.245,0.678-2.012,0.678C88.675,103.088,87.237,101.688,87.221,99.957z"/>
		<path d="M101.731,99.957c0.015-1.722,1.453-3.122,3.193-3.131c0.767,0,1.459,0.252,2.012,0.681
			c0.207,0.172,0.244,0.477,0.089,0.695c-0.177,0.217-0.501,0.252-0.701,0.095c-0.383-0.313-0.863-0.479-1.4-0.479
			c-0.598,0-1.158,0.246-1.564,0.626c-0.39,0.4-0.633,0.921-0.633,1.513c0,0.592,0.243,1.133,0.633,1.514
			c0.406,0.383,0.966,0.626,1.564,0.626c0.537,0,1.009-0.165,1.4-0.476c0.199-0.15,0.523-0.117,0.701,0.093
			c0.154,0.218,0.117,0.53-0.089,0.696c-0.553,0.428-1.245,0.678-2.012,0.678C103.184,103.088,101.746,101.688,101.731,99.957z"/>
		<path d="M116.019,97.756c0.539,0.574,0.877,1.34,0.877,2.2c0,0.86-0.339,1.635-0.877,2.204c-0.508,0.563-1.275,0.928-2.079,0.928
			c-0.833,0-1.6-0.364-2.13-0.928c-0.539-0.568-0.863-1.343-0.863-2.204c0-0.86,0.325-1.626,0.863-2.2
			c0.531-0.574,1.297-0.931,2.13-0.931C114.744,96.825,115.51,97.183,116.019,97.756z M115.908,99.957
			c0-0.592-0.236-1.139-0.589-1.521c-0.368-0.392-0.855-0.618-1.378-0.618c-0.553,0-1.039,0.227-1.409,0.618
			c-0.361,0.383-0.589,0.93-0.589,1.521c0,0.592,0.228,1.139,0.589,1.514c0.37,0.393,0.856,0.626,1.409,0.626
			c0.523,0,1.01-0.233,1.378-0.626C115.672,101.096,115.908,100.549,115.908,99.957z"/>
		<path d="M122.204,102.609c0,0.262-0.22,0.479-0.471,0.479c-0.272,0-0.479-0.217-0.479-0.479v-5.052c0,0,0,0,0-0.009
			c-0.008-0.147,0.058-0.303,0.191-0.4c0.221-0.147,0.515-0.105,0.663,0.105l2.81,3.888v-3.583c0-0.253,0.206-0.47,0.463-0.47
			c0.266,0,0.48,0.217,0.48,0.47v5.052c0,0.262-0.214,0.479-0.48,0.479c-0.132,0-0.265-0.07-0.353-0.172
			c-0.016-0.02-0.037-0.033-0.044-0.057L122.204,99V102.609z"/>
		<path d="M130.255,99.957c0.016-1.722,1.453-3.122,3.193-3.131c0.767,0,1.459,0.252,2.012,0.681
			c0.207,0.172,0.244,0.477,0.089,0.695c-0.177,0.217-0.501,0.252-0.7,0.095c-0.384-0.313-0.863-0.479-1.401-0.479
			c-0.597,0-1.158,0.246-1.564,0.626c-0.39,0.4-0.633,0.921-0.633,1.513c0,0.592,0.243,1.133,0.633,1.514
			c0.406,0.383,0.967,0.626,1.564,0.626c0.538,0,1.01-0.165,1.401-0.476c0.199-0.15,0.523-0.117,0.7,0.093
			c0.154,0.218,0.117,0.53-0.089,0.696c-0.553,0.428-1.245,0.678-2.012,0.678C131.708,103.088,130.271,101.688,130.255,99.957z"/>
		<path d="M139.891,102.609v-5.132c0-0.268,0.207-0.477,0.48-0.477h0.006c0,0,0,0,0.015,0h2.824c0.25,0,0.472,0.208,0.472,0.477
			c0,0.271-0.222,0.488-0.472,0.488h-2.358v1.59h2.027c0.258,0,0.479,0.227,0.479,0.48c0,0.269-0.221,0.486-0.479,0.486h-2.027
			v1.601h2.358c0.25,0,0.472,0.217,0.472,0.486c0,0.262-0.222,0.479-0.472,0.479h-2.824c-0.015,0-0.015-0.007-0.015-0.007
			l-0.006,0.007C140.097,103.088,139.891,102.871,139.891,102.609z"/>
		<path d="M151.902,102.366c0.08,0.25-0.053,0.524-0.31,0.611c-0.031,0.007-0.104,0.022-0.193,0.022c0,0,0,0-0.007,0
			c-0.088,0-0.214-0.016-0.339-0.096c-0.11-0.066-0.206-0.181-0.28-0.303c-0.118-0.252-0.177-0.567-0.177-1.043
			c-0.015-0.166-0.044-0.279-0.103-0.375c-0.059-0.094-0.162-0.182-0.265-0.251c-0.186-0.122-0.407-0.192-0.487-0.21h-1.025v1.887
			c0,0.262-0.222,0.479-0.486,0.479c-0.272,0-0.48-0.217-0.48-0.479v-5.132c0-0.268,0.208-0.477,0.48-0.477c0,0,0,0,0.008,0h1.547
			c1.033,0,1.858,0.835,1.858,1.869c0,0.575-0.257,1.08-0.678,1.426c0.117,0.087,0.221,0.191,0.31,0.323
			c0.169,0.252,0.286,0.572,0.286,0.939c-0.014,0.262,0.015,0.424,0.031,0.513C151.732,102.116,151.849,102.219,151.902,102.366z
			 M150.678,98.87c0-0.504-0.399-0.904-0.893-0.904h-1.068v1.792h1.068C150.279,99.758,150.678,99.358,150.678,98.87z"/>
		<path d="M159.576,97.966h-1.385v4.644c0,0.273-0.207,0.479-0.479,0.479c-0.258,0-0.473-0.205-0.473-0.479v-4.644h-1.379
			c-0.265,0-0.479-0.227-0.479-0.488c0-0.268,0.213-0.477,0.479-0.477h3.716c0.259,0,0.479,0.208,0.479,0.477
			C160.055,97.739,159.834,97.966,159.576,97.966z"/>
		<path d="M163.837,101.578c0.162-0.193,0.449-0.222,0.642-0.062c0.383,0.312,1.039,0.678,1.658,0.666
			c0.436,0,0.826-0.129,1.083-0.318c0.266-0.191,0.376-0.41,0.376-0.627c0-0.113-0.022-0.191-0.081-0.279
			c-0.052-0.086-0.126-0.173-0.258-0.262c-0.251-0.164-0.678-0.313-1.195-0.408h-0.014c-0.407-0.079-0.79-0.184-1.121-0.338
			c-0.333-0.158-0.619-0.375-0.811-0.681c-0.125-0.208-0.199-0.451-0.199-0.711c0-0.523,0.294-0.975,0.693-1.27
			c0.413-0.297,0.944-0.463,1.512-0.463c0.833,0,1.452,0.41,1.894,0.697c0.2,0.14,0.259,0.417,0.119,0.617
			c-0.125,0.208-0.405,0.269-0.619,0.131c-0.443-0.297-0.863-0.556-1.393-0.556c-0.399,0-0.745,0.122-0.981,0.294
			c-0.229,0.176-0.324,0.365-0.324,0.549c0,0.104,0.015,0.174,0.059,0.245c0.044,0.068,0.119,0.146,0.236,0.224
			c0.22,0.157,0.611,0.297,1.084,0.383h0.021c0.442,0.087,0.849,0.199,1.195,0.365c0.361,0.176,0.671,0.4,0.87,0.723
			c0.132,0.208,0.214,0.47,0.214,0.739c0,0.555-0.317,1.034-0.752,1.347c-0.428,0.313-0.988,0.498-1.607,0.498
			c-0.937-0.007-1.732-0.479-2.227-0.87C163.719,102.053,163.689,101.77,163.837,101.578z"/>
		<path d="M177.387,99.957c0.008-1.722,1.454-3.122,3.193-3.131c0.767,0,1.459,0.252,2.006,0.681
			c0.214,0.172,0.243,0.477,0.088,0.695c-0.17,0.217-0.494,0.252-0.693,0.095c-0.383-0.313-0.862-0.479-1.401-0.479
			c-0.605,0-1.157,0.246-1.57,0.626c-0.391,0.4-0.634,0.921-0.634,1.513c0,0.592,0.243,1.133,0.634,1.514
			c0.413,0.383,0.965,0.626,1.57,0.626c0.539,0,1.01-0.165,1.401-0.476c0.199-0.15,0.523-0.117,0.693,0.093
			c0.155,0.218,0.126,0.53-0.088,0.696c-0.546,0.428-1.239,0.678-2.006,0.678C178.841,103.088,177.395,101.688,177.387,99.957z"/>
		<path d="M191.676,97.756c0.537,0.574,0.876,1.34,0.876,2.2c0,0.86-0.339,1.635-0.876,2.204c-0.517,0.563-1.284,0.928-2.08,0.928
			c-0.841,0-1.6-0.364-2.131-0.928c-0.539-0.568-0.862-1.343-0.862-2.204c0-0.86,0.323-1.626,0.862-2.2
			c0.531-0.574,1.29-0.931,2.131-0.931C190.393,96.825,191.159,97.183,191.676,97.756z M191.558,99.957
			c0-0.592-0.235-1.139-0.589-1.521c-0.362-0.392-0.856-0.618-1.372-0.618c-0.561,0-1.047,0.227-1.408,0.618
			c-0.368,0.383-0.597,0.93-0.597,1.521c0,0.592,0.229,1.139,0.597,1.514c0.361,0.393,0.848,0.626,1.408,0.626
			c0.516,0,1.01-0.233,1.372-0.626C191.322,101.096,191.558,100.549,191.558,99.957z"/>
		<path d="M202.137,97.478v5.132c0,0.262-0.228,0.479-0.486,0.479c-0.272,0-0.479-0.217-0.479-0.479v-3.661l-1.253,1.741
			c-0.097,0.127-0.237,0.198-0.391,0.198h-0.008h-0.014c-0.155,0-0.303-0.07-0.398-0.198l-1.246-1.741v3.661
			c0,0.262-0.214,0.479-0.488,0.479c-0.257,0-0.479-0.217-0.479-0.479v-5.132c0-0.26,0.222-0.477,0.479-0.477
			c0.008,0,0.008,0,0.031,0c0.14,0,0.294,0.07,0.383,0.199l1.732,2.401l1.726-2.401c0.096-0.128,0.235-0.199,0.391-0.199
			c0,0,0,0,0.014,0C201.909,97.009,202.137,97.218,202.137,97.478z"/>
		<path d="M212.105,97.478v5.132c0,0.262-0.228,0.479-0.486,0.479c-0.273,0-0.479-0.217-0.479-0.479v-3.661l-1.252,1.741
			c-0.097,0.127-0.237,0.198-0.391,0.198h-0.008h-0.007c-0.154,0-0.302-0.07-0.397-0.198l-1.247-1.741v3.661
			c0,0.262-0.22,0.479-0.486,0.479c-0.265,0-0.479-0.217-0.479-0.479v-5.132c0-0.26,0.214-0.477,0.479-0.477
			c0.007,0,0.007,0,0.021,0c0.141,0,0.296,0.07,0.385,0.199l1.732,2.401l1.732-2.401c0.097-0.128,0.237-0.199,0.391-0.199
			c0,0,0,0,0.008,0C211.877,97.009,212.105,97.218,212.105,97.478z"/>
		<path d="M216.86,97.478c0-0.268,0.214-0.477,0.479-0.477c0.258,0,0.486,0.208,0.486,0.477v5.132c0,0.273-0.228,0.479-0.486,0.479
			c-0.265,0-0.479-0.205-0.479-0.479V97.478z"/>
		<path d="M225.892,97.966h-1.379v4.644c0,0.273-0.214,0.479-0.479,0.479c-0.266,0-0.479-0.205-0.479-0.479v-4.644h-1.372
			c-0.272,0-0.48-0.227-0.48-0.488c0-0.268,0.208-0.477,0.48-0.477h3.708c0.265,0,0.479,0.208,0.479,0.477
			C226.371,97.739,226.157,97.966,225.892,97.966z"/>
		<path d="M234.363,97.966h-1.386v4.644c0,0.273-0.207,0.479-0.479,0.479c-0.258,0-0.472-0.205-0.472-0.479v-4.644h-1.378
			c-0.266,0-0.48-0.227-0.48-0.488c0-0.268,0.214-0.477,0.48-0.477h3.715c0.258,0,0.48,0.208,0.48,0.477
			C234.843,97.739,234.621,97.966,234.363,97.966z"/>
		<path d="M238.867,102.609v-5.132c0-0.268,0.214-0.477,0.48-0.477h0.007c0,0,0,0,0.022,0h2.816c0.25,0,0.48,0.208,0.48,0.477
			c0,0.271-0.229,0.488-0.48,0.488h-2.359v1.59h2.027c0.265,0,0.479,0.227,0.479,0.48c0,0.269-0.214,0.486-0.479,0.486h-2.027v1.601
			h2.359c0.25,0,0.48,0.217,0.48,0.486c0,0.262-0.229,0.479-0.48,0.479h-2.816c-0.022,0-0.022-0.007-0.022-0.007l-0.007,0.007
			C239.081,103.088,238.867,102.871,238.867,102.609z"/>
		<path d="M246.793,102.609v-5.132c0-0.268,0.206-0.477,0.479-0.477h0.007c0,0,0,0,0.014,0h2.825c0.25,0,0.471,0.208,0.471,0.477
			c0,0.271-0.222,0.488-0.471,0.488h-2.36v1.59h2.028c0.259,0,0.479,0.227,0.479,0.48c0,0.269-0.22,0.486-0.479,0.486h-2.028v1.601
			h2.36c0.25,0,0.471,0.217,0.471,0.486c0,0.262-0.222,0.479-0.471,0.479h-2.825c-0.014,0-0.014-0.007-0.014-0.007l-0.007,0.007
			C247,103.088,246.793,102.871,246.793,102.609z"/>
	</g>
</g>
</svg>
