<?xml version="1.0" encoding="utf-8"?>
<!-- Generator: Adobe Illustrator 16.0.0, SVG Export Plug-In . SVG Version: 6.00 Build 0)  -->
<!DOCTYPE svg PUBLIC "-//W3C//DTD SVG 1.1//EN" "http://www.w3.org/Graphics/SVG/1.1/DTD/svg11.dtd">
<svg version="1.1" id="Layer_1" xmlns="http://www.w3.org/2000/svg" xmlns:xlink="http://www.w3.org/1999/xlink" x="0px" y="0px"
	 width="320px" height="200px" viewBox="0 0 320 200" enable-background="new 0 0 320 200" xml:space="preserve">
<g>
	<path fill="#B3C2BF" d="M134.118,75.774c-2.502-1.184-3.412,0.045-7.231-2.684c-5.812,4.429-11.954,8.753-15.993,9.24
		c-10.265,1.239-12.445-15.406-12.445-15.406s-0.311,33.145-0.311,38.127c0,4.975,9.271,8.432,9.271,8.432
		c12.739,0.031,21.343-19.307,32.602-33.687C137.711,78.466,136.53,76.912,134.118,75.774"/>
	<rect x="98.148" y="36.271" fill="#10A0C4" width="9.259" height="77.212"/>
	<path fill="#10A0C4" d="M116.554,105.153l5.09-7.064c3.943,4.752,10.423,8.564,18.061,8.564c9.728,0,14.124-6.136,14.124-12.731
		c0-18.755-34.958-13.772-34.958-38.66c0-11.81,9.378-20.262,22.23-20.262c8.564,0,15.626,2.893,20.597,8.22l-4.74,6.943
		c-4.288-4.745-9.959-6.943-16.089-6.943c-7.18,0-12.621,4.63-12.621,11.573c0,16.323,34.958,12.739,34.958,38.551
		c0,11.35-7.407,21.535-23.501,21.535C129.632,114.879,121.881,111.055,116.554,105.153"/>
	<path fill="#10A0C4" d="M200.707,36.271h-10.988l-23.27,77.212h9.954l4.982-17.479h27.552l4.982,17.479h9.948L200.707,36.271z
		 M206.396,89.237c-0.005,0.051-0.005,0.098-0.022,0.146c-0.005,0-0.005,0.012-0.005,0.017c-0.023,0.062-0.045,0.116-0.074,0.173
		c-0.005,0-0.005,0.005-0.011,0.011c-0.029,0.048-0.068,0.097-0.107,0.147l0,0c-0.011,0-0.006,0-0.011,0.005
		c-0.13,0.122-0.305,0.181-0.514,0.195c-0.022,0.011-0.034,0.011-0.062,0.011c-0.028,0-0.067,0-0.102-0.011
		c-0.045,0-0.102,0-0.146-0.009c-0.017-0.006-0.034-0.012-0.051-0.012c-0.068-0.011-0.153-0.03-0.226-0.047
		c-0.006-0.006-0.011-0.006-0.011-0.006c-0.085-0.025-0.187-0.049-0.277-0.091c-0.006,0-0.017-0.009-0.028-0.015
		c-0.091-0.036-0.192-0.072-0.289-0.115c-0.039-0.018-0.084-0.043-0.13-0.064c-0.051-0.025-0.113-0.057-0.175-0.085
		c-2.701-1.394-6.773-5.531-6.773-5.531l-11.864,0.104l-1.757-2.218l8.339-3.517l-3.44-4.434l-3.819-0.142l-0.915-1.184l2.688-1.483
		l0.017-1.366l1.469,0.019l1.707-2.85l1.146,0.955l0.017,3.827l4.305,3.576l3.808-8.194l2.152,1.836l-0.525,11.844
		c0,0,3.994,4.223,5.299,6.969c0.022,0.073,0.057,0.141,0.09,0.206c0.011,0.043,0.034,0.073,0.045,0.116
		c0.045,0.098,0.084,0.206,0.119,0.305c0.062,0.194,0.107,0.376,0.135,0.545c0,0.009,0,0.02,0,0.031
		c0.006,0.054,0.006,0.11,0.006,0.163c0,0.031,0.005,0.063,0,0.085C206.401,89.183,206.396,89.208,206.396,89.237"/>
	<path fill="#B3C2BF" d="M188.097,69.737c-5.311-7.253-13.072-16.566-32.704-13.239c-9.723,1.653-19.886,9.909-28.693,16.661
		c1.779,1.299,3.412,2.714,5.446,3.686c2.452,1.161,4.858,2.376,7.197,3.742c4.226-5.278,8.994-10.041,14.812-13.193
		c21.784-11.83,32.456,3.691,32.456,3.691C187.075,70.557,188.097,69.737,188.097,69.737"/>
	<rect x="98.759" y="126.423" fill="#3E3E3F" width="2.791" height="14.082"/>
	<path fill="#3E3E3F" d="M107.317,126.423l3.474,8.5l0.034-0.042c-0.164-0.67-0.221-1.398-0.221-2.127v-6.331h2.786v14.082h-2.639
		l-3.435-8.5l-0.04,0.036l0.136,1.421l0.017,0.579v6.464h-2.786v-14.082H107.317z"/>
	<polygon fill="#3E3E3F" points="122.559,126.423 122.559,129.036 120.351,129.036 120.351,140.505 117.571,140.505 
		117.571,129.036 115.384,129.036 115.384,126.423 	"/>
	<polygon fill="#3E3E3F" points="130.547,126.423 130.547,129.036 127.723,129.036 127.723,132.098 130.214,132.098 
		130.214,134.714 127.723,134.714 127.723,137.886 130.587,137.886 130.587,140.505 124.949,140.505 124.949,126.423 	"/>
	<path fill="#3E3E3F" d="M133.389,140.505v-14.082h2.796c1.774,0,4.954,0.188,4.954,4.034c0,1.548-0.627,2.878-2,3.639l2.446,6.409
		h-2.932l-2.452-6.5h-0.039v6.5H133.389z M136.163,132.468l0.486,0.022c1.276,0,1.779-0.855,1.779-2.017
		c0-1.008-0.491-1.833-1.893-1.754h-0.373V132.468z"/>
	<path fill="#3E3E3F" d="M147.078,126.423l3.463,8.5l0.04-0.042c-0.164-0.67-0.226-1.398-0.226-2.127v-6.331h2.785v14.082h-2.633
		l-3.429-8.5l-0.045,0.036l0.13,1.421l0.022,0.579v6.464h-2.785v-14.082H147.078z"/>
	<path fill="#3E3E3F" d="M161.579,126.423l3.384,14.082h-2.971l-0.525-2.376h-2.813l-0.502,2.376h-2.769l3.271-14.082H161.579z
		 M160.342,132.169l-0.311-2.124h-0.034l-0.305,2.124l-0.599,3.762h1.96L160.342,132.169z"/>
	<polygon fill="#3E3E3F" points="172.635,126.423 172.635,129.036 170.432,129.036 170.432,140.505 167.641,140.505 
		167.641,129.036 165.46,129.036 165.46,126.423 	"/>
	<rect x="175.019" y="126.423" fill="#3E3E3F" width="2.785" height="14.082"/>
	<path fill="#3E3E3F" d="M190.295,133.462c0,5.28-2.463,7.263-4.949,7.263c-2.48,0-4.943-1.982-4.943-7.263
		c0-5.284,2.463-7.265,4.943-7.265C187.832,126.197,190.295,128.178,190.295,133.462 M185.346,138.148
		c1.853,0,1.982-3.567,1.982-4.687c0-1.251-0.129-4.688-1.982-4.688c-1.848,0-1.978,3.438-1.978,4.688
		C183.369,134.581,183.499,138.148,185.346,138.148"/>
	<path fill="#3E3E3F" d="M195.566,126.423l3.468,8.5l0.04-0.042c-0.175-0.67-0.226-1.398-0.226-2.127v-6.331h2.785v14.082h-2.638
		l-3.429-8.5l-0.04,0.036l0.13,1.421l0.017,0.579v6.464h-2.779v-14.082H195.566z"/>
	<path fill="#3E3E3F" d="M210.073,126.423l3.378,14.082h-2.972l-0.52-2.376h-2.813l-0.514,2.376h-2.762l3.276-14.082H210.073z
		 M208.836,132.169l-0.316-2.124h-0.034l-0.305,2.124l-0.593,3.762h1.961L208.836,132.169z"/>
	<polygon fill="#3E3E3F" points="218.474,126.423 218.474,137.886 221.383,137.886 221.383,140.505 215.694,140.505 
		215.694,126.423 	"/>
	<path fill="#3E3E3F" d="M94.748,153.87c-0.565-0.485-1.254-0.9-2.022-0.9c-0.859,0-1.401,0.522-1.401,1.378
		c0,2.327,4.237,2.449,4.237,6.26c0,2.503-1.435,4.393-4.05,4.393c-0.78,0-1.757-0.243-2.396-0.712v-2.649
		c0.661,0.449,1.299,0.749,2.119,0.749c0.893,0,1.604-0.603,1.604-1.531c0-1.082-0.858-1.495-1.644-2.06
		c-1.604-1.081-2.599-2.122-2.599-4.18c0-2.224,1.288-4.145,3.689-4.145c0.887,0,1.695,0.237,2.463,0.687V153.87z"/>
	<polygon fill="#3E3E3F" points="104.001,150.698 104.001,153.312 101.803,153.312 101.803,164.774 99.019,164.774 99.019,153.312 
		96.838,153.312 96.838,150.698 	"/>
	<path fill="#3E3E3F" d="M108.729,150.698v9.112c0,1.062-0.135,2.673,1.379,2.673c1.367,0,1.367-1.031,1.384-2.082v-9.703h2.779
		v10.268c0,1.495-0.164,4.034-4.186,4.034c-2.593,0-4.141-1.209-4.141-3.848v-10.454H108.729z"/>
	<path fill="#3E3E3F" d="M116.927,164.774v-14.076h2.107c0.485,0,6.31-0.717,6.31,7.15c0,4.016-1.548,6.926-5.938,6.926H116.927z
		 M122.565,157.825c0-1.793-0.56-4.629-2.858-4.629v9.081C121.943,162.388,122.565,159.585,122.565,157.825"/>
	<polygon fill="#3E3E3F" points="133.169,150.698 133.169,153.312 130.35,153.312 130.35,156.373 132.835,156.373 132.835,158.992 
		130.35,158.992 130.35,162.161 133.208,162.161 133.208,164.774 127.57,164.774 127.57,150.698 	"/>
	<path fill="#3E3E3F" d="M138.671,150.698l3.486,8.494l0.034-0.036c-0.169-0.676-0.226-1.404-0.226-2.133v-6.325h2.779v14.076
		h-2.627l-3.446-8.494l-0.028,0.037l0.13,1.415l0.011,0.585v6.457h-2.774v-14.076H138.671z"/>
	<polygon fill="#3E3E3F" points="153.919,150.698 153.919,153.312 151.71,153.312 151.71,164.774 148.931,164.774 148.931,153.312 
		146.744,153.312 146.744,150.698 	"/>
	<path fill="#3E3E3F" d="M165.5,150.698l3.373,14.076h-2.971l-0.52-2.364h-2.819l-0.503,2.364h-2.769l3.271-14.076H165.5z
		 M164.263,156.444l-0.328-2.124h-0.034l-0.294,2.124l-0.599,3.762h1.96L164.263,156.444z"/>
	<path fill="#3E3E3F" d="M175.409,153.87c-0.559-0.485-1.254-0.9-2.022-0.9c-0.853,0-1.401,0.522-1.401,1.378
		c0,2.327,4.243,2.449,4.243,6.26c0,2.503-1.44,4.393-4.056,4.393c-0.779,0-1.751-0.243-2.384-0.712v-2.649
		c0.65,0.449,1.283,0.749,2.113,0.749c0.898,0,1.599-0.603,1.599-1.531c0-1.082-0.859-1.495-1.638-2.06
		c-1.61-1.081-2.604-2.122-2.604-4.18c0-2.224,1.294-4.145,3.689-4.145c0.893,0,1.7,0.237,2.463,0.687V153.87z"/>
	<path fill="#3E3E3F" d="M182.872,153.87c-0.554-0.485-1.244-0.9-2.012-0.9c-0.864,0-1.401,0.522-1.401,1.378
		c0,2.327,4.237,2.449,4.237,6.26c0,2.503-1.435,4.393-4.051,4.393c-0.785,0-1.757-0.243-2.396-0.712v-2.649
		c0.655,0.449,1.288,0.749,2.113,0.749c0.898,0,1.61-0.603,1.61-1.531c0-1.082-0.865-1.495-1.649-2.06
		c-1.599-1.081-2.599-2.122-2.599-4.18c0-2.224,1.288-4.145,3.684-4.145c0.904,0,1.7,0.237,2.463,0.687V153.87z"/>
	<polygon fill="#3E3E3F" points="190.899,150.698 190.899,153.312 188.086,153.312 188.086,156.373 190.578,156.373 
		190.578,158.992 188.086,158.992 188.086,162.161 190.939,162.161 190.939,164.774 185.301,164.774 185.301,150.698 	"/>
	<polygon fill="#3E3E3F" points="197.701,150.698 199.062,159.009 199.097,159.009 200.215,150.698 203.955,150.698 205.43,164.774 
		202.577,164.774 201.904,154.637 201.865,154.637 201.418,158.104 200.215,164.774 198.08,164.774 196.718,158.031 
		196.238,154.896 196.238,154.637 196.209,154.637 195.792,164.774 192.814,164.774 194.041,150.698 	"/>
	<path fill="#3E3E3F" d="M207.226,164.774v-14.076h2.717c1.084,0,2.022,0.037,2.921,0.76c0.938,0.746,1.44,2.003,1.44,3.179
		c0,1.251-0.475,2.203-1.514,2.908c1.158,0.56,1.74,2.06,1.74,3.275c0,2.781-2.062,3.954-4.604,3.954H207.226z M210,153.025v3.444
		c1.056,0,1.667-0.718,1.667-1.78C211.667,153.661,211.068,152.97,210,153.025 M210,158.633v3.808c1.13,0.057,1.78-0.765,1.78-1.938
		C211.78,159.398,211.107,158.597,210,158.633"/>
	<polygon fill="#3E3E3F" points="219.327,150.698 219.327,162.161 222.236,162.161 222.236,164.774 216.542,164.774 
		216.542,150.698 	"/>
	<polygon fill="#3E3E3F" points="225.016,150.698 226.474,154.526 226.677,155.218 226.716,155.218 227.033,154.168 
		228.281,150.698 231.405,150.698 228.117,158.031 228.117,164.774 225.332,164.774 225.332,158.031 221.954,150.698 	"/>
</g>
</svg>
