<?xml version="1.0" encoding="utf-8"?>
<!-- Generator: Adobe Illustrator 16.0.0, SVG Export Plug-In . SVG Version: 6.00 Build 0)  -->
<!DOCTYPE svg PUBLIC "-//W3C//DTD SVG 1.1//EN" "http://www.w3.org/Graphics/SVG/1.1/DTD/svg11.dtd">
<svg version="1.1" id="Layer_1" xmlns="http://www.w3.org/2000/svg" xmlns:xlink="http://www.w3.org/1999/xlink" x="0px" y="0px"
	 width="320px" height="200px" viewBox="0 0 320 200" enable-background="new 0 0 320 200" xml:space="preserve">
<g>
	<g>
		<g>
			<path fill-rule="evenodd" clip-rule="evenodd" d="M66.986,35.319c0.875,0,1.753,0,2.623,0c0,2.448,0,4.903,0,7.352
				C64.596,43.432,68.477,37.131,66.986,35.319z"/>
			<path fill-rule="evenodd" clip-rule="evenodd" d="M80.126,35.319c0.495,1.141-0.321,4.716,0,7.352
				c-1.646-0.104-3.859,0.36-4.73-0.519c0-2.102,0-4.205,0-6.308C76.267,34.959,78.479,35.423,80.126,35.319z"/>
			<path fill-rule="evenodd" clip-rule="evenodd" d="M86.433,35.319c1.4,0,2.803,0,4.202,0c0.494,1.141-0.321,4.716,0,7.352
				c-1.514-0.062-3.44,0.291-4.202-0.519C86.433,39.877,86.433,37.595,86.433,35.319z"/>
			<path fill-rule="evenodd" clip-rule="evenodd" d="M101.67,35.319c0.495,1.141-0.326,4.716,0,7.352
				c-1.643-0.104-3.855,0.36-4.727-0.519c0-2.102,0-4.205,0-6.308C97.814,34.959,100.027,35.423,101.67,35.319z"/>
			<path fill-rule="evenodd" clip-rule="evenodd" d="M112.703,35.319c0.499,1.141-0.317,4.716,0,7.352
				c-1.783-0.138-4.255,0.408-5.251-0.519c0-2.102,0-4.205,0-6.308C108.448,34.911,110.92,35.458,112.703,35.319z"/>
			<path fill-rule="evenodd" clip-rule="evenodd" d="M123.216,35.319c0,2.275,0,4.558,0,6.833c-1.645-0.111-3.858,0.353-4.727-0.533
				C118.04,37.498,118.167,33.95,123.216,35.319z"/>
			<path fill-rule="evenodd" clip-rule="evenodd" d="M133.723,35.319c0.498,1.141-0.319,4.716,0,7.352c-1.574,0-3.146,0-4.728,0
				c0-2.275,0-4.551,0-6.826C129.871,34.959,132.08,35.423,133.723,35.319z"/>
			<path fill-rule="evenodd" clip-rule="evenodd" d="M144.764,35.319c0.536,1.051-0.35,4.309,0,6.833
				c-1.642-0.111-3.859,0.353-4.73-0.533c0-1.922,0-3.852,0-5.775C140.904,34.959,143.122,35.423,144.764,35.319z"/>
			<path fill-rule="evenodd" clip-rule="evenodd" d="M155.27,35.319c0,2.275,0,4.558,0,6.833c-1.573,0-3.15,0-4.728,0
				C150.234,37.989,149.901,33.798,155.27,35.319z"/>
			<path fill-rule="evenodd" clip-rule="evenodd" d="M165.781,35.319c0,2.275,0,4.558,0,6.833c-1.404,0-2.801,0-4.204,0
				C161.497,38.39,160.608,33.825,165.781,35.319z"/>
			<path fill-rule="evenodd" clip-rule="evenodd" d="M176.816,35.319c0,2.448,0,4.903,0,7.352c-1.381,0.505-4.499,1.017-5.775,0
				C170.367,37.629,171.159,34.04,176.816,35.319z"/>
			<path fill-rule="evenodd" clip-rule="evenodd" d="M187.854,35.319c-0.228,2.399,0.533,5.782-0.521,7.352
				c-1,0.934-3.472,0.388-5.26,0.525C181.516,38.085,181.872,33.895,187.854,35.319z"/>
			<path fill-rule="evenodd" clip-rule="evenodd" d="M193.106,36.363c1.408,0,2.809,0,4.207,0c0,2.283,0,4.558,0,6.833
				c-1.398,0-2.799,0-4.207,0C193.106,40.921,193.106,38.646,193.106,36.363z"/>
			<path fill-rule="evenodd" clip-rule="evenodd" d="M225.167,36.363c1.576,0,3.153,0,4.73,0c0,2.456,0,4.91,0,7.359
				c-1.577,0-3.154,0-4.73,0C225.167,41.273,225.167,38.819,225.167,36.363z"/>
			<path fill-rule="evenodd" clip-rule="evenodd" d="M203.623,36.896c1.574,0,3.15,0,4.728,0c-0.214,2.234,0.505,5.409-0.529,6.826
				c-1.224,0-2.447,0-3.676,0C203.115,42.305,203.837,39.13,203.623,36.896z"/>
			<path fill-rule="evenodd" clip-rule="evenodd" d="M214.136,36.896c1.57,0,3.144,0,4.73,0c0,2.275,0,4.551,0,6.826
				c-1.587,0-3.16,0-4.73,0C214.136,41.447,214.136,39.171,214.136,36.896z"/>
			<path fill-rule="evenodd" clip-rule="evenodd" d="M240.407,37.415c0,2.11,0,4.205,0,6.308c-1.577,0-3.155,0-4.732,0
				C234.84,39.448,236.035,34.773,240.407,37.415z"/>
			<path fill-rule="evenodd" clip-rule="evenodd" d="M246.188,36.896c1.746,0,3.499,0,5.256,0c0,2.448,0,4.904,0,7.359
				c-1.757,0-3.51,0-5.256,0C246.188,41.8,246.188,39.344,246.188,36.896z"/>
			<path fill-rule="evenodd" clip-rule="evenodd" d="M123.216,45.824c1.197,5.637,0.198,13.473,0.526,19.974
				c-3.873,1.57-8.77-11.245-13.138-12.089c-3.513-0.671-4.395,3.486-7.881,3.68c-5.853,0.325-10.318-10.409-18.396-6.308
				c-4.232,2.511-0.221,6.293-3.676,9.987c-3.364,3.596-12.038,1.21-11.042,8.936c0.432,3.305,3.196,4.675,8.41,4.205
				c3.144,5.968,6.806,11.405,12.615,14.71c0.899,8.721,10.337,13.555,8.933,23.12c-0.652,4.446-4.351,7.58-4.728,13.14
				c-9.485-0.531-19.811,0.832-27.854,0c-0.849-25.193,0.541-52.706,0-79.354C85.729,45.824,104.474,45.824,123.216,45.824z"/>
			<path fill-rule="evenodd" clip-rule="evenodd" d="M130.576,46.351c18.205,0.54,36.853,0.636,55.706,0.532
				c1.523,17.65-0.748,36.033,0,54.651c-1.208,1.072-2.194,2.365-4.209,2.628c-0.969-3.548,2.607-6.286,3.152-9.987
				c-4.965,2.109-9.371,18.12-18.915,16.812c-9.824-1.334-3.769-21.204-2.102-28.901c-0.723-1.688-2.219,2.967-2.632,1.577
				c-2.21-6.37-1.181-12.809,3.682-15.762c1.282,1.342-0.234,5.484,1.052,6.826c3.994-2.303,5.183-7.421,11.561-7.359
				c0.972-1.618-2.017-3.015-3.15-4.198c-3.326,1.397-4.62,4.841-7.361,6.833c0.27-2.373-0.039-4.171-1.578-4.731
				c-4.035,0.166-4.382,4.025-5.781,6.826c-1.818-0.457-1.041-3.506-3.151-3.672c2.736,10.007,6.06,23.992-3.152,29.427
				c-13.633,0.327-16.326-10.304-21.019-18.921c-1.2,2.447,1.584,5.415,1.577,8.409c-1.256-0.843-3.373-0.836-4.73-1.577
				C129.871,72.625,129.719,58.986,130.576,46.351z M133.723,75.253c8.496,1.231,18.006-0.858,21.547-6.3
				C148.131,71.09,141.779,74.021,133.723,75.253z M148.969,79.99c3.303-0.587,4.443-0.179,7.355,0.52
				C156.386,76.92,149.214,75.924,148.969,79.99z M140.555,86.291c0.263-3.244,2.78-4.226,5.257-5.256
				C142.368,76.574,135.993,84.064,140.555,86.291z M184.701,91.547c-6.439-3.375-15.082-4.536-19.442-9.986
				C167.088,89.21,175.721,92.792,184.701,91.547z M143.709,88.394c1.67,8.051,16.944,4.344,11.561-4.205
				C153.402,87.577,149.395,88.814,143.709,88.394z M164.209,92.072c0.166,4.282,6.402,2.317,6.832-0.525
				C168.725,91.686,166.975,92.384,164.209,92.072z M173.666,97.329c1.101,0.305,1.501,1.301,3.15,1.051
				c0.706-1.501-1.463-3.948-2.625-5.256C173.379,93.885,173.732,95.814,173.666,97.329z M162.631,102.585
				c5.333-0.609,7.353,2.103,9.984,4.205C173.856,100.538,165.45,98.698,162.631,102.585z"/>
			<path fill-rule="evenodd" clip-rule="evenodd" d="M193.106,47.401c7.011,0,14.016,0,21.029,0
				c2.894,2.808,4.752,10.34,3.144,15.236c4.102,5.775,5.71,12.892,7.361,19.974c-6.255,1.743-15.481,1.536-18.922-3.679
				c-4.81,0.947-8.725-2.566-12.612-4.206C193.106,65.619,193.106,56.517,193.106,47.401z"/>
			<path fill-rule="evenodd" clip-rule="evenodd" d="M216.23,47.928c7.713-1.224,17.691-0.173,26.278-0.526
				c-1.69,6.723-3.081,13.735-6.834,18.397c-0.358-3.672-1.62-6.438-3.679-8.41c-5.242,0.021-7.382,2.842-7.883,6.307
				C219.53,60.397,220.668,51.378,216.23,47.928z"/>
			<path fill-rule="evenodd" clip-rule="evenodd" d="M249.864,47.401c0.2,26.828-0.155,53.102-0.525,79.355
				c-18.744,0-37.484,0-56.232,0c-1.518-15.548,0.747-31.828,0-48.343c9.753,4.087,17.118,10.561,27.33,14.185
				c2.394,4.439,5.023,8.638,9.461,11.037c-2.867,1.072-4.572,5.816-8.411,4.198c-0.798,2.878-3.536,3.818-5.256,5.782
				c7.208-0.29,15.261-3.9,21.021-7.353c-0.276-5.152-3.54-7.323-5.256-11.037c0.426-2.033,3.161-1.75,4.206-3.154
				c1.936-9.094,0.939-21.135,6.835-26.274c-3.366-4.883,1.748-11.785,1.574-18.397C246.364,47.401,248.115,47.401,249.864,47.401z"
				/>
			<path fill-rule="evenodd" clip-rule="evenodd" d="M97.994,64.747c-4.175,1.667-8.461,5.222-14.192,3.68
				c-0.718-1.556-0.558-3.998-2.103-4.731c1.135-0.968,2.587-1.618,3.68-2.628c-0.245-3.568,0.777-5.878,2.105-7.884
				C92.354,56.04,98.537,57.879,97.994,64.747z"/>
			<path fill-rule="evenodd" clip-rule="evenodd" d="M103.247,63.696c2.679,1.349,5.561,2.497,6.828,5.257
				c-1.296,4.128-4.193,6.66-7.877,8.403c0.29-2.047-1.665-1.833-2.105-3.147C100.563,70.266,104.938,68.115,103.247,63.696z"/>
			<path fill-rule="evenodd" clip-rule="evenodd" d="M96.943,67.368c-0.527,2.856-4.721,5.692-7.359,3.161
				C91.127,68.565,94.034,67.97,96.943,67.368z"/>
			<path fill-rule="evenodd" clip-rule="evenodd" d="M113.23,72.099c3.478,1.093,6.316,4.385,10.512,3.154
				c0.377,18.341-0.94,32.104-0.526,49.926c-2.977,0-5.957,0-8.932,0c1.18-5.123,2.521-10.081,4.205-14.717
				c-2.611-3.721-2.265-8.734-4.733-14.185c-2.304-5.097-6.709-7.745-6.83-11.038c-0.138-3.679,3.413-4.834,6.83-7.358
				C113.108,75.439,111.501,74.326,113.23,72.099z"/>
			<path fill-rule="evenodd" clip-rule="evenodd" d="M129.524,87.868c10.581,0.629,9.792,12.628,21.018,12.614
				c-0.048,3.022,2.39,3.562,3.154,5.781c-1.657,1.536-2.562,1.509-4.728,0.526c-0.716,1.211-1.515,2.338-1.576,4.197
				c3.367-0.656,5.014-3.042,7.877-4.197c-0.162-2.29-1.377-3.527-1.573-5.782c2.631,1.023,3.151-2.767,4.205-1.576
				c0.87,5.608,2.368,10.596,5.78,13.658c12.211,0.997,13.353-9.156,22.071-8.928c-2.403,4.212,1.96,15.104-0.527,22.595
				c-18.601-0.491-37.562-0.623-56.23-1.051c-0.134-9.945,0.049-19.573,0.529-28.903c1.192-0.38,2.683-0.47,3.673-1.051
				C132.059,93.034,128.989,92.252,129.524,87.868z"/>
			<path fill-rule="evenodd" clip-rule="evenodd" d="M107.452,110.462c0.521,0,1.051,0,1.575,0
				c-0.267,2.014-0.476,4.082-2.628,4.206C106.916,113.437,107.319,112.087,107.452,110.462z"/>
			<path fill-rule="evenodd" clip-rule="evenodd" d="M125.845,130.962c0,2.102,0,4.204,0,6.307c-1.581,0-3.153,0-4.731,0
				C120.277,132.987,121.47,128.319,125.845,130.962z"/>
			<path fill-rule="evenodd" clip-rule="evenodd" d="M93.259,130.962c0,2.449,0,4.903,0,7.359c-1.7-0.305-2.441,0.353-3.675,0.524
				c-1.06-1.577-0.294-4.959-0.53-7.357C91.008,131.86,91.312,130.589,93.259,130.962z"/>
			<path fill-rule="evenodd" clip-rule="evenodd" d="M99.567,130.962c1.575,0,3.156,0,4.73,0c0,2.449,0,4.903,0,7.359
				c-1.574,0-3.155,0-4.73,0C99.567,135.865,99.567,133.411,99.567,130.962z"/>
			<path fill-rule="evenodd" clip-rule="evenodd" d="M110.075,130.962c1.754,0,3.503,0,5.261,0c0,2.449,0,4.903,0,7.359
				c-1.758,0-3.507,0-5.261,0C110.075,135.865,110.075,133.411,110.075,130.962z"/>
			<path fill-rule="evenodd" clip-rule="evenodd" d="M131.097,130.962c1.934,0.167,4.655-0.449,5.782,0.526c0,2.274,0,4.557,0,6.833
				c-1.926,0-3.855,0-5.782,0C131.097,135.865,131.097,133.411,131.097,130.962z"/>
			<path fill-rule="evenodd" clip-rule="evenodd" d="M142.139,130.962c1.75,0,3.5,0,5.254,0c-0.126,2.747,0.007,5.249,0.521,7.359
				c-1.123,0.967-3.849,0.353-5.775,0.524C142.139,136.219,142.139,133.59,142.139,130.962z"/>
			<path fill-rule="evenodd" clip-rule="evenodd" d="M158.43,130.962c-0.245,2.559,0.543,6.161-0.528,7.884
				c-2.83-0.09-2.203-0.36-4.731-0.524C151.604,134.33,152.534,129.157,158.43,130.962z"/>
			<path fill-rule="evenodd" clip-rule="evenodd" d="M163.682,130.962c1.785,0.146,4.258-0.408,5.255,0.526c0,2.102,0,4.204,0,6.307
				c-0.997,0.928-3.47,0.381-5.255,0.526C163.682,135.865,163.682,133.411,163.682,130.962z"/>
			<path fill-rule="evenodd" clip-rule="evenodd" d="M195.739,130.962c1.574,0,3.153,0,4.727,0c0,2.276,0,4.558,0,6.833
				c-1.573,0-3.152,0-4.727,0C195.739,135.52,195.739,133.238,195.739,130.962z"/>
			<path fill-rule="evenodd" clip-rule="evenodd" d="M206.773,130.962c1.577,0,3.15,0,4.729,0c0,2.102,0,4.204,0,6.307
				c-0.871,0.878-3.087,0.416-4.729,0.526C206.773,135.52,206.773,133.238,206.773,130.962z"/>
			<path fill-rule="evenodd" clip-rule="evenodd" d="M217.279,130.962c1.587,0,3.157,0,4.734,0c0,2.276,0,4.558,0,6.833
				c-1.577,0-3.147,0-4.734,0C217.279,135.52,217.279,133.238,217.279,130.962z"/>
			<path fill-rule="evenodd" clip-rule="evenodd" d="M228.32,130.962c1.512,0.062,3.441-0.29,4.205,0.526c0,2.102,0,4.204,0,6.307
				c-1.403,0-2.805,0-4.205,0C228.32,135.52,228.32,133.238,228.32,130.962z"/>
			<path fill-rule="evenodd" clip-rule="evenodd" d="M238.83,130.962c1.311,0.443,2.812,0.691,4.729,0.526c0,2.102,0,4.204,0,6.307
				c-0.871,0.879-3.087,0.416-4.729,0.526C238.83,135.865,238.83,133.411,238.83,130.962z"/>
			<path fill-rule="evenodd" clip-rule="evenodd" d="M67.515,131.488c1.573,0,3.153,0,4.728,0c0,2.447,0,4.903,0,7.357
				c-1.574,0-3.154,0-4.728,0C67.515,136.392,67.515,133.936,67.515,131.488z"/>
			<path fill-rule="evenodd" clip-rule="evenodd" d="M78.02,131.488c1.578,0,3.154,0,4.734,0c0,2.447,0,4.903,0,7.357
				c-1.58,0-3.156,0-4.734,0C78.02,136.392,78.02,133.936,78.02,131.488z"/>
			<path fill-rule="evenodd" clip-rule="evenodd" d="M174.191,131.488c1.747,0,3.501,0,5.257,0c0,2.447,0,4.903,0,7.357
				c-1.193,1.038-2.936-0.56-5.257,0C174.191,136.392,174.191,133.936,174.191,131.488z"/>
			<path fill-rule="evenodd" clip-rule="evenodd" d="M185.226,131.488c1.781,0.137,4.265-0.408,5.257,0.524c0,2.275,0,4.552,0,6.833
				c-1.749,0-3.502,0-5.257,0C185.226,136.392,185.226,133.936,185.226,131.488z"/>
			<path fill-rule="evenodd" clip-rule="evenodd" d="M249.339,131.488c1.229,0,2.455,0,3.675,0c0.319,2.766-0.38,4.509-0.518,6.833
				c-1.052,0-2.104,0-3.157,0C249.339,136.045,249.339,133.763,249.339,131.488z"/>
		</g>
	</g>
	<text transform="matrix(1 0 0 1 68.042 160.5801)" fill="#000100" font-family="'PTSans-Bold'" font-size="16.1922">performing arts committee</text>
</g>
</svg>
