<?xml version="1.0" encoding="utf-8"?>
<!-- Generator: Adobe Illustrator 19.2.1, SVG Export Plug-In . SVG Version: 6.00 Build 0)  -->
<svg version="1.1" id="Layer_1" xmlns="http://www.w3.org/2000/svg" xmlns:xlink="http://www.w3.org/1999/xlink" x="0px" y="0px"
	 viewBox="0 0 320 200" style="enable-background:new 0 0 320 200;" xml:space="preserve">
<style type="text/css">
	.st0{fill:#FFFFFF;}
	.st1{fill:#231F20;}
</style>
<g>
	<g id="XMLID_1_">
		<g>
			<polygon class="st0" points="248.3,133.9 248.2,156.9 245.7,156.1 245.8,133.6 242.1,117 244.7,117.3 247.2,129.4 249.7,117.9 
				252.6,118.2 			"/>
			<polygon class="st0" points="243,152.6 242.9,155.1 235.1,152.5 235.2,116.1 237.6,116.4 237.8,150.7 			"/>
			<path class="st0" d="M228.2,147.5l0-17.4l-4-0.6l-0.2,16.6L228.2,147.5z M228.3,127.7l-0.1-9.9l-3.8-0.5l0,9.8L228.3,127.7z
				 M230.3,115.9c0.3,0.3,0.5,0.8,0.5,1.2l0,10c0,0.5-0.2,1-0.6,1.3l-0.5,0.4l0.4,0.5c0.5,0.5,0.7,0.9,0.7,1.5l-0.1,18.1
				c0,0.9-0.7,1.6-1.6,1.6l-7.3-2.5l0-33.5l5.5,0.7l1.8,0.2C229.5,115.4,229.9,115.5,230.3,115.9z"/>
			<path class="st0" d="M190,112l0,5.5l-2.6-0.5l0-4.4l-4-0.5l0,8.7l4.8,0.8c0.9,0,1.7,0.8,1.7,1.7l-0.2,11.8c0,0.9-0.6,1.5-1.5,1.5
				l-5.9-2c-0.6-0.2-0.9-0.2-1.3-0.6c-0.3-0.3-0.5-0.6-0.4-1.1l0.1-6.1l2.5,0.4l0,5l4.1,1.4l0.1-9.8l-4.8-0.8
				c-0.9,0-1.6-0.9-1.6-1.9l0-10c0-0.9,0.7-1.7,1.7-1.7l5.7,0.7c0.4,0,0.9,0.2,1.2,0.5C189.8,111.2,190,111.6,190,112z"/>
			<path class="st0" d="M177.6,109.3c0.3,0.3,0.4,0.7,0.4,1.1l0.1,5.8l-2.6-0.5l0-4.6l-3.8-0.5l-0.1,8.2l4.8,0.8
				c0.4,0,0.9,0.2,1.2,0.5c0.3,0.3,0.5,0.7,0.5,1.2l-0.2,9.6c0,0.9-0.8,1.7-1.7,1.7l-5.6-2c-0.5-0.2-0.9-0.3-1.2-0.6
				c-0.3-0.3-0.5-0.8-0.5-1.2l0.2-4.6l2.6,0.6l0,3.4l3.9,1.4l0-7.6l-4.7-0.7c-0.5,0-0.9-0.1-1.3-0.4c-0.3-0.3-0.4-0.7-0.4-1.2
				l0.1-9.9c0-0.9,0.7-1.7,1.7-1.7l2,0.3l3.6,0.4C176.8,108.8,177.3,109,177.6,109.3z"/>
			<path class="st0" d="M163.6,117.7l0.1-8l-4-0.5l0,7.9L163.6,117.7z M166.3,109.1l0,0.7l-0.3,19.1l-2.4-0.8l0-8l-3.8-0.6l0,7.2
				l-2.6-0.8l0-17.5c0-0.9,0.7-1.7,1.7-1.8l5.2,0.7l0.5,0.1C165.5,107.4,166.3,108.2,166.3,109.1z"/>
			<polygon class="st0" points="253.1,79.1 253.1,81.7 247.9,82.1 247.8,115 245.3,114.7 245.4,82.2 240.3,82.6 240.4,80.2 			"/>
			<polygon class="st0" points="234,102.6 234.1,80.5 236.6,80.3 236.6,113.6 233.9,113.2 230.1,90.8 230.1,112.8 227.6,112.6 
				227.8,80.9 230.3,80.8 			"/>
			<polygon class="st0" points="215.6,84.3 215.6,94 220.8,94 220.8,96.5 215.6,96.5 215.6,108.7 222,109.4 222,111.9 213,110.9 
				213.1,81.9 220.7,81.4 222.1,81.4 222.1,83.9 			"/>
			<polygon class="st0" points="217.7,113.9 217.6,146.5 215.1,145.6 215.2,119.9 212.7,127.7 209.8,127.2 207.4,119.8 207.2,143 
				204.8,142.2 204.8,141.4 205,112.4 207.2,112.7 211.2,125.1 215.1,113.6 			"/>
			<polygon class="st0" points="195.8,122.7 201,123.5 200.9,126.1 195.8,125.3 195.8,136.4 202.5,138.8 202.5,141.4 193.3,138.2 
				193.2,111 197.9,111.6 202.3,112.1 202.3,114.5 195.8,113.7 			"/>
			<path class="st0" d="M204.5,107.5l0.1-22.5l-3.9,0.3l-0.2,21.7L204.5,107.5z M207.2,84.2l-0.1,24c0,0.9-0.8,1.8-1.7,1.8l-0.3,0
				l-7-0.8l0-26.4l7.3-0.5c0.5,0,0.9,0.3,1.2,0.7C207,83.4,207.2,83.8,207.2,84.2z"/>
			<path class="st0" d="M192.6,106.5c0,0.9-0.8,1.8-1.7,1.9l-5.5-0.7c-0.9,0-1.7-0.9-1.7-1.8l0.1-22l2.5-0.2l-0.2,21.5l4.1,0.4
				l0.1-22.2l2.6-0.2L192.6,106.5z"/>
			<polygon class="st0" points="179.6,84.1 179.6,86.6 175.7,86.9 175.7,106.5 173.1,106.2 173.2,87.1 169.3,87.3 169.4,84.8 
				171.4,84.7 			"/>
			<path class="st0" d="M165.6,85.6c0.3,0.3,0.5,0.8,0.5,1.2l0.1,4l-2.7,0.2l0-3.3l-4,0.3l0,5.8l4.8,0c0.9,0,1.7,0.8,1.7,1.7l0,8.2
				c0,0.9-0.8,1.7-1.7,1.7l-5.6-0.7c-0.9,0-1.7-0.8-1.7-1.7l0-3.3l2.6,0.1l0,2.5l3.8,0.5l0-6.4l-4.7,0c-0.5,0-0.9-0.2-1.2-0.5
				c-0.3-0.3-0.5-0.8-0.5-1.2l0-7.4c0-0.9,0.7-1.7,1.7-1.7l5.7-0.4C164.9,85.1,165.3,85.3,165.6,85.6z"/>
			<polygon class="st0" points="252.7,73.8 252.6,76.7 245.1,77.2 245,42.4 247.6,41.8 247.6,74.2 			"/>
			<path class="st0" d="M237.8,59.8V46.7l-3.9,0.9l-0.1,13L237.8,59.8z M240.3,45.5l-0.1,32.1l-2.5,0.2l0-15.2l-3.9,0.5L233.9,78
				l-2.6,0.2l0.1-31.3c0-0.9,0.7-1.7,1.7-1.7l5.6-1.3c0.5,0,0.9,0.2,1.2,0.5S240.3,45,240.3,45.5z"/>
			<path class="st0" d="M225.9,46.7c1.1-0.2,1.8,0.9,1.8,1.8l0,4.8l-2.6,0.6l0-4.4l-3.9,0.8l0,25.6l3.9-0.2l0-4.3l2.6-0.3l0,5.6
				c0,0.9-0.8,1.8-1.7,1.9l-5.6,0.4c-0.9,0-1.8-1.1-1.8-2V49.7c0-0.9,0.2-1.4,1.6-1.8L225.9,46.7z"/>
			<polygon class="st0" points="214.4,49.1 214.3,79.2 211.8,79.3 211.9,49.6 			"/>
			<polygon class="st0" points="205,53.8 204.9,79.8 202.3,80 202.5,54.4 198.6,55.3 198.6,52.5 208.8,50.4 208.8,53 			"/>
			<polygon class="st0" points="195.2,53.4 195.1,80.5 192.6,80.7 192.7,54 			"/>
			<polygon class="st0" points="189.8,78.1 189.8,80.9 182.1,81.4 182.1,56.5 184.8,55.9 184.6,78.5 			"/>
			<path class="st0" d="M175.9,79l0.1-18.6l-3.8,0.9l-0.1,17.9L175.9,79z M178.5,59.7l0,20.2c0,0.9-0.8,1.8-1.7,1.8l-5.6,0.4
				c-0.9,0-1.7-0.9-1.7-1.8v-18V61c0-0.9,0.8-2.2,1.7-2.2l5.6-1.2c0.4,0,0.9,0.2,1.2,0.5C178.4,58.4,178.5,59.2,178.5,59.7z"/>
			<path class="st0" d="M164.3,70.7l-0.1-7.6l-4.2,1l0,7.3L164.3,70.7z M166.9,62.2l-0.2,9.1c0,0.9-0.8,1.7-1.7,1.7l-4.6,0.8
				l-0.1,9.1l-1.7,0.1l-0.7,0.1V61.9l7.3-1.6c0.4,0,0.8,0.2,1.2,0.5C166.6,61.1,166.9,61.8,166.9,62.2z"/>
			<path class="st0" d="M154.4,66.5l0,55.3c0,0,0.5,4.5-3.6,3.2c-2.1-0.7-5.9-2.1-7-2.5c-1.9-0.7-1.7-3.1-1.7-3.1v-16.8
				c0,0,0.1-0.4,0-0.6c-0.2-0.5-0.4-0.8-0.8-0.6c-0.3,0.1-0.5,0.3-0.6,0.6l0,16.5c0,0-0.3,2.8-3.6,1.7c-1.8-0.6-3.8-1.3-6-2.1
				c-2.8-1-2.4-4.5-2.4-4.5l0-41.1c0,0-0.5-4.4,3.9-5.3c5.5-1.2,10.1-2.1,17.5-3.8C154.5,62.4,154.4,66.5,154.4,66.5z M142.2,81.8
				c0-0.1,0-0.1,0-0.2v-0.1h0c0,0,0,0,0,0c-0.2-0.4-0.6-0.7-1-0.5c-0.4,0.1-0.6,0.5-0.6,0.9l0,9.2c0,0.1,0,0.2,0,0.3
				c0.1,0.4,0.6,0.6,1,0.5c0.4-0.1,0.6-0.5,0.6-0.9L142.2,81.8z"/>
			<path class="st0" d="M126.7,72.6c0,0,0.1,3.5,0,6.7c0,3.2-2.7,3.2-2.7,3.2l-14.2,0.9c-0.1,0-0.2,0-0.2,0
				c-0.3,0.1-0.6,0.5-0.4,0.9c0.1,0.4,0.5,0.5,0.8,0.5c1.3-0.1,10.3-0.4,13.2-0.7c3.4-0.3,3.5,2.8,3.5,2.8v26.3c0,0,0.3,3.2-3.3,1.8
				c-5.8-2.4-18.2-6.3-20.4-7.1c-2.9-1-2.4-4-2.4-4v-4.8c0-2.4,2.4-1.9,2.4-1.9l11.2,1.3c0.1,0,0.2,0,0.3-0.1
				c0.4-0.1,0.6-0.5,0.5-0.9c-0.1-0.3-0.4-0.4-0.8-0.5c0,0-2.6-0.3-5.3-0.6c-2.8-0.3-5.7-0.7-6.5-0.9c-2-0.5-1.7-3.5-1.7-3.5V78.6
				c0,0-0.5-4.2,3.2-5c5.6-1.3,12.2-2.7,19.1-4.2C127.1,68.4,126.7,72.6,126.7,72.6z"/>
			<path class="st0" d="M95.7,75.3c3.4-0.8,3,2.9,3,2.9V103c0,0,0.1,3.3-3.4,2.3c-2.6-0.8-8.6-2.9-8.6-2.9s1.4,10.3,1.5,12.2
				c0.2,4.1-3.1,3-3.1,3l-7.3-2.9c0,0-1.5-0.4-1.9-3c-0.8-5-2.1-13.5-2.1-13.5l-1-0.3c-1.9-0.6-2-3.5-2-3.5l-1.2-9.7
				c0,0-0.3-3.3,3.6-4.2C77.4,79.4,86.7,77.3,95.7,75.3z M86.5,93.2c0-0.1,0-7.6,0-7.7c-0.1-0.4-0.5-0.6-0.9-0.5
				c-0.3,0.1-0.6,0.5-0.6,0.9l0,7.8c0,0.2,0,0.6,0,0.7c0,0.7,0.7,0.7,1.1,0.6c0.3-0.1,0.3-0.3,0.3-0.6v-1V93.2z"/>
			<polygon class="st1" points="237.8,46.7 237.8,59.8 233.8,60.5 233.9,47.5 			"/>
			<polygon class="st1" points="228.2,117.8 228.3,127.7 224.4,127.1 224.4,117.4 			"/>
			<polygon class="st1" points="228.3,130.1 228.2,147.5 224.1,146.1 224.2,129.5 			"/>
			<polygon class="st1" points="220.5,78.9 226.1,78.5 227.8,80.9 227.6,112.6 227.3,115.2 221.8,114.5 222,111.9 222,109.4 
				215.6,108.7 215.6,96.5 220.8,96.5 220.8,94 215.6,94 215.6,84.3 222.1,83.9 222.1,81.4 220.7,81.4 			"/>
			<polygon class="st1" points="205,112.4 204.8,141.4 202.5,141.4 202.5,138.8 195.8,136.4 195.8,125.3 200.9,126.1 201,123.5 
				195.8,122.7 195.8,113.7 202.3,114.5 202.3,112.1 197.9,111.6 198.2,109.2 205.2,110 			"/>
			<polygon class="st1" points="204.6,85 204.5,107.5 200.6,107 200.8,85.3 			"/>
			<polygon class="st1" points="176,60.4 175.9,79 172.1,79.2 172.2,61.3 			"/>
			<polygon class="st1" points="164.3,63.1 164.3,70.7 160.1,71.4 160.1,64.1 			"/>
			<polygon class="st1" points="163.8,109.7 163.6,117.7 159.7,117.2 159.7,109.2 			"/>
			<path class="st1" d="M169.6,62.2v18c0,0.9,0.8,1.8,1.7,1.8l0.2,2.6l-2.1,0.1l-0.1,2.5l3.9-0.2l-0.1,19.2l-0.3,2.2l-2-0.3
				c-0.9,0-1.7,0.8-1.7,1.7l-2.8,0l0-0.7c0-0.9-0.8-1.7-1.7-1.7l-0.5-0.1l0.2-2c0.9,0,1.7-0.8,1.7-1.7l0-8.2c0-0.9-0.8-1.7-1.7-1.7
				l-4.8,0l0-5.8l4-0.3l0,3.3l2.7-0.2l-0.1-4c0-0.4-0.2-0.9-0.5-1.2c-0.3-0.3-0.7-0.5-1.2-0.5l-5.7,0.4l-0.2-2.4l1.7-0.1l0.1-9.1
				l4.6-0.8c0.9,0,1.7-0.8,1.7-1.7l0.2-9.1H169.6z"/>
			<path class="st1" d="M142.2,81.6c0,0.1,0,0.1,0,0.2l-0.1,9.2c0.1,0.4-0.2,0.8-0.6,0.9c-0.4,0.1-0.9-0.1-1-0.5
				c0-0.1-0.1-0.2,0-0.3l0-9.2c0-0.4,0.2-0.8,0.6-0.9c0.4-0.1,0.9,0.1,1,0.5C142.2,81.5,142.2,81.5,142.2,81.6L142.2,81.6
				L142.2,81.6z"/>
			<path class="st1" d="M98.7,78.1c0,0,0.4-3.6-3-2.9c-9,2-18.3,4.2-22.7,5.2c-4,0.9-3.6,4.2-3.6,4.2l1.2,9.7c0,0,0.1,2.8,2,3.5
				l1,0.3c0,0,1.4,8.5,2.1,13.5c0.4,2.6,1.9,3,1.9,3l7.3,2.9c0,0,3.4,1.1,3.1-3c-0.1-1.9-1.5-12.2-1.5-12.2s6.1,2.2,8.6,2.9
				c3.5,1.1,3.4-2.3,3.4-2.3V78.1z M126.7,72.6c0,0,0.3-4.2-3.8-3.3c-6.8,1.5-13.4,2.9-19.1,4.2c-3.7,0.8-3.2,5-3.2,5V92
				c0,0-0.3,3,1.7,3.5c0.8,0.2,3.8,0.6,6.5,0.9c2.8,0.3,5.3,0.6,5.3,0.6c0.4,0.1,0.7,0.2,0.8,0.5c0.1,0.4-0.1,0.8-0.5,0.9
				c-0.1,0-0.2,0.1-0.3,0.1l-11.2-1.3c0,0-2.4-0.5-2.4,1.9v4.8c0,0-0.4,3,2.4,4c2.2,0.8,14.6,4.7,20.4,7.1c3.6,1.5,3.3-1.8,3.3-1.8
				V87c0,0-0.1-3.1-3.5-2.8c-2.9,0.2-11.9,0.5-13.2,0.7c-0.4,0.1-0.7-0.1-0.8-0.5c-0.1-0.4,0.1-0.8,0.4-0.9c0.1,0,0.2,0,0.2,0
				l14.2-0.9c0,0,2.7-0.1,2.7-3.2C126.8,76.2,126.7,72.6,126.7,72.6z M154.4,121.9l0-55.3c0,0,0-4.1-4.3-3.2
				c-7.5,1.6-12,2.6-17.5,3.8c-4.4,1-3.9,5.3-3.9,5.3l0,41.1c0,0-0.4,3.5,2.4,4.5c2.2,0.8,4.2,1.5,6,2.1c3.3,1.1,3.6-1.7,3.6-1.7
				l0-16.5c0.1-0.3,0.3-0.5,0.6-0.6c0.5-0.2,0.7,0.2,0.8,0.6c0.1,0.2,0,0.6,0,0.6v16.8c0,0-0.2,2.4,1.7,3.1c1.1,0.4,4.9,1.8,7,2.5
				C154.9,126.3,154.4,121.9,154.4,121.9z M178.1,116.2l-0.1-5.8c0-0.5-0.1-0.8-0.4-1.1c-0.3-0.3-0.8-0.5-1.3-0.5l-3.6-0.4l0.3-2.2
				l2.6,0.3l0.1-19.6l3.8-0.3v-2.5l-8.1,0.6l-0.2-2.6l5.6-0.4c0.9,0,1.7-0.9,1.7-1.8l0-20.2c0-0.5-0.1-1.3-0.4-1.6
				c-0.3-0.3-0.8-0.5-1.2-0.5l-5.6,1.2c-0.9,0-1.7,1.2-1.7,2.2v1.2h-2.7c0-0.5-0.2-1.1-0.5-1.5c-0.3-0.3-0.7-0.5-1.2-0.5l-7.3,1.6
				v21.2l0.7-0.1l0.2,2.4c-0.9,0-1.7,0.8-1.7,1.7l0,7.4c0,0.5,0.2,0.9,0.5,1.2c0.3,0.3,0.7,0.5,1.2,0.5l4.7,0l0,6.4l-3.8-0.5l0-2.5
				l-2.6-0.1l0,3.3c0,0.9,0.8,1.7,1.7,1.7l5.6,0.7l-0.2,2l-5.2-0.7c-0.9,0-1.7,0.8-1.7,1.8l0,17.5l2.6,0.8l0-7.2l3.8,0.6l0,8
				l2.4,0.8l0.3-19.1l2.8,0l-0.1,9.9c0,0.5,0.1,0.8,0.4,1.2c0.3,0.3,0.8,0.4,1.3,0.4l4.7,0.7l0,7.6l-3.9-1.4l0-3.4l-2.6-0.6
				l-0.2,4.6c0,0.4,0.2,0.9,0.5,1.2c0.3,0.3,0.7,0.4,1.2,0.6l5.6,2c0.9,0,1.7-0.8,1.7-1.7l0.2-9.6c0-0.4-0.2-0.9-0.5-1.2
				c-0.3-0.3-0.8-0.5-1.2-0.5l-4.8-0.8l0.1-8.2l3.8,0.5l0,4.6L178.1,116.2z M189.5,110.8c-0.3-0.3-0.7-0.5-1.2-0.5l-5.7-0.7
				c-0.9,0-1.7,0.8-1.7,1.7l0,10c0,0.9,0.7,1.9,1.6,1.9l4.8,0.8l-0.1,9.8l-4.1-1.4l0-5l-2.5-0.4l-0.1,6.1c0,0.4,0.1,0.8,0.4,1.1
				c0.3,0.3,0.6,0.3,1.3,0.6l5.9,2c0.9,0,1.5-0.6,1.5-1.5l0.2-11.8c0-0.9-0.8-1.7-1.7-1.7l-4.8-0.8l0-8.7l4,0.5l0,4.4l2.6,0.5l0-5.5
				C190,111.6,189.8,111.2,189.5,110.8z M189.8,80.9l0-2.8l-5.1,0.3l0.2-22.5l-2.7,0.6l0,24.9L189.8,80.9z M192.6,80.7l2.5-0.2
				l0.1-27.1l-2.5,0.5L192.6,80.7z M192.8,83.2l-2.6,0.2l-0.1,22.2l-4.1-0.4l0.2-21.5l-2.5,0.2l-0.1,22c0,0.9,0.8,1.8,1.7,1.8
				l5.5,0.7c0.9,0,1.7-1,1.7-1.9L192.8,83.2z M204.9,79.8l0.1-26l3.8-0.8l0-2.6l-10.2,2.2l0,2.8l3.9-0.9L202.3,80L204.9,79.8z
				 M215.1,113.6l-3.9,11.4l-4.1-12.4l-2.2-0.2l0.3-2.4l0.3,0c0.9,0,1.7-0.9,1.7-1.8l0.1-24c0-0.5-0.2-0.9-0.5-1.2
				c-0.3-0.3-0.8-0.7-1.2-0.7l-7.3,0.5l0,26.4l-0.3,2.3l-4.7-0.6l0.1,27.3l9.2,3.2l2.4,0v0.8l2.4,0.8l0.1-23.2l2.4,7.4l2.9,0.4
				l2.5-7.7l-0.1,25.7l2.5,0.9l0.1-32.6L215.1,113.6z M214.3,79.2l0.1-30.1l-2.5,0.5l-0.2,29.7L214.3,79.2z M236.6,113.6l0-33.3
				l-2.5,0.2l-0.1,22l-3.7-21.8l-2.5,0.1l-1.7-2.4c0.9,0,1.7-1,1.7-1.9l0-5.6l-2.6,0.3l0,4.3l-3.9,0.2l0-25.6l3.9-0.8l0,4.4l2.6-0.6
				l0-4.8c0-0.9-0.7-2-1.8-1.8l-5.6,1.2c-1.4,0.4-1.6,0.8-1.6,1.8v27.2c0,0.9,0.8,2,1.8,2l0.2,2.6l-7.6,0.5l-0.1,29l9,1l-0.2,2.6
				l0,33.5l7.3,2.5c0.9,0,1.6-0.7,1.6-1.6l0.1-18.1c0-0.5-0.2-0.9-0.7-1.5l-0.4-0.5l0.5-0.4c0.4-0.3,0.6-0.8,0.6-1.3l0-10
				c0-0.4-0.2-0.9-0.5-1.2c-0.3-0.3-0.8-0.5-1.2-0.5l-1.8-0.2l0.3-2.6l2.5,0.3l0-22.1l3.8,22.5L236.6,113.6z M237.7,77.7l2.5-0.2
				l0.1-32.1c0-0.5-0.2-0.9-0.5-1.2s-0.7-0.5-1.2-0.5l-5.6,1.3c-0.9,0-1.7,0.8-1.7,1.7l-0.1,31.3l2.6-0.2l0.1-14.9l3.9-0.5
				L237.7,77.7z M242.9,155.1l0.1-2.6l-5.2-1.9l-0.1-34.3l-2.5-0.3l0,36.4L242.9,155.1z M245.8,133.6l-0.1,22.5l2.5,0.8l0.1-23
				l4.3-15.6l-2.8-0.3l-2.5,11.5l-2.5-12.1l-2.6-0.3L245.8,133.6z M252.6,76.7l0.1-2.9l-5.1,0.4l0-32.4l-2.5,0.6l0,34.8L252.6,76.7z
				 M253.1,81.7v-2.5l-12.6,1l-0.1,2.4l5-0.4l-0.1,32.5l2.5,0.3l0.1-32.9L253.1,81.7z M255.9,41.8c0,10,0,117.6,0,117.6s0.2,8-9,4.9
				c-12.4-4.2-155.2-55.8-155.2-55.8l0.8,8.4c0,0-0.6,8-7.8,5.2c-9.2-3.6-10-3.4-10-3.4s-2.5-1.6-3.1-4.8c-1-6.2-2.2-12.6-2.2-12.6
				l-1-0.7c0,0-1.8-0.2-2.4-4c-1.5-9.3-1.9-13.4-1.9-13.4s-0.8-5.5,5.3-6.5L249.1,35C249.1,35,255.9,34.3,255.9,41.8z"/>
			<path class="st1" d="M86.5,93.2v0.3v1c0,0.3-0.1,0.5-0.3,0.6c-0.4,0.1-1.1,0.1-1.1-0.6c0-0.1,0-0.5,0-0.7l0-7.8
				c-0.1-0.4,0.2-0.8,0.6-0.9c0.4-0.1,0.7,0.1,0.9,0.5C86.6,85.6,86.6,93.1,86.5,93.2z"/>
		</g>
		<g>
		</g>
	</g>
</g>
</svg>
