<?xml version="1.0" encoding="utf-8"?>
<!-- Generator: Adobe Illustrator 16.0.0, SVG Export Plug-In . SVG Version: 6.00 Build 0)  -->
<!DOCTYPE svg PUBLIC "-//W3C//DTD SVG 1.1//EN" "http://www.w3.org/Graphics/SVG/1.1/DTD/svg11.dtd">
<svg version="1.1" id="Layer_1" xmlns="http://www.w3.org/2000/svg" xmlns:xlink="http://www.w3.org/1999/xlink" x="0px" y="0px"
	 width="320px" height="200px" viewBox="0 0 320 200" enable-background="new 0 0 320 200" xml:space="preserve">
<g>
	<path fill="#231F20" d="M142.186,81.488c-0.141-0.428-0.613-0.654-1.037-0.516c-0.385,0.131-0.614,0.498-0.565,0.883l-0.041,9.198
		c-0.014,0.108-0.008,0.229,0.033,0.347c0.136,0.422,0.601,0.644,1.032,0.498c0.375-0.127,0.618-0.498,0.552-0.875l0.046-9.195
		c0.021-0.061,0.021-0.131,0.014-0.194v-0.102h-0.027C142.186,81.521,142.186,81.494,142.186,81.488"/>
	<path fill="#231F20" d="M85.633,85.014c-0.356,0.113-0.646,0.549-0.573,0.919l0,0l0.007,7.784c0,0.195,0,0.604,0,0.738
		c0.04,0.704,0.721,0.673,1.132,0.572c0.289-0.064,0.337-0.29,0.337-0.586v-0.97v-0.276c0.02-0.114,0.02-7.572-0.014-7.689
		C86.373,85.113,86.029,84.869,85.633,85.014"/>
	<polygon fill="#231F20" points="224.368,117.36 224.362,127.115 228.281,127.7 228.194,117.839 	"/>
	<polygon fill="#231F20" points="224.093,146.074 228.248,147.529 228.262,130.111 224.254,129.506 	"/>
	<polygon fill="#231F20" points="159.722,117.151 163.62,117.694 163.748,109.714 159.741,109.206 	"/>
	<polygon fill="#231F20" points="160.071,64.07 160.098,71.357 164.32,70.72 164.273,63.114 	"/>
	<polygon fill="#231F20" points="237.816,46.662 233.917,47.531 233.837,60.531 237.824,59.827 	"/>
	<path fill="#231F20" d="M255.939,41.817c0-7.522-6.796-6.799-6.796-6.799L69.391,76.568c-6.062,1.023-5.301,6.488-5.301,6.488
		s0.41,4.166,1.906,13.441c0.611,3.839,2.39,3.997,2.39,3.997l1.005,0.718c0,0,1.191,6.394,2.229,12.585
		c0.539,3.202,3.064,4.766,3.064,4.766s0.787-0.133,10.039,3.435c7.165,2.757,7.771-5.23,7.771-5.23l-0.754-8.356
		c0,0,142.79,51.604,155.215,55.853c9.232,3.158,8.984-4.865,8.984-4.865S255.939,51.791,255.939,41.817 M247.567,41.817
		l0.014,32.364l5.104-0.364l-0.054,2.913l-7.583,0.519l-0.013-34.846L247.567,41.817z M231.426,46.8
		c0-0.925,0.734-1.672,1.664-1.686l5.556-1.313c0.451,0,0.867,0.175,1.191,0.502c0.33,0.315,0.498,0.744,0.498,1.201l-0.067,32.072
		l-2.524,0.16l0.04-15.215l-3.866,0.542l-0.054,14.896l-2.586,0.162L231.426,46.8z M218.753,49.659
		c0.006-0.926,0.175-1.36,1.569-1.781l5.621-1.179c1.126-0.167,1.792,0.882,1.786,1.795l-0.014,4.751l-2.56,0.58l0.014-4.361
		l-3.899,0.835l-0.021,25.634l3.92-0.246l0.006-4.293l2.567-0.356l-0.021,5.589c0,0.906-0.768,1.842-1.662,1.855l-5.557,0.384
		c-0.923,0-1.758-1.045-1.75-1.963V49.659z M220.752,93.993l-0.006,2.519l-5.158-0.014l0.053,12.209l6.378,0.748l-0.013,2.461
		l-8.971-1.031l0.073-28.963l8.963-0.565l-0.006,2.519l-6.444,0.4l-0.014,9.704L220.752,93.993z M211.944,49.625l2.498-0.528
		l-0.141,30.115l-2.54,0.138L211.944,49.625z M208.799,50.384l-0.006,2.636l-3.806,0.825l-0.113,25.977l-2.553,0.165l0.141-25.546
		l-3.852,0.862l-0.021-2.755L208.799,50.384z M198.233,82.854l7.279-0.478c0.445,0,0.89,0.34,1.205,0.666
		c0.324,0.321,0.505,0.745,0.505,1.203l-0.054,23.977c0,0.906-0.754,1.788-1.656,1.801l-7.312-0.817L198.233,82.854z
		 M192.691,53.976l2.505-0.549l-0.067,27.105l-2.525,0.178L192.691,53.976z M184.798,55.945l-0.167,22.516l5.131-0.34l0.014,2.802
		l-7.67,0.478l-0.007-24.883L184.798,55.945z M171.25,58.827l5.59-1.238c0.443,0,0.922,0.151,1.246,0.478
		c0.322,0.32,0.457,1.183,0.451,1.637l-0.049,20.175c0,0.906-0.76,1.806-1.662,1.819l-5.563,0.39c-0.921,0-1.696-0.898-1.696-1.817
		V60.999C169.566,60.073,170.328,58.852,171.25,58.827 M95.249,105.276c-2.566-0.774-8.633-2.943-8.633-2.943
		s1.421,10.283,1.541,12.152c0.257,4.071-3.117,2.97-3.117,2.97l-7.34-2.927c0,0-1.495-0.396-1.893-2.982
		c-0.761-5.004-2.129-13.455-2.129-13.455l-1.01-0.316c-1.926-0.633-2.047-3.478-2.047-3.478l-1.226-9.711
		c0,0-0.344-3.293,3.623-4.165c4.356-0.97,13.65-3.129,22.654-5.162c3.366-0.767,3.002,2.862,3.002,2.862v24.902
		C98.676,103.023,98.757,106.34,95.249,105.276 M126.778,79.312c-0.035,3.152-2.694,3.232-2.694,3.232l-14.229,0.919
		c-0.081,0-0.163,0.007-0.25,0.027c-0.356,0.124-0.564,0.529-0.438,0.893c0.114,0.347,0.465,0.542,0.809,0.472
		c1.306-0.111,10.284-0.422,13.239-0.66c3.427-0.282,3.521,2.781,3.521,2.781v26.3c0,0,0.33,3.252-3.307,1.761
		c-5.831-2.383-18.176-6.267-20.384-7.074c-2.869-1.057-2.425-4.043-2.425-4.043v-4.83c0-2.359,2.452-1.874,2.452-1.874l11.145,1.31
		c0.101,0.017,0.154-0.014,0.27-0.051c0.39-0.138,0.593-0.549,0.465-0.939c-0.107-0.35-0.392-0.413-0.788-0.508l0,0
		c0,0-10.203-1.122-11.832-1.536c-1.992-0.491-1.711-3.461-1.711-3.461V78.596c0,0-0.519-4.191,3.22-5.037
		c5.596-1.275,12.215-2.687,19.051-4.209c4.188-0.932,3.845,3.28,3.845,3.28S126.818,76.164,126.778,79.312 M150.812,125.045
		c-2.141-0.681-5.878-2.064-7.002-2.476c-1.873-0.704-1.678-3.064-1.678-3.064v-16.852c0,0,0.06-0.428,0-0.616
		c-0.169-0.484-0.357-0.802-0.842-0.637c-0.297,0.095-0.505,0.334-0.593,0.616l-0.006,16.51c0,0-0.29,2.754-3.551,1.687
		c-1.811-0.587-3.791-1.324-6.033-2.114c-2.835-0.997-2.384-4.502-2.384-4.502l-0.014-41.082c0,0-0.505-4.38,3.872-5.343
		c5.536-1.226,10.068-2.139,17.543-3.795c4.336-0.97,4.296,3.165,4.296,3.165l-0.014,55.316
		C154.407,121.858,154.912,126.34,150.812,125.045 M157.034,99.627l2.594,0.106l-0.027,2.529l3.831,0.471l0.033-6.424l-4.721-0.013
		c-0.451,0-0.889-0.176-1.198-0.502c-0.323-0.323-0.499-0.751-0.491-1.209l-0.027-7.438c0-0.934,0.734-1.677,1.671-1.694
		l5.709-0.377c0.451,0.01,0.877,0.182,1.192,0.502c0.324,0.323,0.505,0.751,0.499,1.202l0.081,4.026l-2.693,0.229l0.054-3.33
		l-3.988,0.276l0.035,5.791l4.747,0.007c0.917,0.01,1.69,0.791,1.69,1.71l-0.02,8.155c-0.008,0.896-0.768,1.663-1.671,1.688
		l-5.582-0.711c-0.93,0-1.697-0.781-1.697-1.699L157.034,99.627z M166.024,128.933l-2.451-0.841l-0.02-8l-3.832-0.56l0.02,7.213
		l-2.551-0.839l-0.008-17.475c0-0.927,0.713-1.737,1.643-1.751l5.791,0.725c0.923,0,1.696,0.78,1.696,1.71L166.024,128.933z
		 M166.691,71.37c-0.008,0.913-0.754,1.674-1.697,1.693l0,0l-4.64,0.754l-0.148,9.051l-2.405,0.188V61.898l7.348-1.606
		c0.445,0,0.829,0.158,1.158,0.476c0.324,0.326,0.538,1.006,0.538,1.457L166.691,71.37z M176.348,119.657
		c0.438,0,0.869,0.182,1.192,0.515c0.322,0.31,0.505,0.738,0.497,1.191l-0.208,9.554c-0.008,0.892-0.768,1.666-1.67,1.687
		l-5.604-1.953c-0.504-0.161-0.854-0.256-1.178-0.579c-0.317-0.327-0.492-0.761-0.492-1.195l0.169-4.542l2.546,0.596l-0.014,3.387
		l3.886,1.385l-0.026-7.62l-4.729-0.73c-0.464,0-0.935-0.139-1.265-0.447c-0.31-0.327-0.384-0.711-0.384-1.165l0.074-9.923
		c0-0.926,0.734-1.668,1.656-1.681l5.562,0.711c0.443,0,0.957,0.151,1.279,0.471c0.323,0.323,0.432,0.674,0.424,1.129l0.054,5.78
		l-2.626-0.472l-0.02-4.562l-3.799-0.479l-0.081,8.195L176.348,119.657z M179.586,86.619l-3.851,0.313l-0.073,19.603l-2.573-0.296
		l0.101-19.162l-3.886,0.231l0.041-2.511l10.249-0.697L179.586,86.619z M189.957,117.498L187.385,117l0.026-4.384l-3.973-0.478
		l0.041,8.727l4.761,0.774c0.916,0.007,1.697,0.775,1.697,1.704l-0.176,11.744c-0.014,0.906-0.633,1.491-1.529,1.505l-5.918-2.003
		c-0.613-0.232-0.943-0.22-1.267-0.545c-0.33-0.334-0.457-0.63-0.438-1.084l0.061-6.078l2.498,0.414l0.021,5.048l4.066,1.435
		l0.108-9.772l-4.756-0.831c-0.928,0-1.643-0.919-1.643-1.853l0.021-10.017c0-0.933,0.733-1.674,1.657-1.693l5.669,0.71
		c0.445,0,0.869,0.179,1.192,0.498c0.317,0.327,0.499,0.754,0.499,1.203L189.957,117.498z M192.631,106.522
		c0,0.902-0.808,1.831-1.718,1.845l-5.528-0.68c-0.916-0.007-1.697-0.876-1.697-1.799l0.062-22.033l2.47-0.176l-0.229,21.546
		l4.088,0.417l0.088-22.215l2.619-0.182L192.631,106.522z M202.462,141.425l-9.158-3.185l-0.107-27.261l9.105,1.118l-0.027,2.388
		l-6.525-0.796l0.067,9.045l5.173,0.774l-0.041,2.556l-5.132-0.795l-0.062,11.129l6.707,2.347V141.425z M217.628,146.529
		l-2.525-0.882l0.061-25.714l-2.492,7.739l-2.882-0.433l-2.396-7.425l-0.148,23.195l-2.404-0.761l0.121-29.829l2.194,0.249
		l4.089,12.382l3.866-11.435l2.585,0.326L217.628,146.529z M230.759,127.063c0,0.53-0.222,0.995-0.625,1.311l-0.492,0.391
		l0.431,0.479c0.485,0.521,0.681,0.937,0.673,1.458l-0.054,18.131c0,0.906-0.66,1.586-1.562,1.609l-7.299-2.478l-0.027-33.492
		l7.28,0.906c0.438,0,0.868,0.165,1.191,0.491c0.33,0.327,0.511,0.754,0.511,1.202L230.759,127.063z M230.099,90.757l-0.013,22.092
		l-2.498-0.272l0.182-31.653l2.505-0.146l3.718,21.774l0.101-22.044l2.485-0.182l-0.021,33.277l-2.693-0.354L230.099,90.757z
		 M242.928,155.146l-7.798-2.649l0.054-36.364l2.465,0.316l0.101,34.26l5.253,1.882L242.928,155.146z M248.26,133.85l-0.078,23.05
		l-2.486-0.841l0.061-22.476l-3.629-16.576l2.579,0.347l2.519,12.078l2.497-11.542l2.823,0.326L248.26,133.85z M253.062,81.653
		l-5.186,0.427l-0.074,32.934l-2.545-0.303l0.095-32.466l-5.018,0.357l0.088-2.454l12.64-1.037V81.653z"/>
	<polygon fill="#231F20" points="200.597,107 204.529,107.455 204.651,85 200.779,85.272 	"/>
	<polygon fill="#231F20" points="175.984,60.443 172.192,61.289 172.112,79.235 175.93,79.017 	"/>
</g>
</svg>
