<?xml version="1.0" encoding="utf-8"?>
<!-- Generator: Adobe Illustrator 16.0.0, SVG Export Plug-In . SVG Version: 6.00 Build 0)  -->
<!DOCTYPE svg PUBLIC "-//W3C//DTD SVG 1.1//EN" "http://www.w3.org/Graphics/SVG/1.1/DTD/svg11.dtd">
<svg version="1.1" id="Layer_1" xmlns="http://www.w3.org/2000/svg" xmlns:xlink="http://www.w3.org/1999/xlink" x="0px" y="0px"
	 width="320px" height="200px" viewBox="0 0 320 200" enable-background="new 0 0 320 200" xml:space="preserve">
<g>
	<path fill="#04A9D3" d="M35,65.515v68.969h159.354V65.515H35z M167.928,110.076c-1.286,2.52-2.884,4.621-4.791,6.293
		c-3.747,3.205-8.187,5.162-13.321,5.875c-1.32,0.182-2.607,0.248-3.863,0.271l-50.512,8.898l-0.918-5.115L87.89,89.218
		l-5.789,1.034l-1.279-7.147c-0.24-0.828-0.632-1.881-0.865-2.171c-0.768-0.933-1.727-1.64-2.865-2.136
		c-1.148-0.5-2.59-0.956-4.32-1.366c-2.387-0.571-4.456-0.395-6.211,0.523c-1.643,0.846-2.65,2.091-3.042,3.728
		c-0.475,1.959-0.114,3.57,1.082,4.785c1.438,1.629,3.771,3.277,6.987,4.947c3.043,1.557,5.646,3.129,7.821,4.714
		c2.173,1.591,3.776,3.201,4.825,4.834c2.187,3.292,2.744,7.167,1.686,11.616c-1.064,4.443-3.684,7.725-7.854,9.861
		c-4.063,2.092-8.528,2.559-13.396,1.393c-2.912-0.691-5.605-2.047-8.088-4.078c-0.746-0.625-1.489-1.34-2.234-2.168l-0.686,2.883
		l-7.729-1.852l4.983-20.868l7.727,1.855l-0.94,3.926c-0.59,2.492-0.051,4.973,1.64,7.447c1.716,2.545,4.146,4.186,7.292,4.938
		c2.708,0.654,5.101,0.408,7.153-0.742c1.994-1.107,3.259-2.783,3.799-5.033c0.46-1.92,0.122-3.609-1.018-5.072
		c-0.696-0.807-1.758-1.719-3.175-2.723c-1.415-1.012-3.315-2.122-5.7-3.325c-2.424-1.274-4.521-2.581-6.301-3.924
		c-1.786-1.342-3.215-2.787-4.28-4.318c-2.147-3.243-2.722-6.966-1.712-11.187c0.952-3.984,3.364-6.937,7.244-8.885
		c3.755-1.821,7.833-2.215,12.234-1.166c1.27,0.304,2.547,0.692,3.845,1.17c1.292,0.489,2.527,1.169,3.705,2.042
		c1.045,0.801,1.985,1.587,2.811,2.381c0.827,0.79,1.603,1.843,2.327,3.156c0.457,0.801,0.801,1.501,1.058,2.11
		c0.128,0.328,0.256,0.689,0.368,1.091l30.072-5.537l1.43,7.516L95.88,87.792l2.381,13.311l18.771-3.354l1.302,7.258l-18.771,3.354
		l2.564,14.381l21.501-3.838l7.163-1.361c-2.654-2.07-4.754-4.537-6.282-7.432c-1.535-2.928-2.565-6.268-3.085-10.018
		c-0.511-3.709-0.413-7.178,0.295-10.42c0.715-3.234,2.064-6.222,4.055-8.953c3.936-5.413,9.562-8.625,16.89-9.645
		c3.22-0.444,6.553-0.181,10.015,0.798c0.896,0.237,1.768,0.542,2.609,0.899c0.851,0.364,1.693,0.805,2.539,1.315l-0.032-0.263
		l7.366-1.02l2.044,14.802l-7.03,0.978c-0.834-2.437-1.781-4.27-2.845-5.519c-1.056-1.237-2.319-2.212-3.782-2.916
		c-3.209-1.467-6.531-1.967-9.969-1.497c-4.869,0.681-8.612,2.889-11.238,6.614c-2.653,3.825-3.614,8.399-2.88,13.711
		c0.734,5.274,2.916,9.385,6.553,12.334c2.682,2.18,5.749,3.354,9.194,3.518l0.157-0.029l0.015,0.029
		c1.114,0.047,2.262,0,3.453-0.164c3.711-0.512,6.768-1.918,9.183-4.211c1.17-1.076,2.227-2.588,3.161-4.533
		c0.938-1.949,1.802-4.822,2.598-8.622l7.458,3.062C170.317,104.324,169.219,107.553,167.928,110.076z"/>
	<g>
		<path fill="#04A9D3" d="M208.818,100.262c-0.979,0.841-2.167,1.269-3.569,1.269c-0.843,0-1.666-0.201-2.48-0.599
			c-0.244-0.113-0.491-0.264-0.744-0.444v0.829h-2.234V95.3h2.234v1.132c0,0.708,0.305,1.352,0.926,1.923
			c0.636,0.583,1.407,0.881,2.313,0.881c0.786,0,1.426-0.238,1.907-0.675c0.474-0.431,0.711-0.973,0.711-1.621
			c0-0.559-0.2-0.993-0.61-1.319c-0.243-0.177-0.59-0.353-1.041-0.534c-0.452-0.185-1.047-0.37-1.775-0.542
			c-0.746-0.188-1.407-0.406-1.979-0.658c-0.578-0.248-1.062-0.557-1.447-0.898c-0.802-0.75-1.199-1.72-1.199-2.946
			c0-1.151,0.465-2.118,1.397-2.9c0.907-0.749,1.994-1.117,3.266-1.117c0.368,0,0.745,0.025,1.128,0.064
			c0.384,0.056,0.769,0.158,1.144,0.319c0.34,0.15,0.652,0.305,0.927,0.47c0.278,0.163,0.557,0.398,0.842,0.708
			c0.174,0.192,0.317,0.357,0.421,0.508c0.114,0.143,0.218,0.338,0.329,0.564c0.081,0.18,0.142,0.414,0.19,0.703
			c0.049,0.29,0.091,0.576,0.123,0.865c0.035,0.283,0.058,0.629,0.072,1.043h-2.396V90.35c0-0.087-0.011-0.199-0.037-0.342
			c-0.03-0.136-0.063-0.291-0.117-0.433c-0.044-0.151-0.104-0.29-0.188-0.429c-0.082-0.139-0.18-0.248-0.303-0.346
			c-0.267-0.203-0.576-0.327-0.923-0.387c-0.347-0.068-0.775-0.103-1.271-0.103c-0.687,0-1.241,0.181-1.663,0.554
			c-0.391,0.335-0.586,0.745-0.586,1.215c0,0.568,0.2,0.985,0.605,1.238c0.5,0.35,1.245,0.654,2.231,0.891
			c0.933,0.233,1.749,0.494,2.447,0.783c0.697,0.293,1.239,0.628,1.63,1.008c0.812,0.755,1.22,1.776,1.22,3.062
			C210.316,98.343,209.812,99.408,208.818,100.262z"/>
		<path fill="#04A9D3" d="M222.059,92.863c-0.228,0.575-0.579,1.091-1.053,1.523c-0.474,0.428-1.011,0.748-1.616,0.952
			c-0.615,0.203-1.284,0.304-2.013,0.304h-2.494v4.12v1.554h-4.259v-2.206h1.821V88.454h-1.821v-2.208h6.549
			c0.771,0,1.478,0.101,2.121,0.301c0.645,0.191,1.209,0.508,1.697,0.937c0.481,0.432,0.84,0.939,1.067,1.515
			c0.234,0.569,0.348,1.226,0.348,1.953C222.406,91.644,222.293,92.28,222.059,92.863z M219.788,89.812
			c-0.122-0.32-0.279-0.568-0.467-0.741c-0.2-0.196-0.493-0.339-0.872-0.448c-0.378-0.108-0.869-0.169-1.479-0.169h-2.087v4.977
			h2.087c0.553,0,1.021-0.06,1.388-0.162c0.378-0.116,0.681-0.263,0.925-0.451c0.215-0.169,0.384-0.398,0.506-0.677
			c0.124-0.274,0.188-0.636,0.188-1.064C219.976,90.542,219.912,90.132,219.788,89.812z"/>
		<path fill="#04A9D3" d="M224.192,101.316v-1.554V88.454h-1.764v-2.208h12.316v4.646h-2.218v-2.438h-5.901v4.059h5.718v2.216
			h-5.718v4.382h6.553h1.584v2.206H224.192z"/>
		<path fill="#04A9D3" d="M248.521,98.659c-0.493,0.686-1.05,1.249-1.686,1.676c-1.245,0.794-2.649,1.197-4.206,1.197
			c-2.227,0-4.04-0.724-5.432-2.153c-0.723-0.737-1.241-1.568-1.587-2.501c-0.34-0.93-0.506-1.964-0.506-3.104
			c0-1.121,0.177-2.144,0.521-3.085c0.347-0.928,0.867-1.76,1.572-2.494c1.392-1.445,3.2-2.17,5.415-2.17
			c0.977,0,1.953,0.218,2.939,0.65c0.259,0.109,0.508,0.234,0.742,0.372c0.239,0.147,0.472,0.305,0.705,0.501v-0.083h2.228v4.484
			h-2.132c-0.146-0.76-0.357-1.343-0.615-1.749c-0.262-0.426-0.596-0.761-1.006-1.039c-0.892-0.564-1.858-0.851-2.9-0.851
			c-1.471,0-2.676,0.513-3.608,1.509c-0.952,1.027-1.421,2.352-1.421,3.954c0,1.595,0.479,2.906,1.436,3.939
			c0.947,1.019,2.171,1.523,3.675,1.523c1.126,0,2.089-0.298,2.897-0.881c0.394-0.259,0.771-0.673,1.133-1.215
			c0.352-0.546,0.729-1.364,1.12-2.457l2.093,1.219C249.46,97.042,249.001,97.956,248.521,98.659z"/>
		<path fill="#04A9D3" d="M249.712,101.316v-2.206h1.728V87.808v-1.562h2.43v1.562v11.303h1.745v2.206H249.712z M251.416,85.701
			v-2.596h2.437v2.596H251.416z"/>
		<path fill="#04A9D3" d="M266.463,101.316v-2.206h1.464l-1.076-3.025h-4.623l-1.278,3.714v1.516h-4.186v-2.206h1.933l3.994-11.503
			l0.448-1.361h5.011v2.208h-1.461l3.755,10.657h1.881v2.206H266.463z M264.556,89.334l-1.558,4.54h3.096L264.556,89.334z"/>
		<path fill="#04A9D3" d="M273.384,101.316v-2.206h1.866V88.454h-1.866v-2.208h4.32l-0.023,12.865h4.385v-3.554h2.393v5.76H273.384z
			"/>
		<path fill="#04A9D3" d="M201.145,119.348v-1.557v-11.299h-1.762v-2.207h12.316v4.637h-2.212v-2.43h-5.904v4.055h5.718v2.211
			h-5.718v4.387h6.553h1.578v2.203H201.145z"/>
		<path fill="#04A9D3" d="M226.401,106.492l-4.771,13.006h-1.843l-4.936-13.006h-1.986v-2.207h3.753l0.446,1.334l3.716,9.732
			l3.266-8.859h-1.4v-2.207h5.741v2.207H226.401z"/>
		<path fill="#04A9D3" d="M231.268,119.348v-1.557v-11.299h-1.767v-2.207h12.315v4.637h-2.209v-2.43h-5.909v4.055h5.726v2.211
			h-5.726v4.387h6.561h1.58v2.203H231.268z"/>
		<path fill="#04A9D3" d="M256.465,106.492v13.035h-2.068l-7.307-11.17v8.787h1.945v2.203h-4.194v-1.557v-11.299h-1.848v-2.207
			h4.258c0.762,1.213,1.479,2.338,2.156,3.369c0.675,1.035,1.344,2.061,2.004,3.062c0.938,1.371,1.87,2.801,2.803,4.26v-9.129
			v-1.562h4.033v2.207H256.465z"/>
		<path fill="#04A9D3" d="M269.766,108.297v-1.805h-2.674v12.855h-4.323v-2.203h1.894v-10.652h-2.683v3.43h-2.229v-5.637h12.253
			v4.012H269.766z"/>
		<path fill="#04A9D3" d="M282.065,118.295c-0.973,0.842-2.157,1.264-3.572,1.264c-0.835,0-1.662-0.195-2.474-0.586
			c-0.243-0.121-0.495-0.273-0.745-0.453v0.828h-2.235v-6.02h2.235v1.137c0,0.715,0.308,1.363,0.929,1.926
			c0.635,0.588,1.401,0.873,2.312,0.873c0.784,0,1.421-0.219,1.903-0.662c0.479-0.438,0.716-0.986,0.716-1.625
			c0-0.564-0.203-0.994-0.61-1.316c-0.247-0.182-0.591-0.361-1.046-0.549c-0.46-0.174-1.043-0.354-1.774-0.529
			c-0.746-0.191-1.408-0.414-1.979-0.67c-0.572-0.248-1.056-0.545-1.452-0.891c-0.797-0.75-1.196-1.73-1.196-2.949
			c0-1.148,0.466-2.123,1.403-2.889c0.903-0.754,1.994-1.131,3.265-1.131c0.366,0,0.738,0.027,1.126,0.074
			c0.383,0.041,0.766,0.158,1.144,0.318c0.338,0.146,0.65,0.305,0.924,0.463c0.275,0.16,0.558,0.398,0.844,0.711
			c0.181,0.191,0.315,0.361,0.43,0.516c0.104,0.143,0.21,0.328,0.319,0.561c0.086,0.176,0.146,0.404,0.189,0.703
			c0.048,0.289,0.092,0.576,0.126,0.854c0.034,0.285,0.06,0.637,0.071,1.039h-2.393v-0.914c0-0.08-0.015-0.191-0.045-0.336
			c-0.025-0.143-0.061-0.285-0.104-0.434c-0.054-0.152-0.114-0.293-0.195-0.424c-0.085-0.135-0.183-0.248-0.31-0.346
			c-0.264-0.203-0.57-0.338-0.921-0.404c-0.342-0.059-0.771-0.084-1.269-0.084c-0.684,0-1.24,0.182-1.661,0.555
			c-0.393,0.336-0.588,0.742-0.588,1.211c0,0.562,0.207,0.98,0.605,1.238c0.503,0.354,1.249,0.645,2.234,0.893
			c0.933,0.232,1.745,0.492,2.445,0.775c0.695,0.293,1.245,0.635,1.632,1.004c0.812,0.762,1.215,1.785,1.215,3.07
			C283.563,116.383,283.063,117.445,282.065,118.295z"/>
		<path fill="#04A9D3" d="M208.032,130.881c-0.327,0.465-0.7,0.836-1.124,1.113c-0.829,0.533-1.766,0.797-2.801,0.797
			c-1.489,0-2.696-0.473-3.624-1.428c-0.476-0.482-0.828-1.045-1.055-1.664c-0.225-0.617-0.339-1.314-0.339-2.068
			c0-0.746,0.114-1.438,0.348-2.055c0.226-0.623,0.577-1.18,1.046-1.662c0.928-0.963,2.129-1.445,3.61-1.445
			c0.65,0,1.305,0.137,1.959,0.43c0.173,0.068,0.336,0.158,0.493,0.242c0.158,0.09,0.315,0.217,0.468,0.338v-0.053h1.488v2.988
			h-1.422c-0.098-0.498-0.233-0.898-0.405-1.176c-0.177-0.27-0.407-0.496-0.671-0.67c-0.6-0.383-1.243-0.572-1.939-0.572
			c-0.983,0-1.781,0.332-2.404,1.002c-0.632,0.676-0.949,1.557-0.949,2.633c0,1.053,0.319,1.934,0.961,2.625
			c0.631,0.68,1.448,1.008,2.452,1.008c0.744,0,1.392-0.195,1.929-0.578c0.264-0.172,0.513-0.443,0.749-0.805
			c0.24-0.369,0.488-0.91,0.752-1.648l1.394,0.812C208.66,129.812,208.353,130.416,208.032,130.881z"/>
		<path fill="#04A9D3" d="M218.211,131.326c-0.95,0.986-2.161,1.465-3.623,1.465c-1.458,0-2.669-0.479-3.626-1.465
			c-0.955-0.994-1.429-2.221-1.429-3.695s0.474-2.709,1.429-3.693c0.957-0.986,2.168-1.469,3.626-1.469
			c1.462,0,2.673,0.482,3.623,1.469c0.955,0.984,1.433,2.219,1.433,3.693S219.166,130.332,218.211,131.326z M217.049,125.006
			c-0.64-0.678-1.458-1.01-2.461-1.01c-0.993,0-1.811,0.332-2.459,1.023c-0.654,0.678-0.978,1.543-0.978,2.611
			c0,1.053,0.323,1.934,0.978,2.611c0.648,0.678,1.466,1.021,2.459,1.021c1.003,0,1.821-0.328,2.461-1.008
			c0.651-0.691,0.971-1.572,0.971-2.625S217.7,125.697,217.049,125.006z"/>
		<path fill="#04A9D3" d="M229.108,132.664v-1.047v-5.973l-2.873,7.02h-0.732l-2.842-7.027v5.545h1.099v1.482h-2.595v-1.047v-7.529
			h-1.198v-1.467h3.075l2.9,6.98l2.858-6.98h3.085v1.467h-1.151v7.094h1.151v1.482H229.108z"/>
		<path fill="#04A9D3" d="M241.726,132.664v-1.047v-5.973l-2.882,7.02h-0.729l-2.845-7.027v5.545h1.099v1.482h-2.6v-1.047v-7.529
			h-1.188v-1.467h3.068l2.895,6.98l2.867-6.98h3.086v1.467h-1.15v7.094h1.15v1.482H241.726z"/>
		<path fill="#04A9D3" d="M245.933,132.664v-1.482h1.151v-7.521v-1.039h1.615v1.039v7.521h1.168v1.482H245.933z M247.067,122.244
			v-1.73h1.621v1.73H247.067z"/>
		<path fill="#04A9D3" d="M256.911,125.291v-1.203h-1.785v8.576h-2.875v-1.482h1.257v-7.094h-1.791v2.287h-1.481v-3.754h8.163v2.67
			H256.911z"/>
		<path fill="#04A9D3" d="M265.838,125.291v-1.203h-1.781v8.576h-2.881v-1.482h1.255v-7.094h-1.787v2.287h-1.486v-3.754h8.167v2.67
			H265.838z"/>
		<path fill="#04A9D3" d="M269.216,132.664v-1.047v-7.529h-1.174v-1.467h8.21v3.084h-1.475v-1.617h-3.936v2.699h3.813v1.475h-3.813
			v2.92h4.363h1.06v1.482H269.216z"/>
		<path fill="#04A9D3" d="M277.959,132.664v-1.047v-7.529h-1.181v-1.467h8.216v3.084h-1.479v-1.617h-3.938v2.699h3.814v1.475h-3.814
			v2.92h4.373H285v1.482H277.959z"/>
	</g>
</g>
</svg>
