<?xml version="1.0" encoding="utf-8"?>
<!-- Generator: Adobe Illustrator 18.0.0, SVG Export Plug-In . SVG Version: 6.00 Build 0)  -->
<!DOCTYPE svg PUBLIC "-//W3C//DTD SVG 1.1//EN" "http://www.w3.org/Graphics/SVG/1.1/DTD/svg11.dtd">
<svg version="1.1" id="Layer_1" xmlns="http://www.w3.org/2000/svg" xmlns:xlink="http://www.w3.org/1999/xlink" x="0px" y="0px"
	 viewBox="216 126 360 360" enable-background="new 216 126 360 360" xml:space="preserve">
<text transform="matrix(1 0 0 1 1.062297e-04 58.4996)" font-family="'ArialMT'" font-size="29.7"> </text>
<g>
	<path fill="#FFFFFF" d="M280.4,352l-2.1-1.5c0.5-0.7,0.8-1.2,0.8-1.6c0.1-0.5,0-1-0.3-1.5c-0.3-0.7-0.8-1.2-1.3-1.5
		c-0.6-0.3-1.2-0.3-1.8,0c-0.8,0.4-1.2,1.2-1.2,2.6l0.1,1.9c0,1.6-0.2,2.8-0.7,3.8c-0.5,1-1.3,1.7-2.5,2.2c-1.5,0.7-3,0.7-4.4,0.1
		c-1.4-0.6-2.5-1.6-3.2-3.1c-0.6-1.4-0.7-2.8-0.3-4.1c0.4-1.3,1.4-2.4,2.8-3.3l1.7,2.3c-0.9,0.5-1.5,1-1.7,1.5
		c-0.5,0.8-0.5,1.7-0.1,2.7c0.3,0.8,0.9,1.3,1.6,1.6c0.7,0.3,1.5,0.3,2.3-0.1c0.3-0.1,0.6-0.3,0.8-0.5c0.2-0.2,0.4-0.5,0.6-0.7
		c0.1-0.3,0.2-0.6,0.3-1s0.1-0.8,0.1-1.3l0-1.9c0-2.7,0.9-4.4,2.7-5.2c1.2-0.5,2.5-0.5,3.7,0.1c1.3,0.6,2.2,1.6,2.8,3
		C282.1,348.3,281.8,350.1,280.4,352z"/>
	<path fill="#FFFFFF" d="M278,364.2l-6.3,3.8l-1.4-2.3l15.4-9.3l1.6,2.6c0.8,1.3,1.3,2.3,1.5,3.1c0.2,0.8,0.2,1.6,0,2.4
		c-0.3,1.4-1.2,2.5-2.5,3.3c-1.4,0.8-2.8,1-4.2,0.6c-1.4-0.4-2.6-1.5-3.5-3.1L278,364.2z M280.2,362.9l0.5,0.9
		c1.3,2.1,2.7,2.7,4.4,1.7c1.6-1,1.7-2.5,0.4-4.7L285,360L280.2,362.9z"/>
	<path fill="#FFFFFF" d="M298.1,378.7l-4.4-5.7l-3.4,2.7l4.3,5.5l-2,1.6l-4.3-5.5l-4.7,3.7l4.4,5.7l-2,1.6l-6.1-7.8l14.1-11.1
		l6.1,7.8L298.1,378.7z"/>
	<path fill="#FFFFFF" d="M302.2,398.6l-5.6-5.3l-4.5,1.8l-2.1-2l19.6-7.6l-7,19.7l-2.1-2.1L302.2,398.6z M303.2,396l2.3-6.3
		l-6.2,2.5L303.2,396z"/>
	<path fill="#FFFFFF" d="M316.8,402.3l9.8-1.8l3,2.1l-11.3,2l1,12.7l-3-2.1l-0.7-10.3l-0.8,0.1l-4.3,6.1l-2.2-1.6l10.3-14.7l2.2,1.6
		L316.8,402.3z"/>
	<path fill="#FFFFFF" d="M341.5,411.7l-6.4-3.3l-2,3.8l6.2,3.2l-1.2,2.3l-6.2-3.2l-2.8,5.3l6.4,3.3l-1.2,2.3l-8.8-4.6l8.3-16
		l8.8,4.6L341.5,411.7z"/>
	<path fill="#FFFFFF" d="M350.3,423.5l2.6,9.1l-3.1-1.1l-2.3-8.7l-0.5-0.2l-2.5,6.9l-2.6-0.9l6.1-16.9l3,1.1c2.2,0.8,3.7,1.8,4.4,3
		c0.8,1.3,0.9,2.8,0.3,4.3c-0.4,1.2-1.1,2.1-2.1,2.7C352.7,423.5,351.5,423.7,350.3,423.5z M347.9,420.4l0.8,0.3
		c2.4,0.9,4,0.4,4.6-1.5c0.6-1.7-0.2-3-2.6-3.9l-0.9-0.3L347.9,420.4z"/>
	<path fill="#FFFFFF" d="M373.4,421.8l-2.4,0.8c-0.3-0.8-0.5-1.3-0.9-1.6c-0.3-0.3-0.8-0.6-1.4-0.7c-0.7-0.2-1.4-0.1-2,0.2
		c-0.6,0.3-0.9,0.8-1.1,1.4c-0.2,0.9,0.3,1.7,1.5,2.5l1.6,1.1c1.3,0.9,2.2,1.8,2.7,2.8c0.5,1,0.6,2.1,0.3,3.3
		c-0.4,1.6-1.2,2.8-2.5,3.7c-1.3,0.8-2.8,1.1-4.4,0.7c-1.5-0.3-2.7-1.1-3.5-2.2c-0.8-1.1-1.1-2.5-1-4.2l2.8,0
		c-0.1,1.1,0,1.8,0.2,2.3c0.4,0.9,1.1,1.4,2.1,1.7c0.8,0.2,1.6,0.1,2.2-0.4c0.7-0.4,1.1-1.1,1.3-1.9c0.1-0.3,0.1-0.7,0.1-1
		c0-0.3-0.1-0.6-0.3-0.9c-0.1-0.3-0.4-0.6-0.6-0.8c-0.3-0.3-0.6-0.6-1-0.8l-1.5-1.1c-2.2-1.5-3.1-3.3-2.6-5.2c0.3-1.3,1-2.3,2.2-3
		c1.2-0.7,2.6-0.9,4.1-0.5C371.3,418.2,372.7,419.6,373.4,421.8z"/>
	<path fill="#FFFFFF" d="M403.1,421.7l0.1,3.2c-1.6-1.3-3.2-1.9-4.9-1.9c-1.8,0-3.4,0.7-4.6,2.1c-1.3,1.3-1.9,3-1.8,4.9
		c0,1.9,0.7,3.5,2,4.7s2.9,1.9,4.7,1.9c1,0,1.8-0.2,2.4-0.5c0.4-0.2,0.8-0.4,1.1-0.6c0.4-0.3,0.8-0.6,1.2-1l0.1,3.3
		c-1.5,0.9-3.2,1.4-4.9,1.4c-2.6,0-4.8-0.8-6.6-2.6c-1.8-1.8-2.8-3.9-2.8-6.5c0-2.3,0.7-4.3,2.2-6.2c1.8-2.2,4.2-3.4,7.2-3.4
		C400,420.5,401.5,420.9,403.1,421.7z"/>
	<path fill="#FFFFFF" d="M409.4,429.4c-0.4-2.5,0.1-4.8,1.6-6.9c1.5-2.1,3.5-3.4,6.1-3.8c2.5-0.4,4.8,0.1,7,1.6
		c2.1,1.5,3.4,3.5,3.9,6c0.4,2.5-0.1,4.9-1.6,7c-1.5,2.1-3.6,3.4-6.2,3.8c-2.3,0.4-4.5,0-6.6-1.3
		C411.3,434.3,409.9,432.2,409.4,429.4z M412.1,428.9c0.3,2,1.3,3.4,2.8,4.5c1.5,1,3.1,1.4,4.9,1.1c1.9-0.3,3.3-1.2,4.4-2.7
		c1-1.5,1.4-3.2,1.1-5.1c-0.3-1.9-1.2-3.4-2.7-4.4c-1.5-1.1-3.1-1.4-5-1.1c-1.8,0.3-3.3,1.2-4.3,2.7
		C412.1,425.4,411.7,427.1,412.1,428.9z"/>
	<path fill="#FFFFFF" d="M437.4,432.9l-3.4-19.4l10.8,10.8l1-15.3l10.1,16.8l-2.6,1l-5.5-9.5l-0.8,12.8l-9-9.1l2.1,10.8L437.4,432.9
		z"/>
	<path fill="#FFFFFF" d="M463.6,422l-7.2-18.3l12.7,8.5l-2.1-15.2l13.2,14.5l-2.3,1.5l-7.3-8.2l1.8,12.7l-10.6-7.1l4.2,10.2
		L463.6,422z"/>
	<path fill="#FFFFFF" d="M477.3,390.4l11.6,13.7l-2.1,1.8l-11.6-13.7L477.3,390.4z"/>
	<path fill="#FFFFFF" d="M487.8,383.9l11,10.8l-1.9,1.9l-11-10.8l-2.9,3l-1.8-1.8l7.7-7.8l1.8,1.8L487.8,383.9z"/>
	<path fill="#FFFFFF" d="M497,373.1l12.2,9.5l-1.7,2.1l-12.2-9.5l-2.5,3.3l-2-1.6l6.7-8.6l2,1.6L497,373.1z"/>
	<path fill="#FFFFFF" d="M507.6,357l-3.7,6.2l3.7,2.2l3.6-6l2.2,1.3l-3.6,6l5.1,3.1l3.7-6.2l2.2,1.3l-5.1,8.5l-15.4-9.3l5.1-8.5
		L507.6,357z"/>
	<path fill="#FFFFFF" d="M514.5,342.3l-2.9,6.6l4,1.7l2.8-6.4l2.3,1l-2.8,6.4l5.5,2.4l2.9-6.6l2.3,1l-4,9.1l-16.4-7.3l4-9.1
		L514.5,342.3z"/>
</g>
<g>
	<g>
		<g id="back">
			<circle fill="#231F20" cx="396" cy="289.5" r="115.3"/>
			<path fill="#231F20" d="M396,406.3c-64.4,0-116.7-52.3-116.7-116.7S331.6,172.9,396,172.9s116.7,52.3,116.7,116.7
				S460.3,406.3,396,406.3z M396,175.9c-62.7,0-113.7,51-113.7,113.7s51,113.7,113.7,113.7s113.7-51,113.7-113.7
				S458.7,175.9,396,175.9z"/>
		</g>
		<g id="front">
			<path fill="#BE1E2D" d="M503.2,289.1c0,59.2-47.9,107.2-107.2,107.2s-107.2-48.1-107.2-107.2c0-59.2,48.1-107.2,107.2-107.2
				C455.1,181.8,503.2,229.9,503.2,289.1z"/>
			<path fill="#FFFFFF" d="M396,398.2c-60.2,0-109.3-49-109.3-109.3s49-109.3,109.3-109.3s109.3,49,109.3,109.3
				S456.2,398.2,396,398.2z M396,184c-58.1,0-105.2,47.1-105.2,105.2c0,57.9,47.1,105.2,105.2,105.2s105.2-47.1,105.2-105.2
				C501.1,231.1,453.9,184,396,184z"/>
		</g>
	</g>
	<g>
		<g>
			<g>
				<path fill="#231F20" d="M385.4,375.9c-6.5,0-31.3-6.8-32.3-6.9l-1.7-0.4l0.5-1.7c3.9-12.9,7.8-27.5,7.8-30.2
					c-0.2-0.2-0.8-0.4-1.2-0.5c-1.3-0.5-3.5-1.3-4-4c-0.4-1.9,0.2-4,0.8-6s1.2-4,0.8-5.6c-0.4-0.9-0.5-0.9-1.3-1.3
					c-1.2-0.4-3.1-1.2-3.5-4.4c-0.4-2.1-0.2-3.8-0.2-5c0-0.2,0-0.5,0-0.8c-1.7-0.8-5.6-2.7-6.1-7.5c-0.2-2.5,1.6-17.9,3.3-30.6
					c2.5-18.5,4.6-29.1,6.1-31.2c1.7-2.5,11.7-11.9,20-19.4c18.1-16.3,20-16.6,20.8-16.6c0.9-0.2,2.1-0.8,3.1-1.3
					c1.2-0.8,2.3-1.6,3.7-1.6c0.2,0,0.4,0,0.5,0h0.2c8.1,1.3,35.2,6.8,42.7,24.2c1.3,3.3,0.9,6.5,0.5,8.2c1.3,1.2,3.3,3.5,3.5,5.6
					c0,0.5-0.9,67.1-1.6,70.8c-0.5,2.9-3.8,11.7-8.9,16.9c-4.6,4.8-14.6,11.9-18.1,12.3c-0.2,0-0.4,0-0.5,0c-1.9,0-7.3-0.5-13.4-1.2
					c-7.3-0.8-15.5-1.6-18.9-1.6c-0.2,0-0.2,0-0.2,0c-0.4,2.5,0.2,10.6,0.5,16.7c1.3,17.3,1.2,22.1-1.6,22.9
					C386.8,375.9,386.2,375.9,385.4,375.9z"/>
			</g>
			<g>
				<path fill="#FFFFFF" d="M402.2,202.4c0.2,0,0.2,0,0.4,0c1.9,0.4,33.7,4.8,41.6,23.2c1.6,3.7,0.4,7.7,0.4,8.2c0,0,3.5,2.9,3.7,5
					s-0.9,67.5-1.6,70.2c-0.5,2.7-3.7,11.2-8.2,15.9c-4.6,4.8-14.2,11.5-16.9,11.7c-0.2,0-0.2,0-0.4,0c-4,0-26.2-2.5-32.3-2.5
					c-0.5,0-0.9,0-1.3,0c-3.3,0.5,3.1,38.5-0.5,39.8c-0.2,0-0.5,0.2-1.2,0.2c-6.5,0-31.9-6.9-31.9-6.9s8.9-29.2,7.8-31.2
					c-0.9-2.1-4.4-1.3-5.2-4.6c-0.8-3.1,2.7-8.1,1.6-11.7c-1.2-3.7-4.2-1.2-4.8-5.4c-0.8-4.2,0.8-6.4-0.8-6.9
					c-1.3-0.5-5-2.1-5.6-6.1c-0.4-4,6.1-56.2,9.2-60.6c3.1-4.4,36.8-35,39.6-35.4C398.3,204.9,400.3,202.4,402.2,202.4 M402.2,199
					c-1.9,0-3.5,0.9-4.6,1.7c-0.8,0.5-1.6,0.9-2.3,1.2c-1.3,0.2-3.3,0.4-21.8,17.1c-6.5,6-18.3,16.7-20.4,19.8
					c-0.8,0.9-2.5,3.7-6.5,31.9c-1.6,11.2-3.7,28.1-3.3,30.9c0.4,4.8,3.8,7.1,6,8.2c0,1.2-0.2,2.9,0.2,5c0.8,4.2,3.5,5.2,4.6,5.8
					c0.2,0,0.2,0,0.4,0.2c0,0,0,0,0,0.2c0.4,0.9-0.2,2.9-0.8,4.4c-0.5,2.3-1.3,4.6-0.8,6.9c0.8,3.7,3.5,4.8,5,5.4l0,0
					c-0.5,4.2-4.2,17.1-7.7,28.7l-0.9,3.5l3.5,0.9c2.7,0.8,26,6.9,32.9,6.9c0.9,0,1.6,0,2.1-0.4c3.5-1.2,3.7-5.6,3.7-10.4
					c0-4-0.4-9.2-0.8-14.5c-0.4-4.8-0.8-11.6-0.8-14.8c3.9,0.2,11,0.8,17.3,1.3c6.4,0.5,11.7,1.2,13.7,1.2c0.4,0,0.5,0,0.8,0
					c4.4-0.4,15-8.5,19-12.7c5.2-5.2,8.6-14.2,9.2-17.7c0.2-0.5,0.4-2.1,1.2-36c0.2-13.4,0.5-33.7,0.5-35.2
					c-0.2-2.3-1.9-4.6-3.3-6.1c0.2-1.9,0.4-5.2-0.9-8.2c-3.7-8.5-11.7-15.2-24-20c-6-2.3-12.9-4.2-19.8-5.4h-0.2
					C402.8,199,402.5,199,402.2,199L402.2,199z"/>
			</g>
		</g>
		<g>
			<g>
				<path fill="#FFFFFF" d="M350.5,298.8c-0.8,0.2,4.6-12.3,7.8-11.5C361.6,288.2,351.6,298.4,350.5,298.8z"/>
			</g>
			<g>
				<path fill="#FFFFFF" d="M350.6,291.9c-0.8,0.2,4.6-12.3,7.8-11.6C361.8,281.1,351.8,291.5,350.6,291.9"/>
			</g>
			<g>
				<path fill="#FFFFFF" d="M352.2,284.2c-0.8,0.2,4.6-12.3,7.8-11.5C363.1,273.6,353.1,283.8,352.2,284.2"/>
			</g>
			<g>
				<path fill="#FFFFFF" d="M352.7,276.7c-0.8,0.2,4.6-12.3,7.8-11.6C363.7,265.9,353.7,276.3,352.7,276.7"/>
			</g>
			<g>
				<path fill="#FFFFFF" d="M354.1,269c-0.8,0.2,4.6-12.3,7.8-11.6C365.1,258.4,355,268.6,354.1,269"/>
			</g>
			<g>
				<path fill="#FFFFFF" d="M355.7,261.3c-0.8,0.2,5-11.2,7.3-11C364.7,251.8,355.7,261.3,355.7,261.3z"/>
			</g>
			<g>
				<path fill="#FFFFFF" d="M356.8,254.4c-0.8,0.2,4.6-10.2,6.9-10C365.6,246.1,356.8,254.4,356.8,254.4z"/>
			</g>
			<g>
				<path fill="#FFFFFF" d="M357.9,247c-0.8,0.2,4.6-10.8,6.9-10.6C366.8,238.2,359.1,246.7,357.9,247"/>
			</g>
		</g>
		<g>
			<g>
				<path fill="#FFFFFF" d="M370.4,282.4c-0.9,0.8-0.8-3.1,0.2-3.7c0.9-0.8,16.2-11.2,27.5-9.8c11.2,1.3,38.6,12.9,42.4,19.4
					c3.7,6.5,0.2,5.2-0.8,4.8c-0.9-0.4-10-10.8-13.4-9.4c-3.5,1.3-2.3,1.3-3.8,0.2c-1.6-1.2-20.4-10.6-23.6-8.9
					c-0.8,2.1-0.4,4-1.9,3.9c-1.6-0.2,1.7-6-0.8-5.6C393.4,273.7,377,276.9,370.4,282.4z"/>
			</g>
			<g>
				<path fill="#FFFFFF" d="M371.2,273.7c-0.8,0.8,0.5-2.9,1.2-3.3c0.5-0.5,13.8-8.5,19.3-8.5c5.4,0,16.7,1.3,18.3,1.9
					c1.6,0.5,9.4,2.7,9.4,3.9c0,1.3,1.7,4.2-1.6,3.5c-3.3-0.7-16.2-5.8-17.7-5.6s-1.3,0.9-2.1,0.9c-0.8,0-0.9-2.3-1.9-2.1
					c-0.9,0.2-6.5,0.2-9.6,1.3C383.3,267.1,372.4,272.7,371.2,273.7z"/>
			</g>
			<g>
				<path fill="#FFFFFF" d="M423.4,274.9c-1.3-0.8-3.5-5.8-0.4-6.4c2.9-0.5,3.9,2.3,5.6,2.1c1.9,0.5,12.7,10,13.1,11.3
					s0.5,4.2-1.2,2.7c-1.7-1.5-0.8-3.5-1.7-3.5s-2.5,0.2-3.1-0.2c-0.5-0.4-7.5-6.1-8.9-6C425.5,275.3,423.9,275.3,423.4,274.9z"/>
			</g>
			<g>
				<path fill="#FFFFFF" d="M372.9,265.9c-0.8,0.8,0.5-2.9,1.2-3.5c0.5-0.5,13.8-8.5,19.3-8.5c5.4,0,16.7,1.3,18.3,1.9
					c1.6,0.5,8.2,2.9,8.2,4s1.3,3.8-1.9,3.1c-3.3-0.7-14.6-5.6-15.9-5.4c-1.6,0.2-2.1,1.2-2.7,1.3c-0.8,0-0.4-2.5-1.3-2.3
					c-0.9,0.2-6.5,0.2-9.6,1.3C385,259.1,374.1,264.7,372.9,265.9z"/>
			</g>
			<g>
				<path fill="#FFFFFF" d="M374.9,242.8c-0.8,0.8,0.5-2.9,1.2-3.5c0.5-0.5,13.3-7.5,17.5-8.1c4.4-0.5,16.2,0.4,20.2,2.3
					c1.6,0.5,6.9,3.1,7.5,4.2c0.5,0.9,0.4,3.3-0.8,3.1c-3.3-0.8-15.2-6.4-16.7-6.1c-1.6,0.2-2.3,2.3-3.1,2.3s-0.4-3.1-1.3-2.9
					c-0.9,0.2-7.3,0.2-10.6,1.2C385.8,236.7,375.8,241.6,374.9,242.8z"/>
			</g>
			<g>
				<path fill="#FFFFFF" d="M374.5,251.1c-0.4,0.5,0.8-3.1,1.3-3.5c0.5-0.4,11.9-7.3,15.2-7.8c3.3-0.5,14.2-0.4,16.2,0
					c1.9,0.5,12.7,3.7,12.3,5.2s-2.1,1.7-3.9,1.3c-1.7-0.4-11.7-4-13.3-3.8c-1.6,0.2-1.6,2.5-1.3,3.1c0.2,0.6,17.3,3.8,18.1,8.6
					c0.5,2.7-15.2-4.4-17.7-4c-1.2,0.5-1.3,1.7-1.6,2.1c-0.2,0.5,0-2.3-1.3-2.5c-1.3-0.2-8.2,0-11.6,1.3c-3.3,1.3-11.7,6.9-13.3,6.9
					c-1.3,0,0.5-3.1,0.5-3.1s12.3-7.3,14.1-7.7c1.8-0.4,10.8-0.9,11.2-1.3s0.8-3.5,0-3.5c-0.9,0-8.9,0.2-9.8,0.5
					C383.9,244.8,375.1,250.4,374.5,251.1z"/>
			</g>
			<g>
				<path fill="#FFFFFF" d="M376.6,236.3c-0.8,0.8,0.5-2.9,1.2-3.3c0.5-0.5,12.7-8.5,18.1-8.5c5.4,0,9.2-0.2,12.7,0.8
					c3.4,0.9,12.1,3.7,12.7,4.6c0.5,0.9,1.3,4.4,0.2,4.4c-3.3-0.8-14.5-6.1-15.9-6c-1.6,0.2-2.3,2.3-3.1,2.3c-0.8,0-0.4-3.1-1.3-2.9
					c-0.9,0.2-7.3,0.2-10.6,1.2C387.5,229.9,377.6,235,376.6,236.3z"/>
			</g>
			<g>
				<path fill="#FFFFFF" d="M377.2,229.5c-0.5,0,3.5-4.2,5.2-5.2c1.7-1.2,10-6.8,14.6-6.9c4.6-0.2,20.4,3.1,21.1,3.7
					c0.8,0.4,4.2,2.1,4.2,3.8c0.2,1.6,0.5,3.9-0.9,3.5s-17.5-5.8-18.9-5.2s-1.2,0.4-1.3-0.8c-0.2-1.2-0.5-2.5-2.3-2.3
					c-1.6,0.2-6.9,1.2-9,2.5C387.9,223.9,379.1,229.5,377.2,229.5z"/>
			</g>
			<g>
				<path fill="#FFFFFF" d="M427,267.2c-0.4-0.4-0.9-5.2,0.2-4.6c1.2,0.5,12.5,8.2,12.5,9.8c0,1.6,1.7,1.7,1.9,3.1
					c0.2,1.6,0,2.1-0.8,2.3c-0.8,0.2-1.7-1.6-2.1-2.5C438.1,274.4,427.9,268.2,427,267.2z"/>
			</g>
			<g>
				<path fill="#FFFFFF" d="M427.9,259.5c-0.2-0.5,1.9-2.9,3.5-2.1c1.3,0.9,9.8,8.1,10,8.9c0.2,0.8,0.5,4.8-0.4,4
					c-1.2-0.9-5-5.6-6.5-6.4C433.1,263.2,428.2,260.1,427.9,259.5z"/>
			</g>
			<g>
				<path fill="#FFFFFF" d="M428.7,248.2c0.4-0.5,11.6,8.6,11.7,9.6c0.2,0.9,0.4,1.7,1.6,2.9c1.2,1.2,0.5,2.7-0.8,2.1
					c-1.3-0.8-1.3-2.7-2.1-2.7c-0.5,0-7.8-6.1-8.5-7.3C429.9,251.7,428.6,248.8,428.7,248.2z"/>
			</g>
			<g>
				<path fill="#FFFFFF" d="M422.3,261.3c0,0,3.3,1.9,2.9,4c-0.4,1.9-0.5,3.1-1.6,1.3C422.7,264.7,421.8,262,422.3,261.3z"/>
			</g>
			<g>
				<path fill="#FFFFFF" d="M423.1,246.7c0.9-0.2,5.6,2.9,5.8,4.8c0.4,1.9-0.8,6.4-3.1,6.4c-2.1,0-6.1-4.2-5.8-6.1
					C420.5,250,422,247,423.1,246.7z"/>
			</g>
			<g>
				<path fill="#FFFFFF" d="M424.1,238c1.2-0.4,17.3,12.7,17.7,14.8c0.5,2.1,0.2,3.3-0.8,2.5c-0.9-0.8-9.9-9.8-12-9.8
					c-2.1-0.2-2.9,0.2-4.2-0.9C423.5,243.4,420.6,239,424.1,238z"/>
			</g>
			<g>
				<path fill="#FFFFFF" d="M423.1,235.1c-0.2-0.5-0.4-4,0.4-4.2c0.9-0.2,17.1,11.5,17.3,13.1c0.2,1.6,0.4,3.9,0,3.1
					c-0.5-0.9-9-8.2-10.6-8.5c-1.6-0.2-2.1,0.4-3.5-0.8C425.6,236.8,423.4,235.7,423.1,235.1z"/>
			</g>
			<g>
				<path fill="#FFFFFF" d="M441.6,240.9c0,0.4,0.4-2.9-0.2-3.5c-0.5-0.5-14.5-13.7-17.5-13.4c0,2.5-1.6,4-1.2,4.8
					c0.4,0.8,6.5,3.9,7.3,3.7c0.9,0,1.9-1.3,2.5-0.2C433.1,233.4,441.4,239.5,441.6,240.9z"/>
			</g>
		</g>
		<g>
			<g>
				<path fill="#FFFFFF" d="M419.7,326.9c0,0,15.2-6.8,17.3-14.2c2.1-7.5,4.6-7.7,3.5-11.6c-1.2-3.7-2.5-4-2.7-2.3
					c-0.4,1.6-1.6,11.7-7.3,17.7c-5.8,6.1-15,8.5-15.5,8.6C414,325.5,419.7,326.9,419.7,326.9z"/>
			</g>
			<g>
				<path fill="#FFFFFF" d="M410.2,323.3c0,0,19.4-5.8,21.9-15.4c2.7-9.4,2.9-12.3,2.9-12.3s-0.9-4.4-3.7-1.2s-4.8,12.5-6.1,15.4
					c-3.3,2.9-12.1,11.6-18.3,11.6C401.1,321.5,410.2,323.3,410.2,323.3z"/>
			</g>
			<g>
				<path fill="#FFFFFF" d="M401.1,321.7c0,0,22.9-12.3,25.2-20c2.3-7.7,3.9-9,2.5-10.4c-1.3-1.3-5.2-3.5-6,0
					c-0.9,3.5-2.5,11-9.2,16.7c-9.6,8.5-15.4,10.4-17.9,12.3C393,322.2,401.1,321.7,401.1,321.7z"/>
			</g>
			<g>
				<path fill="#FFFFFF" d="M391.2,319.9c0,0,19.8-11.6,21-13.4c1.2-1.9,5.6-6.5,6.9-10.4c1.3-3.9,3.1-7.5,1.6-8.9
					c-1.6-1.3-4.4-2.1-5.4,0c-0.9,2.1-2.7,11.5-6.9,15c-3.3,5.4-19.2,15-21.4,16.2C384.9,319.4,391.2,319.9,391.2,319.9z"/>
			</g>
			<g>
				<path fill="#FFFFFF" d="M381,317.8c0,0,22.5-13.1,24.4-16.9c1.9-3.9,6.1-11.6,4.6-16.3s-5.6-1.2-6-0.2
					c-0.4,1.2-1.6,11.7-8.5,17.3c-6.9,5.6-18.9,13.3-20.6,13.8C373.3,315.9,378.5,318,381,317.8z"/>
			</g>
			<g>
				<path fill="#FFFFFF" d="M369.5,315.3c0,0,17.9-10.4,20.8-14.2c2.9-3.9,9.6-13.8,9.2-16.7c-0.4-2.9-6.4-3.3-7.1-1.6
					c-0.8,1.7-2.3,8.9-3.7,10.4c-1.3,1.3-7.7,9.6-14.8,12.9c-6.9,3.3-12.3,5.6-12.1,6.9C362,314.2,369.1,315.6,369.5,315.3z"/>
			</g>
		</g>
	</g>
</g>
</svg>
