<?xml version="1.0" encoding="utf-8"?>
<!-- Generator: Adobe Illustrator 16.0.0, SVG Export Plug-In . SVG Version: 6.00 Build 0)  -->
<!DOCTYPE svg PUBLIC "-//W3C//DTD SVG 1.1//EN" "http://www.w3.org/Graphics/SVG/1.1/DTD/svg11.dtd">
<svg version="1.1" id="Layer_1" xmlns="http://www.w3.org/2000/svg" xmlns:xlink="http://www.w3.org/1999/xlink" x="0px" y="0px"
	 width="320px" height="200px" viewBox="0 0 320 200" enable-background="new 0 0 320 200" xml:space="preserve">
<g>
	<path fill="#A20B35" d="M259.536,70.186h-0.107H60.566h-0.109C41.6,70.186,35,79.366,35,90.688v1.896
		c0,11.327,5.569,20.511,25.457,20.511h0.109h198.862h0.107c18.854,0,25.464-9.184,25.464-20.511v-1.896
		C285,79.366,279.43,70.186,259.536,70.186z"/>
	<g>
		<path fill="#FDBD10" d="M49.56,83.304h-6.155v-2.467h14.971v2.467h-6.181v19.997H49.56V83.304z"/>
		<path fill="#FDBD10" d="M60.627,81.174c1.323-0.302,3.236-0.505,5.007-0.505c2.791,0,4.618,0.604,5.877,1.865
			c0.992,0.974,1.594,2.506,1.594,4.267c0,2.935-1.71,4.899-3.814,5.701v0.104c1.533,0.598,2.459,2.198,2.974,4.521
			c0.658,3.14,1.139,5.307,1.523,6.174h-2.7c-0.324-0.633-0.774-2.566-1.314-5.368c-0.598-3.103-1.712-4.271-4.078-4.362h-2.463
			v9.73h-2.604V81.174z M63.231,91.376h2.675c2.787,0,4.557-1.709,4.557-4.272c0-2.895-1.89-4.167-4.646-4.167
			c-1.256,0-2.135,0.133-2.585,0.268V91.376z"/>
		<path fill="#FDBD10" d="M84.743,103.667c-5.372,0-9.091-4.596-9.091-11.395c0-7.133,3.956-11.8,9.354-11.8
			c5.552,0,9.119,4.697,9.119,11.361c0,7.705-4.229,11.833-9.358,11.833H84.743z M84.854,101.297c4.143,0,6.479-4.225,6.479-9.327
			c0-4.463-2.1-9.133-6.449-9.133c-4.349,0-6.504,4.502-6.504,9.366c0,4.731,2.336,9.095,6.447,9.095H84.854z"/>
		<path fill="#FDBD10" d="M101.626,80.837h2.636v15.032c0,5.963-2.636,7.798-6.115,7.798c-0.986,0-2.159-0.232-2.792-0.532
			l0.363-2.362c0.537,0.225,1.32,0.428,2.216,0.428c2.342,0,3.692-1.167,3.692-5.566V80.837z"/>
		<path fill="#FDBD10" d="M111.88,96.233l-2.095,7.067h-2.702l6.869-22.464h3.151l6.891,22.464h-2.783l-2.159-7.067H111.88z
			 M118.515,93.969l-2.013-6.462c-0.415-1.468-0.719-2.805-1.021-4.099h-0.091c-0.269,1.294-0.598,2.697-0.986,4.061l-1.979,6.5
			H118.515z"/>
		<path fill="#FDBD10" d="M126.976,103.301V80.837h2.879l6.444,11.365c1.463,2.628,2.67,4.965,3.597,7.298l0.095-0.03
			c-0.243-3.005-0.302-5.731-0.302-9.202v-9.431h2.457v22.464h-2.64l-6.415-11.397c-1.41-2.5-2.765-5.067-3.751-7.501l-0.092,0.03
			c0.152,2.84,0.187,5.533,0.187,9.267v9.602H126.976z"/>
	</g>
	<g>
		<rect x="222.9" y="79.958" fill="#FDBD10" width="7.95" height="23.343"/>
		<polygon fill="#FDBD10" points="275.174,85.771 275.174,79.958 264.961,79.958 260.304,79.958 257.009,79.958 257.009,103.301 
			260.304,103.301 264.961,103.301 275.174,103.301 275.174,97.497 264.961,97.497 264.961,94.497 274.399,94.497 274.399,89.025 
			264.961,89.025 264.961,85.771 		"/>
		<path fill="#FDBD10" d="M241.752,79.958c-6.5,0-8.075,0-8.075,0v23.343c0,0,7.389,0,9.612,0c2.225,0,11.799,0.766,11.799-11.028
			S248.25,79.958,241.752,79.958z M244.104,97.497c-0.918,0.107-2.61,0-2.61,0V85.771c1.883,0,5.216-1.069,5.216,5.985
			C246.709,96.327,245.627,97.314,244.104,97.497z"/>
		<path fill="#FDBD10" d="M215.979,92.272c2.692-0.771,4.359-2.177,4.489-6.155c0.125-3.973-3.342-6.16-8.597-6.16
			c-5.263,0-11.668,0-11.668,0v23.343h7.695v-7.697c0,0,3.973-1.795,4.489,3.078c0.129,1.926,0.129,4.354,0.636,4.619
			c1.795,0,8.084,0,8.084,0s-0.389-2.057-0.903-4.87C219.692,95.604,218.797,92.786,215.979,92.272z M209.305,90.156
			c-1.021,0-1.791,0-1.791,0v-4.401c1.601,0,5.146-0.599,5.146,2.149C212.677,90.173,210.336,90.156,209.305,90.156z"/>
		<path fill="#FDBD10" d="M189.179,79.958c-2.825,0-12.062,0-12.062,0v23.343h8.212v-6.796c0,0,11.927,2.177,12.698-6.8
			C198.792,80.738,191.996,79.958,189.179,79.958z M186.829,91.202c-1.029,0-1.801,0-1.801,0v-5.447
			c1.598,0,5.151-0.599,5.151,2.668C190.196,91.232,187.854,91.202,186.829,91.202z"/>
	</g>
	<g>
		<g>
			<path fill-rule="evenodd" clip-rule="evenodd" fill="#FDBD10" d="M154.278,96.436c-0.091,0.752-0.044,1.433,0,2.112
				c0.051,0.795-0.026,1.593-0.373,2.341c-0.229,0.485-0.589,0.866-1.004,1.203c-0.697,0.568-1.489,0.883-2.411,0.845
				c-0.395-0.013-0.783-0.086-1.134-0.256c-0.277-0.12-0.498-0.354-0.697-0.584c-0.259-0.289-0.479-0.597-0.559-0.99
				c-0.024-0.151-0.142-0.248-0.255-0.334c-1.056-0.768-1.394-1.835-1.285-3.082c0.013-0.116,0.03-0.224,0.047-0.343
				c0.01-0.142-0.004-0.298-0.095-0.422c-0.363-0.49-0.477-1.057-0.488-1.65c-0.026-0.645,0.043-1.276,0.241-1.888
				c0.048-0.177,0.014-0.351-0.024-0.519c-0.235-0.817-0.17-1.619,0.15-2.393c0.035-0.1,0.078-0.2,0.135-0.279
				c0.181-0.262,0.251-0.552,0.203-0.852c-0.13-0.857,0.144-1.606,0.575-2.325c0.13-0.221,0.277-0.428,0.441-0.618
				c0.039-0.053,0.079-0.108,0.134-0.13c0.243-0.117,0.286-0.328,0.312-0.563c0.105-1.195,0.671-2.108,1.732-2.662
				c0.319-0.164,0.515-0.36,0.605-0.697c0.151-0.528,0.498-0.948,0.887-1.316c0.343-0.328,0.728-0.61,1.143-0.822
				c0.083-0.039,0.16-0.077,0.256-0.099c0.19-0.031,0.325-0.146,0.451-0.298c0.77-0.974,1.739-1.576,3.008-1.537
				c0.328,0.008,0.541-0.047,0.8-0.251c0.982-0.787,2.125-0.996,3.347-0.745c0.047,0.005,0.085,0.005,0.111,0.044
				c0.183,0.19,0.39,0.16,0.59,0.044c0.515-0.287,1.063-0.451,1.635-0.511c0.813-0.079,1.571,0.042,2.238,0.562
				c0.225,0.173,0.484,0.173,0.757,0.079c0.632-0.212,1.276-0.303,1.938-0.204c1.088,0.168,1.896,0.748,2.368,1.75
				c0.083,0.173,0.16,0.203,0.338,0.133c0.26-0.094,0.537-0.086,0.805-0.094c0.545-0.022,1.082,0.039,1.602,0.223
				c1.151,0.425,1.878,1.446,1.904,2.586c0.03,1.526-0.84,2.773-2.554,3.021c-0.477,0.069-0.952-0.022-1.429-0.043
				c-0.241-0.005-0.492-0.036-0.739-0.044c-0.567-0.008-1.017,0.212-1.363,0.67c-0.212,0.287-0.425,0.571-0.605,0.875
				c-0.087,0.156-0.074,0.346,0.047,0.476c0.464,0.467,0.905,0.952,1.303,1.475c0.021,0.031,0.061,0.061,0.095,0.069
				c0.438,0.204,0.671,0.563,0.671,1.022c-0.004,0.515,0.161,0.978,0.247,1.462c0.083,0.411,0.164,0.822,0.234,1.229
				c0.024,0.144,0.064,0.26,0.138,0.367c0.035,0.044,0.065,0.097,0.083,0.144c0.241,0.536,0.047,0.943-0.516,1.1
				c-0.052,0.013-0.096,0.026-0.15,0.03c-0.537,0.104-0.758,0.614-0.43,1.047c0.502,0.671,0.805,1.44,1.199,2.169
				c0.073,0.125,0.138,0.252,0.198,0.376c0.096,0.19,0.096,0.381-0.012,0.568c-0.065,0.102-0.122,0.201-0.179,0.307
				c-0.111,0.234-0.281,0.38-0.545,0.441c-0.19,0.038-0.269,0.155-0.212,0.319c0.134,0.364,0.087,0.728,0.021,1.088
				c-0.042,0.211,0.009,0.394,0.134,0.553c0.035,0.049,0.087,0.079,0.035,0.148c-0.298,0.466-0.152,0.903,0.121,1.311
				c0.168,0.251,0.277,0.511,0.239,0.813c-0.062,0.484-0.567,0.975-1.054,1.021c-0.275,0.026-0.545,0.061-0.804,0.144
				c-0.19,0.061-0.373,0.146-0.528,0.284c-0.226,0.204-0.484,0.33-0.809,0.257c-0.2-0.044-0.407-0.014-0.602,0.055
				c-0.118,0.049-0.235,0.097-0.36,0.105c-0.42,0.012-0.722,0.272-1.038,0.496c-0.208,0.139-0.217,0.387-0.238,0.61
				c-0.03,0.196-0.026,0.395,0.013,0.593c0.03,0.174-0.013,0.209-0.186,0.13c-0.429-0.193-0.827-0.458-1.247-0.679
				c-0.96-0.527-1.926-1.052-2.939-1.479c-0.492-0.204-1.003-0.352-1.531-0.455c-0.83-0.155-1.598,0.086-2.289,0.558
				c-0.087,0.061-0.17,0.083-0.273,0.066c-0.484-0.061-0.966-0.109-1.432-0.265c-0.511-0.174-0.741-0.648-0.537-1.151
				c0.537-1.316,0.965-2.666,1.463-3.981c0.107-0.273,0.087-0.486-0.035-0.74c-0.425-0.909-0.826-1.835-1.064-2.813
				c-0.043-0.178-0.061-0.368-0.1-0.545c-0.039-0.218-0.156-0.251-0.333-0.1c-0.204,0.177-0.315,0.411-0.382,0.663
				C154.347,95.941,154.286,96.224,154.278,96.436z"/>
			<path fill-rule="evenodd" clip-rule="evenodd" fill="#A20B35" d="M164.007,85.71c2.125,0.246,3.614,1.108,4.795,2.528
				c0.079,0.091,0.113,0.203,0.122,0.324c0.009,0.13-0.047,0.172-0.165,0.104c-0.081-0.061-0.172-0.129-0.242-0.203
				c-1.025-1.031-2.255-1.744-3.592-2.287c-0.022-0.008-0.043-0.017-0.061-0.021c-0.077-0.01-0.179-0.026-0.209,0.051
				c-0.034,0.088,0.07,0.109,0.126,0.143c1.139,0.723,2.131,1.615,2.923,2.714c0.134,0.186,0.111,0.221-0.113,0.376
				c-0.602,0.397-1.199,0.809-1.805,1.207c-0.701,0.484-1.416,0.962-2.107,1.467c-0.277,0.196-0.585,0.252-0.927,0.252
				c-0.633-0.017-1.255,0.068-1.848,0.312c-0.434,0.182-0.78,0.775-0.735,1.247c0.012,0.221-0.03,0.384-0.226,0.527
				c-0.195,0.121-0.352,0.304-0.468,0.511c-0.151,0.269-0.061,0.493,0.237,0.597c0.152,0.053,0.316,0.043,0.464,0.013
				c0.458-0.1,0.926-0.13,1.376-0.233c0.195-0.048,0.321,0.04,0.391,0.264c0.172,0.585,0.346,1.173,0.506,1.758
				c0.069,0.243,0.169,0.477,0.143,0.74c-0.013,0.108-0.043,0.135-0.156,0.144c-1.177,0.077-2.372,0.176-3.557,0.242
				c-0.59,0.03-1.104-0.204-1.568-0.562c-0.596-0.458-0.973-1.078-1.258-1.767c-0.14-0.342-0.251-0.701-0.343-1.065
				c-0.014-0.032-0.021-0.081-0.021-0.115c0-0.053-0.013-0.13,0.034-0.152c0.074-0.038,0.083,0.047,0.117,0.086
				c0.528,0.538,1.078,1.062,1.731,1.46c0.1,0.061,0.233,0.172,0.337,0.064c0.1-0.095-0.012-0.23-0.068-0.338
				c-0.39-0.709-0.688-1.467-0.801-2.271c-0.087-0.585-0.053-1.156,0.217-1.702c0.298-0.622,0.938-0.925,1.604-0.744
				c0.136,0.035,0.23,0.117,0.351,0.17c0.304,0.116,0.598,0.15,0.879-0.053c0.528-0.372,0.528-0.978-0.017-1.381
				c-0.455-0.324-0.979-0.49-1.523-0.583c-0.061-0.005-0.161,0.025-0.17-0.061c-0.012-0.077,0.075-0.104,0.126-0.143
				c0.507-0.298,1.463-0.363,2.116,0.35c0.339,0.356,0.55,0.792,0.688,1.256c0.039,0.13-0.008,0.265,0.013,0.385
				c0.019,0.112,0.014,0.233,0.13,0.291c0.117,0.039,0.208-0.04,0.285-0.113c0.758-0.7,1.649-1.221,2.512-1.766
				c0.146-0.095,0.294-0.168,0.462-0.212c0.239-0.073,0.3-0.251,0.17-0.484c-0.165-0.272-0.391-0.498-0.619-0.719
				c-0.869-0.847-1.874-1.436-3.077-1.653c-0.39-0.077-0.775-0.095-1.152-0.077c-0.09,0.008-0.177,0.051-0.268,0.077
				c-0.026,0.004-0.057,0.017-0.073-0.008c-0.014-0.039,0-0.061,0.017-0.087c0.074-0.091,0.156-0.156,0.27-0.203
				C161.367,85.818,162.804,85.585,164.007,85.71z"/>
			<path fill-rule="evenodd" clip-rule="evenodd" fill="#A20B35" d="M165.729,95.869c-0.005,0.055-0.013,0.164-0.013,0.275
				c0,0.03,0,0.07,0.039,0.089c0.034,0.002,0.064-0.019,0.091-0.036c0.113-0.124,0.194-0.273,0.277-0.411
				c0.134-0.221,0.289-0.424,0.498-0.575c0.051-0.043,0.12-0.087,0.185-0.112c0.113-0.048,0.239-0.038,0.33,0.056
				c0.087,0.091,0.087,0.204,0.047,0.319c-0.051,0.14-0.15,0.239-0.246,0.343c-0.048,0.053-0.082,0.087-0.018,0.156
				c0.061,0.056,0.095,0.048,0.156,0c0.186-0.179,0.406-0.233,0.658-0.187c0.229,0.038,0.449,0.061,0.675,0.117
				c0.194,0.051,0.246-0.01,0.289-0.194c0.079-0.29,0.234-0.52,0.441-0.728c0.1-0.101,0.221-0.048,0.324,0.03
				c0.17,0.143,0.282,0.32,0.381,0.515c0.166,0.29,0.296,0.602,0.464,0.888c0.174,0.285,0.368,0.562,0.484,0.879
				c0.087,0.237,0.026,0.479-0.051,0.705c-0.035,0.111-0.13,0.169-0.239,0.2c-0.411,0.107-0.83,0.162-1.254,0.192
				c-0.221,0.022-0.391-0.129-0.421-0.351c-0.008-0.115-0.055-0.146-0.16-0.072c-0.181,0.125-0.172,0.393,0.03,0.493
				c0.234,0.126,0.472,0.26,0.728,0.339c0.125,0.047,0.247,0.094,0.346,0.185c0.247,0.227,0.222,0.524-0.068,0.706
				c-0.29,0.19-0.614,0.246-0.944,0.294c-0.087,0.005-0.117-0.048-0.138-0.125c-0.038-0.126-0.121-0.139-0.204-0.039
				c-0.134,0.194-0.156,0.42-0.194,0.632c-0.013,0.056,0.038,0.107,0.095,0.116c0.057,0.036,0.065-0.03,0.096-0.069
				c0.155-0.221,0.354-0.336,0.636-0.298c0.152,0.017,0.304-0.014,0.455-0.069c0.246-0.068,0.523,0.186,0.48,0.437
				c-0.018,0.087-0.053,0.157-0.13,0.178c-0.135,0.035-0.135,0.091-0.078,0.2c0.087,0.177-0.017,0.358-0.017,0.544
				c0,0.17,0.038,0.265,0.194,0.351c0.415,0.242,0.522,0.84,0.243,1.225c-0.291,0.399-0.685,0.585-1.169,0.585
				c-0.14,0-0.281,0-0.425-0.005c-0.164-0.009-0.277-0.094-0.333-0.251c-0.277-0.774-0.653-1.506-0.936-2.271
				c-0.233-0.636-0.358-1.303-0.186-1.974c0.044-0.182,0.009-0.259-0.139-0.364c-0.628-0.463-1.229-0.956-1.766-1.531
				c-0.173-0.196-0.303-0.407-0.434-0.628c-0.051-0.095-0.043-0.19,0.026-0.273c0.204-0.225,0.364-0.483,0.555-0.73l0.008-0.009
				c0.078-0.104,0.173-0.251,0.312-0.194c0.142,0.061,0.047,0.215,0.043,0.332C165.751,95.777,165.747,95.8,165.729,95.869z"/>
			<path fill-rule="evenodd" clip-rule="evenodd" fill="#A20B35" d="M170.378,84.361c-0.316-0.022-0.622-0.044-0.935-0.058
				c-0.135-0.008-0.204-0.047-0.113-0.185c0.026-0.036,0.019-0.069,0.014-0.109c-0.048-0.203-0.048-0.399,0.056-0.58
				c0.03-0.061,0.018-0.101-0.024-0.139c-0.132-0.142-0.122-0.221,0.034-0.32c0.024-0.017,0.069-0.025,0.069-0.069
				c0-0.043-0.053-0.043-0.092-0.065c-0.061-0.021-0.174,0.022-0.186-0.069c-0.022-0.095,0-0.195,0.052-0.272
				c0.091-0.127,0.004-0.127-0.074-0.127c-0.09,0.008-0.181,0.03-0.268,0.039c-0.061,0-0.13,0.005-0.16-0.069
				c-0.03-0.063,0.004-0.116,0.043-0.172c0.03-0.051,0.144-0.087,0.087-0.17c-0.053-0.055-0.147,0-0.226,0.014
				c-0.078,0.022-0.168,0.135-0.242,0.039c-0.061-0.085,0.008-0.185,0.074-0.255c0.021-0.039,0.069-0.073,0.029-0.118
				c-0.029-0.039-0.077-0.03-0.116-0.024c-0.109,0.03-0.213,0.069-0.324,0.104c-0.061,0.012-0.121,0.051-0.166-0.013
				c-0.038-0.052,0-0.097,0.031-0.139c0.025-0.039,0.068-0.073,0.03-0.118c-0.03-0.042-0.086-0.012-0.126,0
				c-0.146,0.044-0.285,0.118-0.415,0.196c-0.039,0.025-0.077,0.061-0.117,0.025c-0.047-0.047-0.009-0.086,0.01-0.125
				c0.081-0.196,0.237-0.338,0.381-0.477c0.826-0.831,1.786-1.427,2.947-1.653c0.994-0.203,1.922-0.008,2.73,0.616
				c0.581,0.454,0.87,1.068,0.853,1.827c-0.013,0.414-0.061,0.833-0.243,1.22c-0.341,0.745-0.952,1.121-1.726,1.289
				c-0.524,0.113-1.044,0.127-1.572,0.018c-0.104-0.03-0.211-0.03-0.315-0.048C170.378,84.372,170.378,84.37,170.378,84.361z"/>
			<path fill-rule="evenodd" clip-rule="evenodd" fill="#A20B35" d="M154.282,94.301c-0.064-0.146-0.069-0.289-0.083-0.428
				c-0.178-1.903,0.104-3.739,1.078-5.397c1.701-2.87,4.233-4.406,7.587-4.501c1.584-0.052,3.051,0.407,4.459,1.126
				c0.134,0.069,0.263,0.142,0.396,0.215c0.213,0.122,0.256,0.308,0.148,0.52c-0.077,0.148-0.144,0.282-0.221,0.419
				c-0.104,0.17-0.195,0.178-0.359,0.082c-0.372-0.219-0.767-0.351-1.164-0.48c-1.316-0.444-2.666-0.648-4.047-0.505
				c-1.527,0.165-2.883,0.748-4.047,1.739c-1.554,1.333-2.484,3.022-2.896,5.013c-0.108,0.502-0.17,1.021-0.204,1.527
				c-0.008,0.1-0.038,0.174-0.121,0.234C154.633,94.008,154.463,94.155,154.282,94.301z"/>
			<path fill-rule="evenodd" clip-rule="evenodd" fill="#A20B35" d="M160.173,101.668c0.117-0.178,0.16-0.371,0.225-0.554
				c0.243-0.739,0.484-1.476,0.728-2.213c0.047-0.138,0.125-0.211,0.285-0.211c0.347,0,0.701-0.018,1.052-0.026
				c0.265-0.017,0.338,0.039,0.415,0.298c0.109,0.312,0.217,0.624,0.326,0.944c0.051,0.157,0.085,0.317,0.059,0.485
				c-0.008,0.073-0.024,0.154-0.068,0.203c-0.52,0.636-0.999,1.307-1.61,1.861c-0.203,0.19-0.441,0.315-0.671,0.464
				c-0.177,0.115-0.397,0.055-0.593-0.009c-0.671-0.204-1.35-0.348-2.047-0.391c-0.061-0.008-0.121-0.008-0.19,0
				c-0.221,0.03-0.277-0.038-0.217-0.255c0.143-0.458,0.29-0.918,0.424-1.377c0.183-0.61,0.391-1.198,0.541-1.808
				c0.026-0.144,0.113-0.213,0.273-0.221c0.419-0.03,0.845-0.061,1.272-0.022c0.225,0.022,0.269,0.063,0.225,0.29
				c-0.138,0.709-0.276,1.424-0.411,2.129C160.173,101.396,160.143,101.528,160.173,101.668z"/>
			<path fill-rule="evenodd" clip-rule="evenodd" fill="#A20B35" d="M165.457,79.551c-0.217,0.157-0.364,0.312-0.498,0.49
				c-0.052,0.065-0.099,0.181-0.186,0.142c-0.082-0.03-0.013-0.146-0.009-0.233c0.004-0.026,0.013-0.048,0.013-0.079
				c0.01-0.069,0.091-0.154,0.021-0.203c-0.061-0.043-0.104,0.065-0.151,0.104c-0.069,0.052-0.104,0.03-0.173-0.025
				c-0.204-0.135-0.099-0.265-0.014-0.408c0.156-0.246,0.304-0.497,0.455-0.734c0.069-0.119,0.16-0.208,0.26-0.299
				c0.575-0.52,1.272-0.672,2.025-0.667c0.614,0,1.191,0.116,1.714,0.466c0.298,0.2,0.519,0.469,0.701,0.767
				c0.151,0.243,0.104,0.454-0.121,0.616c-0.805,0.553-1.605,1.115-2.411,1.678c-0.081,0.048-0.385,0-0.438-0.073
				c-0.034-0.057,0.006-0.104,0.026-0.147c0.069-0.168,0.187-0.307,0.33-0.48c-0.179,0.039-0.261,0.138-0.364,0.205
				c-0.047,0.022-0.087,0.085-0.134,0.042c-0.057-0.042,0-0.091,0.021-0.139c0.047-0.116,0.15-0.215,0.173-0.371
				c-0.096-0.018-0.138,0.051-0.194,0.095c-0.156,0.121-0.312,0.255-0.473,0.381c-0.034,0.03-0.082,0.077-0.134,0.03
				c-0.034-0.039-0.004-0.083,0.017-0.125c0.092-0.182,0.209-0.351,0.316-0.523c0.044-0.061,0.1-0.119,0.109-0.235
				c-0.187,0.095-0.309,0.237-0.446,0.354c-0.057,0.053-0.113,0.16-0.182,0.109c-0.069-0.048,0.017-0.144,0.038-0.213
				c0.022-0.077,0.134-0.166,0.061-0.216c-0.061-0.057-0.138,0.061-0.198,0.117c-0.091,0.073-0.174,0.16-0.26,0.237
				c-0.04,0.039-0.082,0.113-0.135,0.075c-0.073-0.036-0.021-0.109-0.004-0.166c0.018-0.104,0.068-0.19,0.117-0.282
				C165.389,79.772,165.439,79.699,165.457,79.551z"/>
			<path fill-rule="evenodd" clip-rule="evenodd" fill="#A20B35" d="M150.132,99.094c-0.036,0.249-0.227,0.459-0.257,0.743
				c0.14-0.073,0.209-0.182,0.296-0.273c0.042-0.041,0.104-0.111,0.164-0.077c0.057,0.036,0.012,0.117-0.019,0.169
				c-0.055,0.108-0.03,0.151,0.096,0.151c0.108-0.008,0.131,0.053,0.117,0.151c-0.022,0.144,0.044,0.205,0.178,0.205
				c0.112,0.008,0.217,0.111,0.343,0.017c0.042-0.031,0.107,0.03,0.138,0.077c0.026,0.048,0.053,0.097,0.083,0.147
				c0.021,0.048,0.034,0.104,0.099,0.095c0.052,0,0.062-0.055,0.078-0.095c0.038-0.09,0.082-0.173,0.125-0.264
				c0.014-0.026,0.039-0.064,0.079-0.057c0.047,0.01,0.042,0.057,0.042,0.096c0,0.077-0.012,0.159-0.012,0.234
				c0.004,0.138,0.073,0.172,0.185,0.094c0.048-0.03,0.091-0.063,0.126-0.112c0.07-0.07,0.112-0.108,0.208-0.021
				c0.087,0.09,0.168,0.069,0.182-0.07c0.017-0.117,0.108-0.173,0.187-0.221c0.082-0.061,0.143-0.043,0.199,0.043
				c0.117,0.17,0.212,0.178,0.351,0.021c0.104-0.125,0.178-0.268,0.237-0.425c0.021-0.047,0.04-0.146,0.108-0.12
				c0.065,0.013,0.065,0.1,0.065,0.16c-0.022,0.226-0.073,0.446-0.144,0.667c-0.268,0.826-0.778,1.462-1.554,1.865
				c-0.307,0.16-0.653,0.177-0.991,0.194c-0.666,0.03-1.286-0.117-1.782-0.598c-0.2-0.198-0.334-0.428-0.425-0.692
				c-0.086-0.213-0.052-0.419,0.104-0.596c0.394-0.473,0.796-0.928,1.203-1.394C149.98,99.158,150.027,99.094,150.132,99.094z"/>
			<path fill-rule="evenodd" clip-rule="evenodd" fill="#A20B35" d="M162.064,93.357c-0.247-0.051-0.481-0.047-0.697,0.079
				c-0.174,0.095-0.291,0.241-0.269,0.453c0.018,0.179,0.156,0.32,0.368,0.373c0.281,0.077,0.549,0.047,0.826,0
				c2.575-0.507,5.151-1.008,7.722-1.527c0.152-0.026,0.29-0.013,0.42,0.078c0.138,0.1,0.147,0.224,0.042,0.351
				c-0.115,0.124-0.279,0.193-0.436,0.251c-0.434,0.177-0.901,0.212-1.354,0.293c-2.338,0.417-4.671,0.822-6.999,1.233
				c-0.19,0.036-0.391,0.097-0.581-0.017c-0.362-0.234-0.526-0.575-0.549-0.982c-0.008-0.389,0.16-0.701,0.511-0.896
				c0.438-0.25,0.922-0.311,1.415-0.303c0.272,0,0.477,0.19,0.523,0.446c0.07,0.325-0.047,0.589-0.341,0.723
				c-0.3,0.13-0.619,0.156-0.948,0.156c-0.104,0-0.204-0.039-0.234-0.164c-0.034-0.126,0.022-0.213,0.126-0.282
				C161.748,93.515,161.913,93.454,162.064,93.357z"/>
			<path fill-rule="evenodd" clip-rule="evenodd" fill="#A20B35" d="M155.234,82.292c-0.1-0.069-0.121-0.177-0.187-0.243
				c-0.026-0.022-0.043-0.052-0.083-0.052c-0.051,0.005-0.055,0.052-0.055,0.091c-0.022,0.117,0,0.234,0.008,0.35
				c0.005,0.069,0.021,0.135-0.008,0.213c-0.07-0.035-0.079-0.1-0.104-0.152c-0.043-0.1-0.078-0.207-0.122-0.312
				c-0.017-0.042-0.03-0.102-0.09-0.091c-0.044,0.019-0.035,0.07-0.04,0.104c-0.021,0.19,0.022,0.373,0.04,0.558
				c0.009,0.101,0.017,0.196,0.021,0.291c0.004,0.043,0.014,0.109-0.035,0.117c-0.061,0.013-0.081-0.052-0.095-0.096
				c-0.053-0.155-0.107-0.302-0.152-0.454c-0.168-0.545-0.324-1.091-0.436-1.653c-0.166-0.81,0.185-1.498,0.934-1.839
				c0.252-0.113,0.511-0.205,0.754-0.308c0.332-0.129,0.666-0.099,0.979,0.048c0.251,0.122,0.397,0.324,0.389,0.624
				c-0.004,0.201-0.013,0.414-0.026,0.626c-0.012,0.407-0.104,0.818-0.104,1.233c0,0.044,0.013,0.117-0.057,0.117
				c-0.057,0-0.068-0.052-0.073-0.095c-0.018-0.125-0.042-0.304-0.164-0.308c-0.087,0-0.052,0.2-0.087,0.294
				c-0.03,0.061-0.012,0.129,0,0.204c0.017,0.1,0.039,0.207,0.043,0.312c0.01,0.083,0.049,0.212-0.051,0.224
				c-0.126,0.019-0.117-0.13-0.13-0.215c-0.022-0.205,0.047-0.425-0.044-0.618c-0.03-0.075-0.035-0.2-0.122-0.196
				c-0.099,0.008-0.064,0.144-0.081,0.217c-0.018,0.073-0.018,0.142-0.026,0.221c-0.004,0.04-0.008,0.1-0.068,0.109
				c-0.049,0.008-0.065-0.048-0.083-0.088c-0.026-0.06-0.047-0.12-0.077-0.168c-0.019-0.039-0.053-0.063-0.105-0.055
				c-0.034,0.008-0.03,0.055-0.034,0.091c-0.021,0.168-0.039,0.337-0.056,0.502c-0.005,0.039,0.005,0.094-0.044,0.102
				c-0.047,0.005-0.061-0.042-0.081-0.072c-0.049-0.07-0.079-0.196-0.166-0.179c-0.107,0.04-0.055,0.169-0.064,0.256
				C155.238,82.087,155.281,82.187,155.234,82.292z"/>
			<path fill-rule="evenodd" clip-rule="evenodd" fill="#A20B35" d="M160.432,80.231c-0.077-0.156-0.056-0.299-0.03-0.454
				c0.104-0.508,0.282-1,0.524-1.46c0.268-0.502,0.748-0.735,1.264-0.916c0.771-0.279,1.54-0.287,2.294,0.085
				c0.155,0.083,0.294,0.19,0.407,0.329c0.117,0.144,0.104,0.256,0,0.408c-0.399,0.602-0.792,1.203-1.178,1.813
				c-0.078,0.108-0.155,0.215-0.265,0.312c-0.021,0.012-0.055,0.043-0.091,0.03c-0.043-0.022-0.039-0.069-0.029-0.105
				c0.021-0.199,0.104-0.373,0.177-0.549c0.018-0.036,0.057-0.087,0.004-0.122c-0.043-0.022-0.081,0.022-0.099,0.052
				c-0.065,0.063-0.118,0.138-0.177,0.203c-0.036,0.042-0.066,0.122-0.126,0.099c-0.061-0.026-0.021-0.099-0.01-0.156
				c0.035-0.124,0.061-0.264,0.14-0.375c0.017-0.03,0.047-0.061,0.017-0.091c-0.03-0.048-0.065-0.018-0.104,0
				c-0.083,0.033-0.147,0.091-0.217,0.16c-0.038,0.017-0.077,0.063-0.125,0.033c-0.057-0.03-0.039-0.085-0.035-0.132
				c0.009-0.03,0.019-0.061,0.026-0.099c0.004-0.048,0.081-0.105,0.017-0.144c-0.061-0.039-0.116,0.017-0.173,0.039
				c-0.004,0.008-0.004,0.008-0.004,0.017c-0.069,0.044-0.095,0.169-0.178,0.147c-0.1-0.021-0.03-0.138-0.061-0.203
				c-0.043-0.091-0.096-0.077-0.146-0.03c-0.096,0.064-0.14,0.164-0.187,0.263c-0.018,0.035-0.044,0.095-0.095,0.087
				c-0.057-0.008-0.045-0.077-0.053-0.117c-0.013-0.069,0.008-0.168-0.077-0.186c-0.091-0.017-0.14,0.069-0.183,0.135
				c-0.044,0.073-0.073,0.146-0.112,0.207c-0.013,0.03-0.035,0.069-0.069,0.069c-0.047,0-0.047-0.053-0.061-0.085
				c-0.009-0.022-0.009-0.053-0.009-0.069c0-0.061,0.026-0.157-0.057-0.174c-0.064-0.014-0.107,0.073-0.138,0.134
				c-0.079,0.142-0.151,0.292-0.229,0.429c-0.025,0.047-0.052,0.125-0.117,0.108c-0.078-0.022-0.048-0.1-0.048-0.168
				c0-0.047,0.01-0.097,0.01-0.144c0-0.043,0.008-0.091-0.04-0.113c-0.047-0.011-0.065,0.03-0.086,0.07
				c-0.078,0.1-0.144,0.217-0.178,0.341C160.501,80.019,160.467,80.128,160.432,80.231z"/>
			<path fill-rule="evenodd" clip-rule="evenodd" fill="#A20B35" d="M153.771,82.876c0.047,0.207,0.1,0.389,0.134,0.58
				c0.021,0.061,0.035,0.116,0.035,0.185c0.004,0.061,0.042,0.148-0.035,0.174c-0.064,0.022-0.099-0.065-0.129-0.116
				c-0.105-0.19-0.209-0.391-0.316-0.581c-0.01,0.165,0.047,0.302,0.091,0.438c0.013,0.078,0.047,0.144,0.065,0.212
				c0.017,0.061,0.055,0.134-0.015,0.177c-0.061,0.039-0.107-0.022-0.159-0.061c-0.108-0.055-0.16-0.152-0.213-0.251
				c-0.034-0.069-0.073-0.125-0.124-0.185c0.004,0.211,0.081,0.397,0.142,0.592c0.03,0.079,0.113,0.195,0.035,0.247
				c-0.096,0.052-0.156-0.087-0.217-0.152c-0.126-0.134-0.19-0.316-0.377-0.463c0.04,0.23,0.117,0.39,0.196,0.555
				c0.043,0.095,0.09,0.186,0.134,0.281c0.013,0.03,0.034,0.065-0.004,0.095c-0.03,0.021-0.065-0.01-0.092-0.03
				c-0.144-0.095-0.247-0.23-0.364-0.351c-0.051-0.057-0.115-0.112-0.186-0.182c-0.017,0.14,0.061,0.212,0.101,0.299
				c0.073,0.146,0.177,0.276,0.229,0.434c0.009,0.039,0.035,0.085,0,0.112c-0.044,0.042-0.083,0-0.121-0.013
				c-0.107-0.066-0.199-0.152-0.281-0.239c-0.386-0.381-0.731-0.784-1.078-1.195c-0.187-0.217-0.225-0.484-0.202-0.766
				c0.047-0.45,0.259-0.809,0.587-1.112c0.33-0.308,0.693-0.563,1.082-0.792c0.156-0.087,0.33-0.13,0.507-0.138
				c0.225,0,0.381,0.125,0.406,0.337c0.057,0.585,0.239,1.129,0.377,1.691C154.044,82.901,154.039,82.915,153.771,82.876z"/>
			<path fill-rule="evenodd" clip-rule="evenodd" fill="#A20B35" d="M150.537,86.221c0.148,0.265,0.421,0.356,0.646,0.563
				c-0.316,0.004-0.533-0.221-0.818-0.16c-0.004,0.069,0.111,0.13,0.034,0.194c-0.069,0.069-0.138,0-0.203-0.021
				c-0.238-0.079-0.472-0.162-0.706-0.24c-0.096-0.047-0.198-0.089-0.298-0.132c-0.29-0.147-0.438-0.356-0.415-0.707
				c0.064-0.946,0.502-1.669,1.28-2.186c0.169-0.113,0.368-0.134,0.571-0.134c0.113,0.008,0.208,0.048,0.281,0.134
				c0.395,0.488,0.861,0.914,1.298,1.372c0.022,0.03,0.062,0.058,0.083,0.083c0.026,0.053,0.073,0.113,0.035,0.152
				c-0.049,0.055-0.096,0-0.144-0.014c-0.082-0.021-0.173-0.124-0.226-0.043c-0.043,0.057,0.075,0.14,0.136,0.2
				c0.146,0.163,0.311,0.341,0.445,0.527c-0.417-0.085-0.658-0.476-1.083-0.632c0.131,0.298,0.381,0.446,0.541,0.728
				c-0.354-0.087-0.58-0.347-0.882-0.45c0.207,0.32,0.537,0.529,0.786,0.853c-0.19,0-0.306-0.087-0.428-0.152
				c-0.125-0.073-0.242-0.156-0.368-0.229c-0.125-0.061-0.241-0.152-0.401-0.203c0.024,0.081,0.081,0.116,0.13,0.154
				c0.198,0.174,0.397,0.338,0.598,0.502c0.034,0.039,0.064,0.077,0.095,0.125c0.017,0.03,0.056,0.061,0.024,0.101
				c-0.024,0.055-0.077,0.029-0.119,0.017c-0.2-0.077-0.396-0.166-0.586-0.273C150.754,86.308,150.663,86.235,150.537,86.221z"/>
			<path fill-rule="evenodd" clip-rule="evenodd" fill="#A20B35" d="M158.951,79.772c-0.107,0.152-0.099,0.326-0.155,0.488
				c-0.03,0.079-0.03,0.227-0.126,0.218c-0.104-0.006-0.085-0.152-0.104-0.239c-0.017-0.082-0.008-0.172-0.017-0.259
				c-0.005-0.013-0.018-0.04-0.036-0.048c-0.03-0.022-0.051,0.008-0.064,0.036c-0.061,0.1-0.09,0.207-0.116,0.314
				c-0.034,0.213-0.078,0.425-0.121,0.638c-0.014,0.047-0.018,0.116-0.073,0.116c-0.07,0-0.066-0.069-0.078-0.116
				c-0.047-0.221-0.017-0.441-0.035-0.66c0-0.082,0.019-0.199-0.061-0.219c-0.087-0.013-0.095,0.112-0.134,0.172
				c-0.022,0.057-0.03,0.113-0.057,0.174c-0.013,0.055-0.026,0.134-0.091,0.134c-0.087,0.01-0.087-0.079-0.107-0.129
				c-0.005,0-0.005-0.004-0.005-0.013c-0.074-0.178-0.121-0.188-0.238-0.048c-0.034,0.039-0.061,0.095-0.104,0.082
				c-0.069-0.021-0.038-0.085-0.038-0.13c-0.01-0.475,0.077-0.926,0.176-1.379c0.069-0.334,0.252-0.607,0.551-0.788
				c0.632-0.391,1.315-0.523,2.046-0.416c0.209,0.025,0.412,0.13,0.551,0.307c0.082,0.097,0.104,0.182,0.043,0.303
				c-0.247,0.506-0.368,1.057-0.498,1.584c-0.026,0.117-0.061,0.198-0.198,0.156c-0.088-0.021-0.122,0.026-0.139,0.104
				c-0.052,0.144-0.101,0.29-0.174,0.419c-0.026,0.04-0.043,0.079-0.091,0.058c-0.043-0.005-0.043-0.04-0.051-0.079
				c-0.014-0.095-0.022-0.194-0.04-0.299c0-0.039,0-0.073-0.043-0.085c-0.039-0.008-0.053,0.025-0.073,0.055
				c-0.048,0.075-0.053,0.226-0.14,0.204c-0.104-0.014-0.055-0.174-0.099-0.259C158.961,80.049,159.03,79.91,158.951,79.772z"/>
			<path fill-rule="evenodd" clip-rule="evenodd" fill="#A20B35" d="M151.104,87.477c-0.177,0.013-0.315-0.052-0.462-0.074
				c-0.16-0.039-0.326-0.069-0.486-0.1c-0.061,0-0.155-0.047-0.181,0.036c-0.018,0.063,0.077,0.102,0.13,0.138
				c0.104,0.061,0.207,0.116,0.312,0.177c0.031,0.022,0.069,0.039,0.086,0.107c-0.29,0.01-0.554-0.168-0.861-0.071
				c0.126,0.138,0.29,0.172,0.438,0.229c0.134,0.061,0.277,0.107,0.416,0.164c0.025,0.008,0.057,0.039,0.057,0.048
				c0,0.047-0.039,0.047-0.075,0.051c-0.194,0.018-0.389,0-0.575-0.061c-0.138-0.048-0.281-0.069-0.432-0.079
				c-0.04,0-0.087-0.013-0.105,0.03c-0.017,0.048,0.035,0.075,0.057,0.097c0.117,0.077,0.256,0.124,0.354,0.233
				c-0.055,0.065-0.119,0.021-0.176,0.021c-0.075,0-0.144-0.011-0.205-0.008c-0.047,0-0.111-0.003-0.125,0.052
				c-0.013,0.061,0.044,0.075,0.087,0.095c0.16,0.073,0.32,0.14,0.48,0.221c0.082,0.035,0.238,0.069,0.208,0.16
				c-0.022,0.087-0.17,0.035-0.26,0.026c-0.151-0.004-0.312-0.035-0.468-0.044c-0.057-0.008-0.129-0.008-0.139,0.069
				c-0.013,0.048,0.048,0.079,0.087,0.119c0.064,0.047,0.221,0.047,0.19,0.142c-0.021,0.099-0.156,0.069-0.251,0.082
				c-0.043,0.009-0.104-0.008-0.126,0.044c-0.013,0.061,0.053,0.073,0.087,0.107c0.018,0.014,0.026,0.022,0.043,0.031
				c0.044,0.039,0.121,0.074,0.095,0.138c-0.017,0.075-0.099,0.075-0.154,0.075c-0.3,0.03-0.594,0.004-0.889-0.008
				c-0.142-0.008-0.294-0.026-0.436-0.057c-0.32-0.07-0.507-0.286-0.511-0.624c-0.026-0.758,0.198-1.437,0.67-2.03
				c0.139-0.187,0.325-0.32,0.55-0.389c0.194-0.066,0.377-0.057,0.571,0.039c0.571,0.255,1.173,0.458,1.762,0.67
				C150.948,87.359,151.035,87.372,151.104,87.477z"/>
			<path fill-rule="evenodd" clip-rule="evenodd" fill="#A20B35" d="M167.993,103.88c-0.018,0.069-0.034,0.146-0.078,0.204
				c-0.09,0.16-0.25,0.177-0.394,0.021c-0.16-0.168-0.268-0.368-0.347-0.575c-0.553-1.446-1.095-2.883-1.648-4.318
				c-0.117-0.31-0.308-0.577-0.532-0.828c-0.701-0.748-1.372-1.523-1.874-2.429c-0.1-0.185-0.178-0.371-0.152-0.584
				c0.009-0.078,0.009-0.168,0.1-0.202c0.087-0.03,0.152,0.024,0.213,0.085c0.034,0.039,0.073,0.079,0.104,0.136
				c0.372,0.726,0.947,1.289,1.502,1.874c0.169,0.174,0.343,0.342,0.537,0.502c0.271,0.233,0.45,0.549,0.584,0.883
				c0.628,1.548,1.247,3.1,1.861,4.653C167.941,103.485,167.989,103.682,167.993,103.88z"/>
			<path fill-rule="evenodd" clip-rule="evenodd" fill="#A20B35" d="M148.634,89.986c0.208,0.013,0.406,0.043,0.61,0.069
				c0.048,0.01,0.112,0.018,0.116,0.07c0.004,0.063-0.068,0.063-0.111,0.072c-0.156,0.014-0.304,0.03-0.46,0.052
				c-0.051,0.008-0.125,0.008-0.134,0.079c-0.004,0.065,0.069,0.065,0.107,0.087c0.019,0.017,0.049,0.021,0.065,0.03
				c0.034,0.024,0.095,0.03,0.083,0.085c-0.009,0.049-0.062,0.049-0.1,0.057c-0.061,0.01-0.117,0.021-0.178,0.04
				c-0.039,0.017-0.086,0.039-0.096,0.086c-0.004,0.061,0.049,0.074,0.087,0.1c0.009,0.008,0.018,0.008,0.03,0.008
				c0.065,0.03,0.187,0.022,0.183,0.109c-0.01,0.099-0.136,0.078-0.213,0.108c-0.077,0.025-0.16,0.047-0.238,0.077
				c-0.047,0.017-0.1,0.043-0.09,0.113c0,0.042,0.043,0.06,0.081,0.086c0.053,0.03,0.134,0.03,0.134,0.085
				c-0.008,0.083-0.104,0.045-0.15,0.066c-0.014,0.009-0.026,0.009-0.034,0.017c-0.087,0.049-0.227,0.079-0.208,0.196
				c0.012,0.107,0.155,0.073,0.246,0.086c0.065,0.018,0.135,0,0.199,0.008c0.057,0,0.134-0.03,0.151,0.044
				c0.009,0.056-0.078,0.073-0.113,0.104c-0.077,0.057-0.164,0.065-0.246,0.079c-0.06,0.017-0.139,0.017-0.146,0.085
				c-0.009,0.079,0.073,0.109,0.134,0.139c0.026,0.009,0.057,0.009,0.087,0.019c0.034,0.012,0.081,0.012,0.091,0.056
				c0.013,0.061-0.044,0.074-0.083,0.095c-0.008,0.01-0.017,0.01-0.03,0.013c-0.068,0.061-0.202,0.091-0.177,0.2
				c0.025,0.104,0.15,0.081,0.233,0.095c0.043,0.009,0.104-0.005,0.112,0.053c0.005,0.043-0.043,0.063-0.073,0.086
				c-0.354,0.182-0.714,0.351-1.112,0.411c-0.334,0.038-0.563-0.083-0.636-0.437c-0.16-0.74-0.035-1.434,0.237-2.104
				c0.238-0.563,0.649-0.78,1.247-0.741c0.134,0.018,0.264,0.03,0.394,0.058C148.634,90.007,148.634,89.996,148.634,89.986z"/>
			<path fill-rule="evenodd" clip-rule="evenodd" fill="#A20B35" d="M148.625,96.401c-0.064,0.134-0.203,0.221-0.29,0.342
				c-0.048,0.073-0.169,0.152-0.095,0.242c0.057,0.072,0.168-0.013,0.251-0.052c0.107-0.058,0.207-0.135,0.354-0.174
				c-0.043,0.1-0.117,0.144-0.178,0.204c-0.091,0.086-0.181,0.173-0.271,0.269c-0.045,0.034-0.083,0.091-0.057,0.151
				c0.034,0.073,0.107,0.047,0.168,0.053c0.057,0,0.104-0.028,0.156-0.059c0.057-0.03,0.104-0.071,0.182-0.063
				c-0.004,0.116-0.087,0.183-0.168,0.251c-0.07,0.069-0.166,0.125-0.221,0.207c-0.022,0.035-0.045,0.057-0.026,0.096
				c0.026,0.034,0.061,0.034,0.091,0.034c0.061-0.008,0.134-0.053,0.168,0.03c0.026,0.065-0.021,0.117-0.056,0.177
				c-0.009,0-0.021,0.02-0.026,0.03c-0.039,0.07-0.107,0.136-0.069,0.204c0.057,0.077,0.134,0.017,0.208,0
				c0.047-0.008,0.104-0.047,0.143,0c0.04,0.047-0.03,0.087-0.043,0.136c-0.021,0.068-0.107,0.146-0.048,0.193
				c0.061,0.058,0.155,0,0.217-0.047c0.155-0.108,0.303-0.235,0.455-0.351c0.073-0.053,0.138-0.117,0.259-0.136
				c-0.048,0.127-0.129,0.204-0.204,0.291c-0.15,0.203-0.346,0.369-0.484,0.59c-0.025,0.033-0.068,0.073-0.034,0.115
				c0.039,0.045,0.083,0.006,0.121-0.008c0.146-0.044,0.252-0.16,0.377-0.227c0.03-0.021,0.069-0.055,0.107-0.029
				c0.035,0.035,0,0.082-0.021,0.112c-0.047,0.069-0.09,0.135-0.15,0.204c-0.286,0.29-0.581,0.594-0.871,0.875
				c-0.203,0.193-0.458,0.203-0.696,0.021c-0.303-0.225-0.489-0.545-0.61-0.896c-0.174-0.507-0.269-1.009-0.117-1.531
				c0.034-0.13,0.104-0.257,0.204-0.351c0.341-0.321,0.722-0.602,1.112-0.862C148.504,96.414,148.548,96.371,148.625,96.401z"/>
			<path fill-rule="evenodd" clip-rule="evenodd" fill="#A20B35" d="M146.617,94.651c0.029-0.232,0.069-0.492,0.177-0.739
				c0.113-0.234,0.286-0.389,0.555-0.425c0.237-0.033,0.477-0.086,0.718-0.13c0.04,0,0.095-0.021,0.117,0.03
				c0.013,0.049-0.03,0.069-0.057,0.1c-0.047,0.058-0.168,0.104-0.116,0.2c0.056,0.091,0.169,0.068,0.264,0.051
				c0.073-0.008,0.183-0.069,0.217,0.018c0.021,0.096-0.083,0.156-0.164,0.2c-0.057,0.025-0.126,0.043-0.183,0.082
				c-0.129,0.068-0.129,0.139-0.021,0.225c0.16,0.125,0.155,0.165-0.035,0.251c-0.034,0.009-0.082,0.022-0.121,0.047
				c-0.064,0.053-0.156,0.091-0.138,0.196c0.021,0.099,0.125,0.073,0.198,0.073c0.03,0.01,0.073-0.005,0.087,0.034
				c0.013,0.047-0.03,0.061-0.057,0.077c-0.004,0.006-0.017,0.014-0.03,0.022c-0.068,0.057-0.182,0.097-0.125,0.204
				c0.043,0.085,0.144,0.104,0.238,0.077c0.034-0.004,0.082-0.034,0.104,0.017c0.017,0.044-0.03,0.07-0.053,0.101
				c-0.061,0.073-0.207,0.117-0.164,0.211c0.043,0.089,0.179,0,0.27,0.01c0.055,0.009,0.134-0.022,0.154,0.039
				c0.026,0.07-0.051,0.101-0.107,0.121c-0.107,0.051-0.147,0.095-0.034,0.19c0.072,0.064,0.056,0.15,0.008,0.233
				c-0.061,0.127-0.164,0.195-0.268,0.277c-0.17,0.121-0.343,0.217-0.502,0.351c-0.195,0.151-0.381,0.108-0.533-0.104
				c-0.346-0.486-0.428-1.048-0.415-1.623C146.604,94.941,146.617,94.809,146.617,94.651z"/>
			<path fill-rule="evenodd" clip-rule="evenodd" fill="#A20B35" d="M162.241,95.41c0.018-0.118,0.083-0.169,0.182-0.188
				c0.122-0.021,0.134,0.079,0.156,0.157c0.593,1.808,1.186,3.622,1.762,5.448c0.376,1.151,0.762,2.307,1.068,3.471
				c0.03,0.088,0.095,0.222,0.004,0.266c-0.081,0.047-0.116-0.1-0.173-0.178c-0.463-0.611-0.727-1.321-0.956-2.047
				c-0.642-2.053-1.302-4.095-1.873-6.165C162.341,95.916,162.279,95.662,162.241,95.41z"/>
			<path fill-rule="evenodd" clip-rule="evenodd" fill="#A20B35" d="M169.699,89.125c-0.019,0.087-0.083,0.142-0.152,0.19
				c-1.926,1.185-3.853,2.364-5.778,3.553c-0.029,0.014-0.065,0.034-0.107,0.053c-0.073,0.03-0.169,0.099-0.233,0.008
				c-0.083-0.095-0.04-0.204,0.038-0.281c0.169-0.152,0.351-0.281,0.537-0.416c1.671-1.13,3.389-2.181,5.103-3.246
				c0.073-0.043,0.151-0.1,0.238-0.134C169.547,88.763,169.725,88.909,169.699,89.125z"/>
			<path fill-rule="evenodd" clip-rule="evenodd" fill="#A20B35" d="M156.194,103.278c0.204-0.086,0.416-0.1,0.628-0.126
				c1.121-0.108,2.225-0.091,3.328,0.179c0.104,0.024,0.213,0.03,0.32,0.052c0.1,0.03,0.2,0.082,0.247,0.19
				c0.057,0.124,0.013,0.211-0.126,0.232c-0.104,0.019-0.216,0-0.319-0.03c-0.9-0.299-1.844-0.333-2.779-0.414
				C157.06,103.325,156.628,103.309,156.194,103.278z"/>
			<path fill-rule="evenodd" clip-rule="evenodd" fill="#A20B35" d="M161.189,103.736c-0.13-0.29-0.125-0.281,0.091-0.458
				c0.637-0.524,1.155-1.156,1.692-1.778c0.095-0.117,0.186-0.226,0.281-0.353c0.091,0.127,0.038,0.213-0.021,0.31
				c-0.187,0.29-0.417,0.553-0.646,0.809c-0.415,0.472-0.849,0.927-1.29,1.38C161.267,103.676,161.232,103.706,161.189,103.736z"/>
			<path fill-rule="evenodd" clip-rule="evenodd" fill="#A20B35" d="M169.638,89.883c0.047,0.024,0.043,0.064,0.057,0.103
				c0.199,0.719,0.397,1.429,0.598,2.138c0.021,0.07,0.077,0.165-0.066,0.174c-0.095,0.008-0.207,0.095-0.249-0.104
				c-0.144-0.672-0.292-1.351-0.456-2.021C169.49,90.043,169.56,89.966,169.638,89.883z"/>
			<path fill-rule="evenodd" clip-rule="evenodd" fill="#A20B35" d="M169.123,90.211c0.062,0.022,0.047,0.095,0.047,0.138
				c0.104,0.571,0.199,1.126,0.294,1.697c0.015,0.068,0.026,0.144,0.031,0.217c0.005,0.048,0.064,0.125-0.035,0.15
				c-0.104,0.021-0.095-0.063-0.111-0.116c-0.044-0.164-0.092-0.343-0.13-0.511c-0.113-0.428-0.225-0.856-0.338-1.298
				C168.854,90.377,169.015,90.198,169.123,90.211z"/>
			<path fill-rule="evenodd" clip-rule="evenodd" fill="#A20B35" d="M166.388,102.932c0,0.065-0.039,0.079-0.087,0.096
				c-0.26,0.077-0.52,0.155-0.774,0.237c-0.077,0.021-0.1,0.005-0.117-0.072c-0.047-0.234-0.047-0.248,0.187-0.272
				c0.225-0.026,0.455-0.057,0.676-0.087C166.361,102.82,166.401,102.841,166.388,102.932z"/>
			<path fill-rule="evenodd" clip-rule="evenodd" fill="#A20B35" d="M165.613,103.59c-0.01-0.068,0.034-0.087,0.077-0.091
				c0.27-0.034,0.537-0.074,0.81-0.104c0.052-0.012,0.096-0.012,0.108,0.061c0.014,0.066-0.009,0.108-0.073,0.135
				c-0.264,0.069-0.524,0.156-0.779,0.234C165.647,103.85,165.591,103.764,165.613,103.59z"/>
			<path fill-rule="evenodd" clip-rule="evenodd" fill="#A20B35" d="M165.812,104.265c-0.018-0.104,0.043-0.108,0.087-0.117
				c0.264-0.033,0.533-0.073,0.792-0.107c0.052-0.009,0.104-0.022,0.116,0.057c0.006,0.064-0.004,0.108-0.073,0.134
				c-0.268,0.077-0.522,0.174-0.796,0.234C165.725,104.512,165.895,104.295,165.812,104.265z"/>
			<path fill-rule="evenodd" clip-rule="evenodd" fill="#A20B35" d="M164.978,101.668c-0.01-0.081,0.051-0.081,0.099-0.087
				c0.256-0.043,0.515-0.081,0.774-0.116c0.048,0,0.117-0.03,0.126,0.063c0.004,0.066-0.009,0.109-0.082,0.132
				c-0.261,0.072-0.52,0.15-0.779,0.232C165.016,101.919,164.963,101.828,164.978,101.668z"/>
			<path fill-rule="evenodd" clip-rule="evenodd" fill="#A20B35" d="M166.188,102.252c0,0.027-0.034,0.044-0.083,0.066
				c-0.259,0.068-0.522,0.154-0.773,0.232c-0.069,0.021-0.126,0.021-0.117-0.061c0.004-0.087-0.108-0.221,0.044-0.241
				c0.28-0.061,0.558-0.097,0.835-0.127C166.185,102.105,166.188,102.152,166.188,102.252z"/>
			<path fill-rule="evenodd" clip-rule="evenodd" fill="#A20B35" d="M159.93,95.051c-0.013-0.117,0.083-0.148,0.16-0.187
				c0.286-0.144,0.295-0.144,0.485,0.1c0.043,0.057,0.047,0.097-0.018,0.135c-0.16,0.104-0.342,0.146-0.524,0.143
				C159.908,95.241,159.93,95.138,159.93,95.051z"/>
			<path fill-rule="evenodd" clip-rule="evenodd" fill="#A20B35" d="M166.717,92.844c0.009,0.06-0.03,0.078-0.064,0.086
				c-0.057,0.014-0.091,0.004-0.109-0.055c-0.073-0.292-0.151-0.586-0.217-0.867c-0.025-0.087,0.065-0.135,0.126-0.155
				c0.079-0.019,0.061,0.068,0.074,0.103c0.06,0.277,0.12,0.555,0.181,0.823C166.707,92.813,166.712,92.835,166.717,92.844z"/>
			<path fill-rule="evenodd" clip-rule="evenodd" fill="#A20B35" d="M166.021,93.073c0,0.021-0.014,0.043-0.03,0.043
				c-0.04,0.008-0.061-0.01-0.075-0.04c-0.091-0.251-0.181-0.505-0.268-0.765c-0.021-0.069,0.047-0.091,0.1-0.117
				c0.053-0.013,0.061,0.029,0.069,0.069c0.068,0.259,0.134,0.515,0.194,0.773C166.011,93.051,166.015,93.06,166.021,93.073z"/>
			<path fill-rule="evenodd" clip-rule="evenodd" fill="#A20B35" d="M164.037,98.229c-0.104,0-0.168-0.04-0.147-0.148
				c0.04-0.164,0.204-0.134,0.304-0.142c0.087,0,0.1,0.163,0.19,0.201C164.284,98.245,164.159,98.229,164.037,98.229z"/>
			<path fill-rule="evenodd" clip-rule="evenodd" fill="#A20B35" d="M156.671,104.147c-0.187-0.021-0.367-0.043-0.545-0.063
				c-0.083-0.01-0.117-0.058-0.096-0.127c0.026-0.073,0.087-0.021,0.13-0.008c0.178,0.061,0.347,0.125,0.519,0.186
				C156.679,104.145,156.675,104.145,156.671,104.147z"/>
		</g>
	</g>
	<g>
		<path fill="#A20B35" d="M157.156,121.253h1.346l1.999,7.047l1.979-7.047h1.337v8.327h-0.896v-4.908c0-0.172,0-0.459,0.009-0.849
			c0.004-0.389,0.008-0.813,0.008-1.264l-1.977,7.021h-0.936l-2-7.021v0.26c0,0.198,0.005,0.51,0.019,0.927
			c0,0.415,0.004,0.726,0.004,0.926v4.908h-0.892V121.253z"/>
		<path fill="#A20B35" d="M168.984,124.119c0.449,0.526,0.67,1.288,0.67,2.293c0,0.986-0.194,1.791-0.592,2.433
			c-0.391,0.641-1.004,0.96-1.831,0.96c-0.692,0-1.241-0.294-1.652-0.849c-0.403-0.562-0.602-1.324-0.602-2.276
			c0-1.021,0.211-1.835,0.636-2.439c0.428-0.599,1.009-0.911,1.73-0.911C167.993,123.329,168.534,123.599,168.984,124.119z
			 M168.457,128.152c0.207-0.511,0.307-1.084,0.307-1.706c0-0.562-0.073-1.022-0.221-1.384c-0.237-0.555-0.641-0.842-1.22-0.842
			c-0.521,0-0.892,0.243-1.126,0.721c-0.233,0.475-0.347,1.056-0.347,1.722c0,0.641,0.113,1.187,0.347,1.609
			c0.234,0.433,0.602,0.65,1.111,0.65C167.868,128.923,168.249,128.672,168.457,128.152z"/>
		<path fill="#A20B35" d="M170.919,123.512h0.802v1.049c0.068-0.209,0.229-0.451,0.492-0.745c0.255-0.286,0.555-0.434,0.887-0.434
			c0.022,0,0.045,0,0.079,0c0.039,0.009,0.107,0.009,0.203,0.017v1.083c-0.057-0.01-0.104-0.026-0.143-0.026
			c-0.048,0-0.091-0.008-0.144-0.008c-0.424,0-0.757,0.174-0.982,0.502c-0.233,0.337-0.346,0.718-0.346,1.143v3.488h-0.849V123.512z
			"/>
		<path fill="#A20B35" d="M177.433,123.678c0.334,0.206,0.589,0.466,0.766,0.786c0.17,0.312,0.277,0.668,0.343,1.065
			c0.038,0.285,0.068,0.736,0.068,1.35h-3.679c0.019,0.615,0.134,1.109,0.364,1.481c0.226,0.371,0.571,0.562,1.038,0.562
			c0.441,0,0.798-0.182,1.057-0.529c0.152-0.207,0.256-0.45,0.312-0.718h0.843c-0.025,0.234-0.1,0.477-0.225,0.754
			c-0.126,0.268-0.264,0.493-0.42,0.675c-0.251,0.294-0.571,0.502-0.948,0.605c-0.198,0.061-0.429,0.095-0.692,0.095
			c-0.618,0-1.155-0.285-1.588-0.83c-0.434-0.545-0.654-1.315-0.654-2.312c0-0.969,0.221-1.766,0.658-2.372
			c0.441-0.613,1.009-0.909,1.718-0.909C176.754,123.382,177.096,123.478,177.433,123.678z M177.736,126.065
			c-0.034-0.441-0.113-0.796-0.239-1.063c-0.229-0.494-0.618-0.737-1.158-0.737c-0.387,0-0.707,0.174-0.975,0.511
			c-0.265,0.338-0.398,0.762-0.411,1.29H177.736z"/>
		<path fill="#A20B35" d="M182.93,121.814h0.861v1.697h0.813v0.831h-0.813v3.974c0,0.207,0.061,0.346,0.182,0.415
			c0.069,0.043,0.177,0.061,0.329,0.061c0.044,0,0.087,0,0.134,0c0.048,0,0.101-0.008,0.169-0.018v0.806
			c-0.104,0.034-0.204,0.061-0.308,0.087c-0.104,0-0.221,0.018-0.342,0.018c-0.397,0-0.667-0.121-0.809-0.364
			c-0.144-0.251-0.217-0.562-0.217-0.96v-4.018h-0.685v-0.831h0.685V121.814z"/>
		<path fill="#A20B35" d="M185.644,121.227h0.848v3.107c0.204-0.304,0.386-0.527,0.551-0.648c0.268-0.208,0.609-0.32,1.024-0.32
			c0.731,0,1.229,0.304,1.489,0.926c0.144,0.338,0.213,0.805,0.213,1.403v3.886h-0.875v-3.816c0-0.451-0.043-0.779-0.143-0.988
			c-0.151-0.328-0.445-0.502-0.866-0.502c-0.354,0-0.675,0.147-0.96,0.441c-0.29,0.287-0.434,0.841-0.434,1.645v3.221h-0.848
			V121.227z"/>
		<path fill="#A20B35" d="M193.927,125.91c0.2-0.025,0.326-0.13,0.398-0.286c0.035-0.095,0.053-0.233,0.053-0.407
			c0-0.336-0.101-0.596-0.308-0.762c-0.204-0.146-0.494-0.234-0.879-0.234c-0.445,0-0.762,0.149-0.948,0.441
			c-0.107,0.157-0.172,0.4-0.202,0.711h-0.797c0.017-0.752,0.216-1.272,0.61-1.566c0.385-0.295,0.839-0.441,1.35-0.441
			c0.598,0,1.079,0.139,1.454,0.406c0.364,0.269,0.551,0.692,0.551,1.271v3.498c0,0.104,0.017,0.19,0.051,0.251
			c0.04,0.07,0.113,0.096,0.227,0.096c0.042,0,0.085,0,0.134-0.009c0.043-0.008,0.091-0.008,0.146-0.017v0.744
			c-0.13,0.061-0.229,0.087-0.299,0.095c-0.073,0.009-0.164,0.009-0.285,0.009c-0.29,0-0.507-0.122-0.641-0.373
			c-0.068-0.129-0.117-0.319-0.147-0.553c-0.173,0.259-0.415,0.492-0.744,0.701c-0.321,0.208-0.68,0.302-1.073,0.302
			c-0.463,0-0.849-0.173-1.143-0.511c-0.303-0.345-0.451-0.778-0.451-1.288c0-0.555,0.144-0.997,0.438-1.309
			c0.294-0.302,0.681-0.492,1.156-0.562L193.927,125.91z M192.136,128.672c0.187,0.163,0.397,0.251,0.645,0.251
			c0.3,0,0.589-0.088,0.865-0.251c0.476-0.269,0.711-0.729,0.711-1.352v-0.822c-0.104,0.088-0.235,0.148-0.403,0.199
			c-0.16,0.052-0.32,0.096-0.48,0.112l-0.515,0.078c-0.308,0.052-0.536,0.13-0.692,0.233c-0.265,0.174-0.39,0.46-0.39,0.849
			C191.876,128.256,191.962,128.498,192.136,128.672z"/>
		<path fill="#A20B35" d="M196.797,123.512h0.805v0.858c0.238-0.356,0.489-0.599,0.757-0.762c0.27-0.157,0.567-0.227,0.897-0.227
			c0.713,0,1.203,0.296,1.454,0.892c0.138,0.33,0.211,0.806,0.211,1.421v3.886h-0.865v-3.816c0-0.381-0.048-0.676-0.138-0.901
			c-0.151-0.381-0.425-0.571-0.828-0.571c-0.198,0-0.362,0.035-0.488,0.079c-0.237,0.077-0.441,0.251-0.619,0.502
			c-0.143,0.199-0.233,0.406-0.272,0.612c-0.044,0.219-0.064,0.521-0.064,0.928v3.168h-0.849V123.512z"/>
		<path fill="#A20B35" d="M208.772,127.104c0,0.701-0.082,1.246-0.26,1.627c-0.324,0.719-0.934,1.073-1.835,1.073
			c-0.519,0-0.965-0.172-1.337-0.51c-0.368-0.339-0.55-0.935-0.55-1.801v-0.597h0.882v0.597c0,0.449,0.087,0.797,0.251,1.021
			c0.17,0.227,0.434,0.348,0.788,0.348c0.507,0,0.836-0.208,0.986-0.623c0.102-0.251,0.14-0.729,0.14-1.43v-5.557h0.935V127.104z"/>
		<path fill="#A20B35" d="M211.132,123.512v4.034c0,0.304,0.034,0.563,0.117,0.762c0.146,0.364,0.428,0.537,0.826,0.537
			c0.571,0,0.969-0.312,1.177-0.944c0.112-0.346,0.165-0.812,0.165-1.402v-2.986h0.856v6.068h-0.809l0.013-0.883
			c-0.104,0.226-0.243,0.416-0.399,0.579c-0.324,0.312-0.709,0.468-1.163,0.468c-0.706,0-1.19-0.285-1.441-0.865
			c-0.143-0.304-0.207-0.719-0.207-1.237v-4.13H211.132z"/>
		<path fill="#A20B35" d="M216.359,127.676c0.03,0.347,0.096,0.605,0.213,0.787c0.225,0.329,0.605,0.493,1.143,0.493
			c0.32,0,0.605-0.085,0.853-0.251c0.237-0.154,0.358-0.414,0.358-0.762c0-0.259-0.099-0.458-0.289-0.596
			c-0.126-0.079-0.369-0.174-0.74-0.287l-0.68-0.207c-0.441-0.121-0.771-0.268-0.979-0.434c-0.367-0.268-0.554-0.656-0.554-1.134
			c0-0.579,0.173-1.046,0.527-1.402c0.347-0.346,0.814-0.526,1.412-0.526c0.766,0,1.324,0.268,1.666,0.804
			c0.212,0.339,0.316,0.711,0.307,1.101h-0.8c-0.013-0.235-0.087-0.434-0.213-0.624c-0.198-0.277-0.545-0.407-1.029-0.407
			c-0.338,0-0.579,0.079-0.749,0.217c-0.173,0.146-0.256,0.347-0.256,0.588c0,0.259,0.109,0.478,0.334,0.632
			c0.126,0.097,0.316,0.182,0.567,0.251l0.571,0.166c0.626,0.182,1.037,0.345,1.25,0.51c0.334,0.26,0.498,0.675,0.498,1.229
			c0,0.538-0.174,1.005-0.524,1.403c-0.341,0.389-0.865,0.589-1.58,0.589c-0.757,0-1.302-0.208-1.614-0.615
			c-0.315-0.407-0.488-0.918-0.511-1.523H216.359z"/>
		<path fill="#A20B35" d="M221.051,121.814h0.862v1.697h0.809v0.831h-0.809v3.974c0,0.207,0.06,0.346,0.181,0.415
			c0.065,0.043,0.174,0.061,0.334,0.061c0.039,0,0.082,0,0.126,0c0.051,0,0.107-0.008,0.168-0.018v0.806
			c-0.095,0.034-0.198,0.061-0.302,0.087c-0.109,0-0.221,0.018-0.343,0.018c-0.398,0-0.67-0.121-0.813-0.364
			c-0.138-0.251-0.213-0.562-0.213-0.96v-4.018h-0.683v-0.831h0.683V121.814z"/>
		<path fill="#A20B35" d="M226.855,121.253h4.809v1.03h-3.874v2.519h3.406v0.995h-3.406v3.783h-0.935V121.253z"/>
		<path fill="#A20B35" d="M235.465,125.91c0.194-0.025,0.324-0.13,0.389-0.286c0.039-0.095,0.057-0.233,0.057-0.407
			c0-0.336-0.1-0.596-0.308-0.762c-0.207-0.146-0.498-0.234-0.888-0.234c-0.441,0-0.753,0.149-0.939,0.441
			c-0.099,0.157-0.168,0.4-0.198,0.711h-0.796c0.016-0.752,0.216-1.272,0.602-1.566c0.393-0.295,0.848-0.441,1.354-0.441
			c0.598,0,1.082,0.139,1.45,0.406c0.367,0.269,0.549,0.692,0.549,1.271v3.498c0,0.104,0.017,0.19,0.057,0.251
			c0.035,0.07,0.112,0.096,0.229,0.096c0.034,0,0.083,0,0.13-0.009c0.042-0.008,0.095-0.008,0.151-0.017v0.744
			c-0.134,0.061-0.238,0.087-0.308,0.095c-0.064,0.009-0.156,0.009-0.277,0.009c-0.298,0-0.507-0.122-0.645-0.373
			c-0.068-0.129-0.113-0.319-0.138-0.553c-0.178,0.259-0.43,0.492-0.754,0.701c-0.324,0.208-0.684,0.302-1.069,0.302
			c-0.468,0-0.853-0.173-1.154-0.511c-0.296-0.345-0.447-0.778-0.447-1.288c0-0.555,0.151-0.997,0.441-1.309
			c0.295-0.302,0.681-0.492,1.156-0.562L235.465,125.91z M233.677,128.672c0.178,0.163,0.385,0.251,0.636,0.251
			c0.295,0,0.589-0.088,0.866-0.251c0.477-0.269,0.709-0.729,0.709-1.352v-0.822c-0.104,0.088-0.237,0.148-0.397,0.199
			c-0.169,0.052-0.329,0.096-0.481,0.112l-0.515,0.078c-0.308,0.052-0.545,0.13-0.696,0.233c-0.26,0.174-0.394,0.46-0.394,0.849
			C233.404,128.256,233.495,128.498,233.677,128.672z"/>
		<path fill="#A20B35" d="M238.325,123.512h0.806v0.858c0.241-0.356,0.496-0.599,0.762-0.762c0.268-0.157,0.566-0.227,0.896-0.227
			c0.719,0,1.203,0.296,1.45,0.892c0.138,0.33,0.207,0.806,0.207,1.421v3.886h-0.861v-3.816c0-0.381-0.043-0.676-0.138-0.901
			c-0.152-0.381-0.426-0.571-0.818-0.571c-0.204,0-0.368,0.035-0.503,0.079c-0.229,0.077-0.433,0.251-0.605,0.502
			c-0.147,0.199-0.238,0.406-0.277,0.612c-0.047,0.219-0.064,0.521-0.064,0.928v3.168h-0.853V123.512z"/>
		<path fill="#A20B35" d="M244.405,127.676c0.026,0.347,0.096,0.605,0.217,0.787c0.217,0.329,0.598,0.493,1.139,0.493
			c0.32,0,0.602-0.085,0.849-0.251c0.242-0.154,0.367-0.414,0.367-0.762c0-0.259-0.1-0.458-0.29-0.596
			c-0.126-0.079-0.381-0.174-0.744-0.287l-0.688-0.207c-0.438-0.121-0.762-0.268-0.97-0.434c-0.371-0.268-0.554-0.656-0.554-1.134
			c0-0.579,0.169-1.046,0.52-1.402c0.355-0.346,0.826-0.526,1.415-0.526c0.775,0,1.329,0.268,1.667,0.804
			c0.217,0.339,0.32,0.711,0.312,1.101h-0.801c-0.017-0.235-0.086-0.434-0.212-0.624c-0.195-0.277-0.542-0.407-1.034-0.407
			c-0.33,0-0.575,0.079-0.749,0.217c-0.165,0.146-0.252,0.347-0.252,0.588c0,0.259,0.105,0.478,0.33,0.632
			c0.13,0.097,0.32,0.182,0.571,0.251l0.571,0.166c0.622,0.182,1.039,0.345,1.254,0.51c0.33,0.26,0.494,0.675,0.494,1.229
			c0,0.538-0.173,1.005-0.519,1.403c-0.347,0.389-0.875,0.589-1.58,0.589c-0.762,0-1.298-0.208-1.618-0.615
			c-0.316-0.407-0.49-0.918-0.512-1.523H244.405z"/>
	</g>
	<line fill="none" stroke="#FDBD13" stroke-width="4.432" stroke-miterlimit="10" x1="35" y1="125.469" x2="154.893" y2="125.469"/>
	
		<line fill="none" stroke="#FDBD13" stroke-width="4.432" stroke-miterlimit="10" x1="249.146" y1="125.469" x2="283.351" y2="125.469"/>
</g>
</svg>
