<?xml version="1.0" encoding="utf-8"?>
<!-- Generator: Adobe Illustrator 16.0.0, SVG Export Plug-In . SVG Version: 6.00 Build 0)  -->
<!DOCTYPE svg PUBLIC "-//W3C//DTD SVG 1.1//EN" "http://www.w3.org/Graphics/SVG/1.1/DTD/svg11.dtd">
<svg version="1.1" id="Layer_1" xmlns="http://www.w3.org/2000/svg" xmlns:xlink="http://www.w3.org/1999/xlink" x="0px" y="0px"
	 width="320px" height="200px" viewBox="0 0 320 200" enable-background="new 0 0 320 200" xml:space="preserve">
<g>
	<path fill="#393435" d="M153.751,78.676c0-21.197-17.188-38.387-38.389-38.387c-21.199,0-38.388,17.189-38.388,38.387
		c0,19.069,13.893,34.876,32.102,37.873v11.402H94.211c-3.249,0-5.883,2.628-5.883,5.874c0,3.253,2.634,5.887,5.883,5.887h14.865
		v17.907c0,3.25,2.634,5.881,5.884,5.881c3.243,0,5.878-2.631,5.878-5.881v-17.907h14.871c3.244,0,5.878-2.634,5.878-5.887
		c0-3.246-2.634-5.874-5.878-5.874h-14.871V116.68C139.447,114.018,153.751,98.025,153.751,78.676 M123.79,88.651l6.316-15.987
		c0.296-0.7,0.82-0.851,1.207-0.851c0.54,0,1.013,0.32,1.231,0.845l6.333,16.018c0.082,0.204,0.112,0.433,0.112,0.546
		c0,0.72-0.579,1.283-1.317,1.283c-0.566,0-1.027-0.32-1.238-0.86l-1.762-4.509h-6.691l-1.792,4.497
		c-0.211,0.546-0.671,0.872-1.235,0.872c-0.707,0-1.286-0.576-1.286-1.283C123.667,89.097,123.695,88.834,123.79,88.651
		 M109.525,73.519l-4.597,16.041c-0.15,0.552-0.662,0.945-1.248,0.945c-0.604,0-1.104-0.394-1.25-0.982l-3.34-11.815l-3.348,11.834
		c-0.146,0.577-0.641,0.964-1.25,0.964c-0.586,0-1.098-0.394-1.247-0.945l-4.588-16.035c-0.037-0.132-0.067-0.269-0.067-0.421
		c0-0.727,0.561-1.29,1.286-1.29c0.677,0,1.119,0.497,1.244,0.948l3.396,12.012l3.323-12.012c0.14-0.563,0.64-0.948,1.25-0.948
		c0.604,0,1.105,0.385,1.25,0.957l3.315,12.003l3.396-12.018c0.122-0.445,0.567-0.942,1.247-0.942c0.723,0,1.29,0.563,1.29,1.29
		C109.589,73.256,109.552,73.393,109.525,73.519 M116.406,90.663c-3.411,0-5.582-1.841-6.402-3.408
		c-0.134-0.271-0.177-0.433-0.177-0.659c0-0.694,0.543-1.237,1.237-1.237c0.445,0,0.836,0.229,1.073,0.615
		c0.519,0.839,1.769,2.263,4.269,2.263c2.694,0,4.061-1.015,4.061-3.015c0-1.988-1.941-2.616-4.192-3.351
		c-2.634-0.848-5.617-1.817-5.617-5.372c0-2.234,1.555-4.838,5.932-4.838c2.536,0,4.683,1.037,5.894,2.854
		c0.149,0.223,0.223,0.458,0.223,0.72c0,0.689-0.543,1.234-1.238,1.234c-0.396,0-0.731-0.17-0.994-0.493
		c-0.658-0.812-1.779-1.894-3.884-1.894c-2.134,0-3.359,0.885-3.359,2.417c0,1.668,1.829,2.29,3.951,3.019
		c2.609,0.89,5.862,2,5.862,5.704C123.042,88.676,120.625,90.663,116.406,90.663"/>
	<path fill="#393435" d="M165.015,113.302l-1.984,6.838c-0.088,0.309-0.372,0.5-0.667,0.5c-0.309,0-0.54-0.171-0.652-0.454
		l-3.168-8.691c-0.043-0.112-0.067-0.217-0.067-0.302c0-0.387,0.303-0.689,0.689-0.689c0.302,0,0.542,0.171,0.648,0.445l2.507,7.146
		l2.045-7.146c0.067-0.21,0.284-0.445,0.649-0.445c0.363,0,0.58,0.235,0.644,0.445l2.052,7.146l2.503-7.146
		c0.104-0.274,0.345-0.445,0.646-0.445c0.391,0,0.692,0.303,0.692,0.689c0,0.085-0.021,0.189-0.064,0.302l-3.176,8.691
		c-0.106,0.283-0.345,0.454-0.644,0.454c-0.301,0-0.582-0.191-0.668-0.5L165.015,113.302z"/>
	<path fill="#393435" d="M181.84,115.546c0,3.539-1.726,5.204-4.533,5.204c-2.779,0-4.53-1.665-4.53-5.204
		c0-3.536,1.751-5.174,4.53-5.174C180.115,110.372,181.84,112.01,181.84,115.546 M180.438,115.546c0-2.716-1.146-3.93-3.131-3.93
		c-1.981,0-3.124,1.214-3.124,3.93c0,2.765,1.143,3.954,3.124,3.954C179.292,119.5,180.438,118.311,180.438,115.546"/>
	<path fill="#393435" d="M199.278,114.187v5.765c0,0.387-0.311,0.688-0.694,0.688c-0.385,0-0.689-0.302-0.689-0.688v-5.481
		c0-1.704-0.604-2.872-2.7-2.872c-1.854,0-2.692,0.997-2.692,2.589v5.765c0,0.387-0.302,0.688-0.695,0.688
		c-0.388,0-0.686-0.302-0.686-0.688v-5.481c0-1.704-0.543-2.872-2.652-2.872c-2.009,0-2.658,1.214-2.658,3.021v5.332
		c0,0.387-0.302,0.688-0.688,0.688c-0.391,0-0.689-0.302-0.689-0.688v-8.759c0-0.387,0.299-0.689,0.689-0.689
		c0.387,0,0.688,0.303,0.688,0.689v0.687c0.372-0.8,1.402-1.513,2.798-1.513c1.775,0,2.921,0.649,3.442,1.513
		c0.533-0.839,1.484-1.513,3.144-1.513C198.516,110.366,199.278,112.351,199.278,114.187"/>
	<path fill="#393435" d="M206.092,110.366c3.45,0,4.122,2.747,4.122,4.217c0,0.615,0,1.374-0.87,1.374h-6.297
		c0,2.137,1.231,3.521,3.262,3.521c1.249,0,1.981-0.479,2.585-0.93c0.131-0.086,0.213-0.138,0.388-0.138
		c0.35,0,0.624,0.287,0.624,0.628c0,0.244-0.104,0.375-0.231,0.501c-0.33,0.319-1.445,1.21-3.365,1.21
		c-2.869,0-4.658-1.579-4.658-5.204C201.651,112.226,203.284,110.366,206.092,110.366 M206.092,111.616
		c-1.875,0-2.911,1.214-3.045,3.128h5.804C208.851,113.199,208.315,111.616,206.092,111.616"/>
	<path fill="#393435" d="M221.002,114.187v5.765c0,0.387-0.305,0.688-0.695,0.688c-0.39,0-0.688-0.302-0.688-0.688v-5.481
		c0-1.704-0.493-2.872-2.588-2.872c-2.138,0-2.869,1.293-2.869,3.021v5.332c0,0.387-0.305,0.688-0.695,0.688
		c-0.384,0-0.688-0.302-0.688-0.688v-8.759c0-0.387,0.305-0.689,0.688-0.689c0.391,0,0.695,0.303,0.695,0.689v0.687
		c0.402-0.818,1.463-1.513,2.869-1.513C220.351,110.366,221.002,112.351,221.002,114.187"/>
	<path fill="#393435" d="M223.113,111.016c-0.067,0.063-0.128,0.122-0.284,0.122c-0.167,0-0.323-0.122-0.323-0.313
		c0-0.064,0.021-0.132,0.07-0.196c0.512-0.71,0.799-1.206,0.799-1.96c0-0.826-0.774-0.979-0.774-1.856
		c0-0.714,0.385-1.036,1.009-1.036c0.668,0,1.053,0.387,1.053,1.378C224.662,108.641,224.064,110.025,223.113,111.016"/>
	<path fill="#393435" d="M226.975,113c0,2.269,5.673,1.424,5.673,4.871c0,1.968-1.621,2.86-3.663,2.86
		c-1.775,0-3.132-0.838-3.695-1.561c-0.104-0.15-0.146-0.263-0.146-0.405c0-0.354,0.277-0.632,0.622-0.632
		c0.131,0,0.305,0.052,0.472,0.217c0.672,0.67,1.537,1.063,2.748,1.063c1.225,0,2.279-0.414,2.279-1.543
		c0-2.215-5.67-1.328-5.67-4.871c0-1.789,1.463-2.609,3.302-2.609c1.466,0,2.612,0.5,3.276,1.384
		c0.064,0.085,0.152,0.217,0.152,0.405c0,0.342-0.28,0.632-0.622,0.632c-0.109,0-0.282-0.027-0.459-0.198
		c-0.583-0.563-1.224-0.902-2.348-0.902C227.923,111.711,226.975,112.01,226.975,113"/>
	<path fill="#393435" d="M162.811,133.097c0,2.269,5.671,1.43,5.671,4.878c0,1.966-1.616,2.847-3.659,2.847
		c-1.773,0-3.133-0.848-3.694-1.555c-0.106-0.152-0.149-0.25-0.149-0.399c0-0.347,0.277-0.631,0.628-0.631
		c0.125,0,0.302,0.04,0.473,0.217c0.671,0.661,1.53,1.063,2.743,1.063c1.224,0,2.287-0.42,2.287-1.542
		c0-2.223-5.68-1.339-5.68-4.878c0-1.789,1.47-2.616,3.305-2.616c1.467,0,2.609,0.497,3.277,1.396
		c0.061,0.08,0.146,0.211,0.146,0.405c0,0.342-0.274,0.626-0.622,0.626c-0.106,0-0.277-0.022-0.451-0.199
		c-0.585-0.558-1.231-0.904-2.351-0.904C163.762,131.805,162.811,132.105,162.811,133.097"/>
	<path fill="#393435" d="M171.786,128.499c0-0.371,0.323-0.686,0.689-0.686c0.388,0,0.692,0.314,0.692,0.686v2.271h1.402
		c0.369,0,0.649,0.286,0.649,0.646c0,0.362-0.28,0.658-0.649,0.658h-1.402v5.95c0,0.912,0.521,1.412,1.253,1.412
		c0.366,0,0.671,0.287,0.671,0.655c0,0.36-0.305,0.649-0.671,0.649c-1.708,0-2.635-1.155-2.635-2.717v-5.95h-0.844
		c-0.366,0-0.643-0.296-0.643-0.658c0-0.36,0.276-0.646,0.643-0.646h0.844V128.499z"/>
	<path fill="#393435" d="M178.863,131.279v5.641c0,1.396,0.453,2.615,2.634,2.615c2.173,0,2.63-1.219,2.63-2.615v-5.641
		c0-0.378,0.327-0.686,0.714-0.686c0.365,0,0.668,0.308,0.668,0.686v5.641c0,2.045-0.668,3.926-4.012,3.926
		c-3.32,0-4.016-1.881-4.016-3.926v-5.641c0-0.378,0.305-0.686,0.695-0.686C178.54,130.594,178.863,130.901,178.863,131.279"/>
	<path fill="#393435" d="M195.154,131.877v-5.978c0-0.403,0.302-0.702,0.689-0.702c0.387,0,0.691,0.299,0.691,0.702v10.691
		c0,2.847-1.771,4.255-4.231,4.255c-2.783,0-4.423-1.658-4.423-5.197c0-3.543,1.554-5.18,4.338-5.18
		C193.602,130.469,194.66,131.176,195.154,131.877 M195.154,133.62c0,0-0.82-1.892-2.851-1.892c-1.957,0-3.043,1.258-3.043,3.92
		c0,2.688,1.062,3.938,3.043,3.938c1.661,0,2.851-0.951,2.851-2.996V133.62z"/>
	<path fill="#393435" d="M203.571,130.469c3.444,0,4.116,2.74,4.116,4.2c0,0.632,0,1.391-0.866,1.391h-6.299
		c0,2.131,1.231,3.515,3.262,3.515c1.247,0,1.988-0.478,2.589-0.938c0.131-0.07,0.217-0.115,0.388-0.115
		c0.341,0,0.628,0.268,0.628,0.615c0,0.241-0.11,0.381-0.244,0.497c-0.323,0.329-1.445,1.213-3.36,1.213
		c-2.871,0-4.664-1.579-4.664-5.197C199.12,132.316,200.76,130.469,203.571,130.469 M203.571,131.729
		c-1.881,0-2.921,1.203-3.049,3.117h5.808C206.33,133.295,205.79,131.729,203.571,131.729"/>
	<path fill="#393435" d="M218.473,134.282v5.765c0,0.394-0.305,0.695-0.689,0.695c-0.39,0-0.688-0.302-0.688-0.695v-5.475
		c0-1.711-0.498-2.872-2.592-2.872c-2.135,0-2.872,1.286-2.872,3.021v5.325c0,0.394-0.299,0.695-0.687,0.695
		c-0.387,0-0.688-0.302-0.688-0.695v-8.768c0-0.378,0.302-0.686,0.688-0.686c0.388,0,0.687,0.308,0.687,0.686v0.695
		c0.409-0.82,1.47-1.506,2.872-1.506C217.826,130.469,218.473,132.453,218.473,134.282"/>
	<path fill="#393435" d="M222.034,128.499c0-0.371,0.323-0.686,0.688-0.686c0.391,0,0.689,0.314,0.689,0.686v2.271h1.402
		c0.371,0,0.648,0.286,0.648,0.646c0,0.362-0.277,0.658-0.648,0.658h-1.402v5.95c0,0.912,0.521,1.412,1.25,1.412
		c0.371,0,0.67,0.287,0.67,0.655c0,0.36-0.299,0.649-0.67,0.649c-1.705,0-2.628-1.155-2.628-2.717v-5.95h-0.839
		c-0.375,0-0.652-0.296-0.652-0.658c0-0.36,0.277-0.646,0.652-0.646h0.839V128.499z"/>
	<path fill="#393435" d="M162.339,152.958c-0.217,0.241-0.369,0.299-0.559,0.299c-0.351,0-0.628-0.269-0.628-0.628
		c0-0.137,0.043-0.244,0.104-0.359c0.604-0.945,1.774-1.714,3.585-1.714c2.503,0,3.884,1.481,3.884,3.68v5.933
		c0,0.369-0.305,0.677-0.67,0.677c-0.366,0-0.668-0.308-0.668-0.677v-0.78c-0.54,1.019-1.792,1.555-3.085,1.555
		c-2.29,0-3.731-1.094-3.731-3.088c0-1.894,1.441-3.037,3.771-3.037h3.046v-0.582c0-1.476-0.973-2.375-2.546-2.375
		C163.696,151.86,163.006,152.208,162.339,152.958 M167.387,156.937v-0.905h-3.046c-1.398,0-2.371,0.569-2.371,1.823
		c0,1.128,0.78,1.841,2.463,1.841C165.939,159.695,167.387,158.766,167.387,156.937"/>
	<path fill="#393435" d="M172.889,153.199c0,2.262,5.671,1.424,5.671,4.878c0,1.966-1.619,2.838-3.665,2.838
		c-1.768,0-3.127-0.838-3.688-1.546c-0.11-0.152-0.152-0.263-0.152-0.415c0-0.338,0.279-0.615,0.628-0.615
		c0.127,0,0.299,0.039,0.47,0.21c0.667,0.668,1.536,1.055,2.742,1.055c1.229,0,2.287-0.411,2.287-1.526
		c0-2.223-5.673-1.339-5.673-4.878c0-1.79,1.466-2.616,3.295-2.616c1.47,0,2.616,0.497,3.286,1.384
		c0.062,0.086,0.15,0.223,0.15,0.418c0,0.342-0.281,0.619-0.625,0.619c-0.11,0-0.287-0.016-0.454-0.198
		c-0.586-0.558-1.229-0.899-2.357-0.899C173.838,151.906,172.889,152.208,172.889,153.199"/>
	<path fill="#393435" d="M182.462,153.199c0,2.262,5.683,1.424,5.683,4.878c0,1.966-1.621,2.838-3.671,2.838
		c-1.768,0-3.128-0.838-3.691-1.546c-0.106-0.152-0.149-0.263-0.149-0.415c0-0.338,0.28-0.615,0.622-0.615
		c0.128,0,0.305,0.039,0.481,0.21c0.665,0.668,1.524,1.055,2.737,1.055c1.226,0,2.287-0.411,2.287-1.526
		c0-2.223-5.677-1.339-5.677-4.878c0-1.79,1.47-2.616,3.305-2.616c1.463,0,2.609,0.497,3.28,1.384
		c0.062,0.086,0.152,0.223,0.152,0.418c0,0.342-0.287,0.619-0.631,0.619c-0.107,0-0.277-0.016-0.451-0.198
		c-0.585-0.558-1.231-0.899-2.351-0.899C183.415,151.906,182.462,152.208,182.462,153.199"/>
	<path fill="#393435" d="M194.703,150.556c3.448,0,4.118,2.75,4.118,4.216c0,0.632,0,1.385-0.865,1.385h-6.299
		c0,2.131,1.229,3.515,3.263,3.515c1.243,0,1.981-0.479,2.585-0.933c0.128-0.076,0.217-0.122,0.39-0.122
		c0.342,0,0.622,0.274,0.622,0.622c0,0.25-0.104,0.365-0.237,0.496c-0.323,0.324-1.445,1.208-3.359,1.208
		c-2.869,0-4.665-1.573-4.665-5.207C190.254,152.418,191.895,150.556,194.703,150.556 M194.703,151.809
		c-1.881,0-2.917,1.22-3.046,3.14h5.805C197.461,153.397,196.919,151.809,194.703,151.809"/>
	<path fill="#393435" d="M216.232,154.385v5.765c0,0.388-0.299,0.695-0.691,0.695c-0.388,0-0.689-0.308-0.689-0.695v-5.48
		c0-1.711-0.601-2.872-2.695-2.872c-1.856,0-2.701,0.99-2.701,2.588v5.765c0,0.388-0.305,0.695-0.688,0.695
		c-0.388,0-0.692-0.308-0.692-0.695v-5.48c0-1.711-0.539-2.872-2.655-2.872c-2.003,0-2.652,1.207-2.652,3.021v5.332
		c0,0.388-0.299,0.695-0.692,0.695c-0.384,0-0.686-0.308-0.686-0.695v-8.768c0-0.378,0.302-0.687,0.686-0.687
		c0.394,0,0.692,0.309,0.692,0.687v0.689c0.365-0.793,1.402-1.516,2.811-1.516c1.771,0,2.909,0.655,3.427,1.516
		c0.539-0.839,1.488-1.516,3.152-1.516C215.472,150.556,216.232,152.549,216.232,154.385"/>
	<path fill="#393435" d="M227.905,155.735c0,3.542-1.644,5.207-4.424,5.207c-2.46,0-4.228-1.396-4.228-4.249v-10.708
		c0-0.377,0.299-0.686,0.692-0.686c0.381,0,0.682,0.309,0.682,0.686v5.981c0.504-0.688,1.564-1.411,2.939-1.411
		C226.35,150.556,227.905,152.208,227.905,155.735 M220.627,156.693c0,2.045,1.192,3.002,2.854,3.002c1.981,0,3.04-1.256,3.04-3.96
		c0-2.646-1.076-3.927-3.04-3.927c-2.027,0-2.854,1.902-2.854,1.902V156.693z"/>
	<path fill="#393435" d="M231.655,145.985v12.335c0,0.851,0.28,1.226,0.865,1.226c0.342,0,0.644,0.274,0.644,0.649
		c0,0.359-0.302,0.649-0.644,0.649c-1.441,0-2.243-0.872-2.243-2.524v-12.335c0-0.359,0.323-0.686,0.688-0.686
		C231.356,145.3,231.655,145.626,231.655,145.985"/>
	<path fill="#393435" d="M237.941,160.254l-3.61-8.563c-0.018-0.07-0.061-0.15-0.061-0.309c0-0.378,0.296-0.687,0.688-0.687
		c0.385,0,0.556,0.235,0.65,0.451l3.039,7.442l3.043-7.442c0.082-0.216,0.256-0.451,0.64-0.451c0.396,0,0.695,0.309,0.695,0.687
		c0,0.158-0.043,0.238-0.062,0.309l-4.252,10.118c-0.885,2.112-1.984,3.191-4.034,3.191c-0.365,0-0.646-0.28-0.646-0.649
		c0-0.359,0.281-0.641,0.646-0.641C236.557,163.71,237.05,162.43,237.941,160.254"/>
	<path fill="#393435" d="M123.747,150.571c0.132,0,0.263-0.028,0.391-0.079l6.759-2.845c0.515-0.22,0.759-0.802,0.545-1.326
		c-0.219-0.513-0.813-0.753-1.332-0.543l-6.752,2.839c-0.238,0.109-0.418,0.286-0.525,0.497v0.865
		C123.005,150.349,123.366,150.571,123.747,150.571"/>
	<path fill="#393435" d="M123.747,154.224c0.132,0,0.263-0.034,0.391-0.086l6.759-2.841c0.515-0.217,0.759-0.805,0.545-1.323
		c-0.219-0.524-0.813-0.753-1.332-0.546l-6.752,2.842c-0.238,0.103-0.418,0.286-0.525,0.496v0.866
		C123.005,154.001,123.366,154.224,123.747,154.224"/>
	<path fill="#393435" d="M123.747,157.86c0.132,0,0.263-0.019,0.391-0.07l6.759-2.842c0.515-0.216,0.759-0.811,0.545-1.328
		c-0.219-0.519-0.813-0.757-1.332-0.54l-6.752,2.835c-0.238,0.104-0.418,0.287-0.525,0.503v0.866
		C123.005,157.65,123.366,157.86,123.747,157.86"/>
	<path fill="#393435" d="M122.125,162.332c0.128,0,0.262-0.018,0.39-0.085l6.762-2.838c0.512-0.217,0.756-0.809,0.539-1.326
		c-0.216-0.516-0.808-0.76-1.325-0.543l-6.183,2.604c-0.263,0.609-0.616,1.18-1.043,1.692
		C121.452,162.144,121.778,162.332,122.125,162.332"/>
	<path fill="#393435" d="M123.747,146.918c0.132,0,0.263-0.026,0.391-0.072l6.759-2.838c0.515-0.229,0.759-0.814,0.545-1.333
		c-0.219-0.518-0.813-0.752-1.332-0.543l-6.752,2.833c-0.238,0.109-0.418,0.296-0.525,0.503v0.866
		C123.005,146.696,123.366,146.918,123.747,146.918"/>
	<path fill="#393435" d="M123.357,141.312c-0.238,0.109-0.418,0.296-0.525,0.512v0.866c0.174,0.359,0.534,0.576,0.915,0.576
		c0.132,0,0.263-0.027,0.391-0.073l6.554-2.753h-5.237L123.357,141.312z"/>
	<path fill="#393435" d="M130.109,138.48l-0.792,0.332h2C131.045,138.453,130.551,138.304,130.109,138.48"/>
	<path fill="#393435" d="M123.747,127.051c0.132,0,0.263-0.033,0.391-0.085l6.759-2.832c0.515-0.211,0.759-0.82,0.545-1.332
		c-0.219-0.516-0.813-0.754-1.332-0.537l-6.752,2.832c-0.238,0.101-0.418,0.29-0.525,0.513v0.859
		C123.005,126.822,123.366,127.051,123.747,127.051"/>
	<path fill="#393435" d="M123.747,123.405c0.132,0,0.263-0.037,0.391-0.086l6.759-2.838c0.515-0.217,0.759-0.813,0.545-1.323
		c-0.219-0.513-0.813-0.762-1.332-0.545l-6.752,2.847c-0.238,0.092-0.418,0.274-0.525,0.497v0.859
		C123.005,123.171,123.366,123.405,123.747,123.405"/>
	<path fill="#393435" d="M123.357,117.808c-0.238,0.098-0.418,0.28-0.525,0.497v0.86c0.174,0.359,0.534,0.588,0.915,0.588
		c0.132,0,0.263-0.03,0.391-0.085l6.759-2.832c0.515-0.223,0.759-0.812,0.545-1.33c-0.091-0.21-0.24-0.369-0.417-0.473
		c-1.543,0.609-3.125,1.129-4.738,1.54L123.357,117.808z"/>
	<path fill="#393435" d="M142.362,108.096c0.188,0.191,0.445,0.295,0.713,0.295c0.134,0,0.262-0.018,0.393-0.076l6.76-2.835
		c0.518-0.217,0.762-0.817,0.542-1.323c-0.219-0.524-0.813-0.763-1.328-0.546l-4.32,1.817
		C144.243,106.36,143.325,107.257,142.362,108.096"/>
	<path fill="#393435" d="M147.94,102.72c0.131,0,0.269-0.021,0.391-0.085l6.765-2.832c0.512-0.217,0.753-0.814,0.536-1.332
		c-0.216-0.509-0.808-0.754-1.326-0.537l-4.917,2.064c-0.582,0.893-1.21,1.771-1.869,2.619
		C147.654,102.675,147.791,102.72,147.94,102.72"/>
	<path fill="#393435" d="M150.779,97.855c0.131,0,0.265-0.024,0.394-0.08l6.756-2.839c0.521-0.222,0.765-0.812,0.542-1.328
		c-0.213-0.513-0.811-0.763-1.326-0.54l-5.094,2.137c-0.415,0.894-0.87,1.771-1.36,2.632
		C150.72,97.843,150.749,97.855,150.779,97.855"/>
	<path fill="#393435" d="M153.617,92.982c0.135,0,0.268-0.018,0.396-0.069l6.759-2.848c0.515-0.21,0.759-0.805,0.536-1.323
		c-0.216-0.518-0.808-0.762-1.326-0.546l-6.183,2.598c-0.22,0.689-0.469,1.362-0.734,2.024
		C153.233,92.931,153.425,92.982,153.617,92.982"/>
	<path fill="#393435" d="M154.836,88.525c0.127,0,0.262-0.026,0.39-0.078l6.759-2.839c0.516-0.21,0.76-0.808,0.54-1.326
		c-0.214-0.512-0.808-0.759-1.323-0.543l-6.238,2.622c-0.14,0.701-0.298,1.396-0.487,2.086
		C154.592,88.499,154.714,88.525,154.836,88.525"/>
	<path fill="#393435" d="M155.647,84.066c0.129,0,0.263-0.024,0.394-0.086l6.756-2.825c0.515-0.223,0.759-0.812,0.542-1.336
		c-0.216-0.518-0.813-0.756-1.326-0.54l-6.414,2.695c-0.061,0.689-0.134,1.372-0.231,2.046
		C155.458,84.054,155.549,84.066,155.647,84.066"/>
	<path fill="#393435" d="M162.416,75.222l-6.678,2.805c0.007,0.192,0.01,0.381,0.01,0.573c0,0.451-0.016,0.902-0.03,1.342
		c0.106,0.04,0.22,0.073,0.335,0.073c0.131,0,0.26-0.033,0.391-0.079l6.759-2.839c0.516-0.223,0.759-0.813,0.542-1.323
		C163.531,75.25,162.936,75.012,162.416,75.222"/>
	<path fill="#393435" d="M156.052,75.957c0.131,0,0.26-0.027,0.391-0.086l6.759-2.832c0.516-0.217,0.759-0.808,0.542-1.326
		c-0.219-0.518-0.808-0.759-1.328-0.542l-6.756,2.838c-0.062,0.027-0.122,0.052-0.171,0.092c0.066,0.585,0.122,1.173,0.161,1.765
		C155.776,75.917,155.91,75.957,156.052,75.957"/>
	<path fill="#393435" d="M155.242,71.905c0.128,0,0.259-0.033,0.39-0.08l6.759-2.838c0.519-0.216,0.763-0.813,0.546-1.332
		c-0.22-0.518-0.813-0.759-1.329-0.542l-6.758,2.844c-0.019,0.007-0.044,0.019-0.059,0.027c0.143,0.634,0.269,1.266,0.381,1.905
		C155.196,71.89,155.214,71.905,155.242,71.905"/>
	<path fill="#393435" d="M154.428,68.253c0.134,0,0.265-0.034,0.396-0.079l6.756-2.838c0.519-0.217,0.762-0.814,0.543-1.326
		c-0.214-0.519-0.814-0.76-1.329-0.543l-6.753,2.832c-0.086,0.04-0.156,0.092-0.229,0.137c0.194,0.598,0.378,1.201,0.542,1.803
		C154.381,68.238,154.404,68.253,154.428,68.253"/>
	<path fill="#393435" d="M153.214,64.601c0.131,0,0.263-0.027,0.391-0.079l6.759-2.838c0.515-0.211,0.759-0.809,0.545-1.326
		c-0.216-0.519-0.816-0.759-1.329-0.543l-6.762,2.838c-0.14,0.058-0.256,0.152-0.354,0.257c0.244,0.558,0.473,1.121,0.695,1.686
		C153.178,64.595,153.196,64.601,153.214,64.601"/>
	<path fill="#393435" d="M151.593,60.955c0.127,0,0.261-0.028,0.39-0.08l6.762-2.844c0.512-0.216,0.756-0.808,0.542-1.317
		c-0.223-0.518-0.816-0.768-1.332-0.545l-6.759,2.838c-0.207,0.085-0.365,0.237-0.469,0.408c0.28,0.503,0.555,1.016,0.811,1.533
		C151.562,60.948,151.574,60.955,151.593,60.955"/>
	<path fill="#393435" d="M149.956,57.632l6.759-2.842c0.518-0.216,0.763-0.811,0.542-1.329c-0.217-0.512-0.813-0.756-1.328-0.546
		l-6.756,2.842c-0.217,0.098-0.379,0.247-0.479,0.434c0.345,0.49,0.674,0.993,1.001,1.511
		C149.785,57.684,149.867,57.671,149.956,57.632"/>
	<path fill="#393435" d="M147.538,54.47c0.128,0,0.263-0.032,0.391-0.078l6.759-2.845c0.515-0.217,0.759-0.809,0.539-1.326
		c-0.213-0.518-0.805-0.759-1.322-0.543l-6.76,2.838c-0.365,0.152-0.588,0.501-0.615,0.86c0.296,0.354,0.589,0.707,0.872,1.067
		C147.447,54.452,147.489,54.47,147.538,54.47"/>
	<path fill="#393435" d="M144.94,51.593c0.05-0.006,0.098-0.028,0.146-0.04l6.762-2.845c0.516-0.21,0.76-0.808,0.543-1.325
		c-0.22-0.513-0.811-0.759-1.329-0.543l-6.756,2.838c-0.305,0.132-0.515,0.394-0.591,0.695
		C144.132,50.772,144.539,51.178,144.94,51.593"/>
	<path fill="#393435" d="M142.251,48.708l6.756-2.841c0.518-0.216,0.763-0.812,0.548-1.323c-0.225-0.512-0.816-0.762-1.328-0.546
		l-6.762,2.842c-0.421,0.177-0.656,0.601-0.613,1.027c0.375,0.296,0.741,0.604,1.106,0.911
		C142.057,48.767,142.157,48.745,142.251,48.708"/>
	<path fill="#393435" d="M145.361,43.435c0.516-0.217,0.76-0.805,0.543-1.323c-0.22-0.519-0.817-0.763-1.329-0.546l-6.762,2.848
		c-0.372,0.149-0.595,0.497-0.616,0.878c0.494,0.308,0.982,0.631,1.464,0.964L145.361,43.435z"/>
	<path fill="#393435" d="M134.965,43.922c0.131,0,0.266-0.027,0.39-0.078l6.763-2.843c0.512-0.206,0.756-0.804,0.543-1.322
		c-0.217-0.513-0.814-0.76-1.33-0.543l-6.756,2.839c-0.518,0.216-0.762,0.811-0.548,1.323c0.066,0.146,0.155,0.255,0.269,0.354
		c0.148,0.072,0.298,0.152,0.454,0.243C134.819,43.9,134.889,43.922,134.965,43.922"/>
	<path fill="#393435" d="M137.654,39.377c0.52-0.211,0.763-0.805,0.546-1.316c-0.223-0.52-0.813-0.763-1.329-0.546l-6.762,2.841
		c-0.497,0.201-0.734,0.759-0.558,1.271c0.494,0.171,0.987,0.348,1.469,0.542L137.654,39.377z"/>
	<path fill="#393435" d="M132.789,37.758c0.519-0.217,0.759-0.808,0.543-1.326c-0.214-0.516-0.813-0.759-1.329-0.542l-6.762,2.838
		c-0.506,0.216-0.753,0.808-0.537,1.332c0.037,0.079,0.086,0.155,0.141,0.229c0.414,0.084,0.829,0.183,1.241,0.289L132.789,37.758z"
		/>
	<path fill="#393435" d="M118.107,37.115c0.518-0.217,0.763-0.814,0.542-1.323c-0.216-0.512-0.811-0.763-1.328-0.546l-6.756,2.847
		c-0.497,0.202-0.738,0.766-0.562,1.266c1.299-0.223,2.609-0.394,3.939-0.494L118.107,37.115z"/>
	<path fill="#393435" d="M126.301,36.95c0.519-0.216,0.759-0.812,0.543-1.323c-0.22-0.518-0.812-0.762-1.326-0.552l-6.759,2.841
		c-0.516,0.223-0.756,0.812-0.543,1.33c0.031,0.072,0.073,0.131,0.122,0.198c0.583,0.018,1.165,0.063,1.744,0.115L126.301,36.95z"/>
</g>
</svg>
