<?xml version="1.0" encoding="utf-8"?>
<!-- Generator: Adobe Illustrator 16.0.0, SVG Export Plug-In . SVG Version: 6.00 Build 0)  -->
<!DOCTYPE svg PUBLIC "-//W3C//DTD SVG 1.1//EN" "http://www.w3.org/Graphics/SVG/1.1/DTD/svg11.dtd">
<svg version="1.1" id="Layer_1" xmlns="http://www.w3.org/2000/svg" xmlns:xlink="http://www.w3.org/1999/xlink" x="0px" y="0px"
	 width="25px" height="25px" viewBox="0 0 25 25" enable-background="new 0 0 25 25" xml:space="preserve">
<g>
	<g>
		<path d="M19.502,2H5.339C2.54,2,2,3.152,2,4.947v14.634c0,0.981,0.607,2.743,2.428,2.743h15.276c1.315,0,2.63-0.779,2.63-2.643
			V4.845C22.334,2.881,21.355,2,19.502,2z M12.218,8.098c2.235,0,4.048,1.82,4.048,4.065c0,2.244-1.812,4.063-4.048,4.063
			c-2.234,0-4.046-1.819-4.046-4.063C8.172,9.917,9.983,8.098,12.218,8.098z M20.008,18.971c0,1.051-0.304,1.018-1.012,1.018H5.541
			c-1.012,0-1.214-0.645-1.214-1.221s0-8.128,0-8.128h1.821c0,0-0.803,2.659,0.606,4.979c0.853,1.401,2.604,2.946,5.563,2.946
			c2.969,0,7.217-2.606,5.869-7.925h1.82C20.008,10.639,20.008,17.922,20.008,18.971z M20.008,7.488c0,0.474-0.338,0.812-0.81,0.812
			H16.77c-0.606,0-0.91-0.339-0.91-0.915V5.557c0-0.915,0.404-1.321,1.113-1.321h2.123c0.607,0,0.911,0.507,0.911,0.914
			L20.008,7.488L20.008,7.488z"/>
	</g>
</g>
</svg>
