<svg id="Layer_1" data-name="Layer 1" xmlns="http://www.w3.org/2000/svg" viewBox="0 0 454.25 790.34"><defs><style>.cls-1{fill:#fff;}</style></defs><title>tumblr_logo_white</title><path class="cls-1" d="M390.33,791.17c-167.75,0-231.46-123.71-231.46-211.11V321.79h-80V219.7c119.87-43.2,148.74-151.35,155.51-213A6.19,6.19,0,0,1,240,.83H355.84V202.16H514V321.79H355.24v246c0.55,32.91,12.36,78,72.71,78,1.11,0,2.26,0,3.37,0,21-.55,49.1-6.65,63.8-13.66l38,112.74c-14.3,20.95-78.8,45.3-136.86,46.29-2,0-4,0-5.94,0" transform="translate(-78.87 -0.83)"/></svg>