<?xml version="1.0" encoding="utf-8"?>
<!-- Generator: Adobe Illustrator 16.0.0, SVG Export Plug-In . SVG Version: 6.00 Build 0)  -->
<!DOCTYPE svg PUBLIC "-//W3C//DTD SVG 1.1//EN" "http://www.w3.org/Graphics/SVG/1.1/DTD/svg11.dtd">
<svg version="1.1" id="Layer_1" xmlns="http://www.w3.org/2000/svg" xmlns:xlink="http://www.w3.org/1999/xlink" x="0px" y="0px"
	 width="25px" height="25px" viewBox="0 0 25 25" enable-background="new 0 0 25 25" xml:space="preserve">
<path d="M2.612,4.692c0,0,3.289,4.362,9.867,4.788c-0.165-0.745-0.311-4.158,3.15-5.453c2.988-1.117,4.934,1.197,4.934,1.197
	s1.289,0.026,3.151-1.064c0.083,0.824-1.78,2.34-2.056,2.527c0.576,0.08,2.111-0.399,2.74-0.665
	c-0.328,0.505-1.178,1.463-2.33,2.261c0,0.798,0.221,9.752-8.905,13.168c-6.823,2.553-11.92-1.199-11.92-1.199
	s4.056,0.426,6.85-1.994c-0.903,0-3.645-0.611-4.384-3.191c0.384,0.105,1.37,0.214,2.056,0c-0.658-0.213-3.755-1.33-3.837-4.788
	c0.438,0.212,0.903,0.532,2.192,0.665C3.353,10.358,0.886,8.07,2.612,4.692z"/>
</svg>
