<?xml version="1.0" encoding="utf-8"?>
<!-- Generator: Adobe Illustrator 16.0.0, SVG Export Plug-In . SVG Version: 6.00 Build 0)  -->
<!DOCTYPE svg PUBLIC "-//W3C//DTD SVG 1.1//EN" "http://www.w3.org/Graphics/SVG/1.1/DTD/svg11.dtd">
<svg version="1.1" id="Layer_1" xmlns="http://www.w3.org/2000/svg" xmlns:xlink="http://www.w3.org/1999/xlink" x="0px" y="0px"
	 width="25px" height="25px" viewBox="0 0 25 25" enable-background="new 0 0 25 25" xml:space="preserve">
<g>
	<g>
		<path fill-rule="evenodd" clip-rule="evenodd" fill="#FFFFFF" d="M19.502,2H5.339C2.54,2,2,3.152,2,4.947v14.634
			c0,0.982,0.607,2.743,2.428,2.743h15.276c1.315,0,2.63-0.779,2.63-2.642V4.845C22.334,2.881,21.356,2,19.502,2z M12.218,8.098
			c2.235,0,4.047,1.82,4.047,4.065c0,2.244-1.812,4.064-4.047,4.064c-2.234,0-4.046-1.82-4.046-4.064
			C8.172,9.917,9.983,8.098,12.218,8.098z M20.008,18.971c0,1.051-0.304,1.017-1.012,1.017H5.541c-1.012,0-1.214-0.644-1.214-1.22
			s0-8.129,0-8.129h1.821c0,0-0.803,2.659,0.606,4.979c0.853,1.402,2.604,2.947,5.563,2.947c2.969,0,7.217-2.607,5.868-7.926h1.821
			C20.008,10.639,20.008,17.922,20.008,18.971z M20.008,7.488c0,0.474-0.338,0.812-0.81,0.812h-2.428
			c-0.607,0-0.911-0.339-0.911-0.915V5.557c0-0.915,0.405-1.321,1.113-1.321h2.124c0.607,0,0.911,0.507,0.911,0.914V7.488z"/>
	</g>
</g>
</svg>
