<?xml version="1.0" encoding="utf-8"?>
<!-- Generator: Adobe Illustrator 16.0.0, SVG Export Plug-In . SVG Version: 6.00 Build 0)  -->
<!DOCTYPE svg PUBLIC "-//W3C//DTD SVG 1.1//EN" "http://www.w3.org/Graphics/SVG/1.1/DTD/svg11.dtd">
<svg version="1.1" id="Layer_1" xmlns="http://www.w3.org/2000/svg" xmlns:xlink="http://www.w3.org/1999/xlink" x="0px" y="0px"
	 width="25px" height="25px" viewBox="0 0 25 25" enable-background="new 0 0 25 25" xml:space="preserve">
<g>
	<g>
		<path fill-rule="evenodd" clip-rule="evenodd" fill="#FFFFFF" d="M11.887,10.822c1.556,0,1.651-1.329,1.651-1.607V6.001
			c0-0.587-0.476-1.483-1.523-1.483c-1.049,0-1.779,0.525-1.779,1.731v2.719C10.235,9.493,10.33,10.822,11.887,10.822z
			 M11.251,6.496c0-0.866,0.318-0.99,0.636-0.99s0.636,0.124,0.636,0.99v2.472c0,0.31-0.224,0.865-0.636,0.865
			c-0.413,0-0.636-0.247-0.636-0.865V6.496z M15.766,10.743c0.578-0.171,0.949-0.663,0.949-0.663v0.619h1.143V4.518h-1.143
			c0,0,0,3.337,0,4.574c-0.667,1.02-1.017,0.804-1.017,0c0-0.525,0-4.574,0-4.574h-1.144V7.36c0,0,0,0.773,0,2.596
			C14.555,10.799,15.27,10.89,15.766,10.743z M7.44,10.699h1.144V7.36l1.523-4.944h-1.27L8.076,5.754l-0.89-3.338H5.789L7.44,7.237
			V10.699z M21.67,15.767c-0.052-0.564,0.04-2.544-1.421-3.111c-1.258-0.488-3.762-0.598-7.346-0.598c-2.351,0-4.859,0-6.479,0.124
			s-3.525,0-3.685,3.956s0,6.335,0.381,7.169c0.382,0.835,0.095,1.392,4.447,1.607c4.352,0.216,9.751-0.03,11.308-0.124
			c1.556-0.092,2.699-0.371,2.922-3.708C22.019,17.745,21.765,16.817,21.67,15.767z M8.076,15.396H6.805v7.168H5.407v-7.168H4.01
			V14.16h4.066V15.396z M11.633,22.564h-1.144c0,0,0-0.339,0-0.617c-1.938,1.7-2.16,0.155-2.16-0.494s0-5.068,0-5.068h1.144
			c0,0,0.031,3.832,0,4.821c-0.032,0.989,1.017-0.124,1.017-0.124v-4.697h1.144V22.564z M16.08,21.577
			c0,0.71-0.477,1.111-1.144,1.111c-0.668,0-1.144-0.741-1.144-0.741v0.617h-1.144V14.16h1.144v2.72c0,0,0.476-0.619,1.27-0.619
			c0.604,0,1.018,0.433,1.018,1.236V21.577z M20.398,17.868v1.73h-2.286c0,0.681-0.255,1.979,0.508,1.979s0.636-0.619,0.636-0.619
			v-0.617h1.143c0,0,0,0.34,0,0.617c0,1.082-0.539,1.73-1.778,1.73s-1.651-1.02-1.651-1.606v-3.091c0-0.494,0-1.73,1.778-1.73
			C20.526,16.261,20.398,17.868,20.398,17.868z M18.747,17.25c-0.698,0-0.635,0.989-0.635,1.483h1.144
			C19.256,18.733,19.446,17.25,18.747,17.25z M13.793,17.497v3.833c0,0,1.016,0.741,1.016-0.619v-2.597
			C14.809,17.25,14.142,17.157,13.793,17.497z"/>
	</g>
</g>
</svg>
