<?xml version="1.0" encoding="utf-8"?>
<!-- Generator: Adobe Illustrator 16.0.0, SVG Export Plug-In . SVG Version: 6.00 Build 0)  -->
<!DOCTYPE svg PUBLIC "-//W3C//DTD SVG 1.1//EN" "http://www.w3.org/Graphics/SVG/1.1/DTD/svg11.dtd">
<svg version="1.1" id="Layer_1" xmlns="http://www.w3.org/2000/svg" xmlns:xlink="http://www.w3.org/1999/xlink" x="0px" y="0px"
	 width="25px" height="25px" viewBox="0 0 25 25" enable-background="new 0 0 25 25" xml:space="preserve">
<g>
	<g>
		<path d="M11.887,9.822c1.556,0,1.651-1.329,1.651-1.607V5.001c0-0.587-0.476-1.483-1.523-1.483c-1.049,0-1.779,0.525-1.779,1.731
			v2.719C10.235,8.493,10.33,9.822,11.887,9.822z M11.251,5.496c0-0.866,0.318-0.99,0.636-0.99c0.318,0,0.636,0.124,0.636,0.99
			v2.472c0,0.31-0.224,0.865-0.636,0.865c-0.413,0-0.636-0.247-0.636-0.865V5.496z M15.766,9.743
			c0.578-0.171,0.949-0.663,0.949-0.663v0.619h1.143V3.518h-1.143c0,0,0,3.337,0,4.574c-0.667,1.02-1.017,0.804-1.017,0
			c0-0.525,0-4.574,0-4.574h-1.144V6.36c0,0,0,0.773,0,2.596C14.555,9.799,15.27,9.89,15.766,9.743z M7.44,9.699h1.144V6.36
			l1.523-4.944h-1.27L8.076,4.754l-0.89-3.338H5.789L7.44,6.237V9.699z M21.67,14.768c-0.052-0.564,0.04-2.545-1.421-3.111
			c-1.258-0.488-3.763-0.598-7.346-0.598c-2.351,0-4.859,0-6.479,0.124c-1.62,0.124-3.525,0-3.685,3.957
			c-0.16,3.955,0,6.334,0.381,7.168c0.382,0.836,0.095,1.393,4.447,1.607c4.352,0.216,9.751-0.03,11.308-0.124
			c1.557-0.092,2.699-0.371,2.922-3.708S21.766,15.816,21.67,14.768z M8.076,14.396H6.805v7.168H5.407v-7.168H4.01V13.16h4.066
			V14.396z M11.633,21.564h-1.144c0,0,0-0.34,0-0.617c-1.938,1.699-2.16,0.154-2.16-0.494s0-5.068,0-5.068h1.144
			c0,0,0.031,3.832,0,4.821c-0.032,0.989,1.017-0.124,1.017-0.124v-4.697h1.144L11.633,21.564L11.633,21.564z M16.08,20.577
			c0,0.71-0.477,1.11-1.145,1.11s-1.144-0.74-1.144-0.74v0.617h-1.144V13.16h1.144v2.72c0,0,0.476-0.619,1.271-0.619
			c0.604,0,1.018,0.433,1.018,1.236V20.577z M20.398,16.868v1.729h-2.287c0,0.682-0.254,1.979,0.509,1.979s0.636-0.619,0.636-0.619
			v-0.617h1.143c0,0,0,0.341,0,0.617c0,1.082-0.539,1.729-1.777,1.729c-1.239,0-1.65-1.02-1.65-1.605v-3.091
			c0-0.494,0-1.73,1.777-1.73S20.398,16.868,20.398,16.868z M18.747,16.25c-0.698,0-0.636,0.989-0.636,1.482h1.145
			C19.256,17.732,19.445,16.25,18.747,16.25z M13.793,16.497v3.833c0,0,1.016,0.74,1.016-0.619v-2.597
			C14.809,16.25,14.143,16.157,13.793,16.497z"/>
	</g>
</g>
</svg>
